<svg xmlns="http://www.w3.org/2000/svg" width="20" height="15.714" viewBox="0 0 20 15.714"><g transform="translate(-1.875 -4.688)"><path d="M1.875,4.688v15a.715.715,0,0,0,.715.715H21.16a.715.715,0,0,0,.715-.715v-15Zm1.429,5h9.286v8.571H3.3Zm17.142,8.571H14.017V9.687h6.429Zm0-10H3.3V6.117H20.446Z"/><path d="M11.24,13.65,9.275,16.742,6.9,13.528,4.1,17.935l.9.571,1.964-3.093,2.379,3.214,2.8-4.407Z" transform="translate(-0.529 -2.105)"/><rect width="3.572" height="0.715" transform="translate(15.446 11.831)"/><rect width="3.572" height="0.715" transform="translate(15.446 13.973)"/><rect width="3.572" height="0.715" transform="translate(15.446 16.116)"/></g></svg>