<?xml version="1.0" standalone="no"?>
<!DOCTYPE svg PUBLIC "-//W3C//DTD SVG 1.1//EN" "http://www.w3.org/Graphics/SVG/1.1/DTD/svg11.dtd" >
<svg xmlns="http://www.w3.org/2000/svg" xmlns:xlink="http://www.w3.org/1999/xlink" version="1.1">
<metadata>
Created by FontForge 20170924 at Wed Dec 14 16:29:29 2016
 By www-data
Copyright 2016 ABB Asea Brown Boveri Ltd - All Rights Reserved
</metadata>
<defs>
<font id="ABBvoice-Bold" horiz-adv-x="600" >
  <font-face 
    font-family="ABBvoice"
    font-weight="700"
    font-stretch="normal"
    units-per-em="1000"
    panose-1="2 13 7 3 2 5 3 2 2 4"
    ascent="719"
    descent="-281"
    x-height="505"
    cap-height="670"
    bbox="-202 -298 1293 973"
    underline-thickness="77"
    underline-position="-185"
    unicode-range="U+000D-FFFD"
  />
<missing-glyph horiz-adv-x="500" 
d="M50 0v750h400v-750h-400zM400 50v650h-300v-650h300z" />
    <glyph glyph-name=".notdef" horiz-adv-x="500" 
d="M50 0v750h400v-750h-400zM400 50v650h-300v-650h300z" />
    <glyph glyph-name=".null" horiz-adv-x="0" 
 />
    <glyph glyph-name=".null" horiz-adv-x="0" 
 />
    <glyph glyph-name="CR" unicode="&#xd;" horiz-adv-x="240" 
 />
    <glyph glyph-name="space" unicode=" " horiz-adv-x="240" 
 />
    <glyph glyph-name="period" unicode="." horiz-adv-x="274" 
d="M137 -12q-37 0 -61 22.5t-24 57.5t24 57.5t61 22.5t61 -22.5t24 -57.5t-24 -57.5t-61 -22.5z" />
    <glyph glyph-name="colon" unicode=":" horiz-adv-x="274" 
d="M137 -12q-37 0 -61 22.5t-24 57.5t24 57.5t61 22.5t61 -22.5t24 -57.5t-24 -57.5t-61 -22.5zM137 298q-37 0 -61 22.5t-24 57.5t24 57.5t61 22.5t61 -22.5t24 -57.5t-24 -57.5t-61 -22.5z" />
    <glyph glyph-name="comma" unicode="," horiz-adv-x="274" 
d="M85 -160l-60 49l27 30q44 48 53 85q-21 5 -36 24.5t-15 41.5q0 34 24 56.5t60 22.5q38 0 62 -24t24 -62q0 -41 -25.5 -87t-78.5 -100z" />
    <glyph glyph-name="semicolon" unicode=";" horiz-adv-x="274" 
d="M85 -160l-60 49l27 30q44 48 53 85q-21 5 -36 24.5t-15 41.5q0 34 24 56.5t60 22.5q38 0 62 -24t24 -62q0 -41 -25.5 -87t-78.5 -100zM137 298q-37 0 -61 22.5t-24 57.5t24 57.5t61 22.5t61 -22.5t24 -57.5t-24 -57.5t-61 -22.5z" />
    <glyph glyph-name="question" unicode="?" horiz-adv-x="538" 
d="M347 492q0 33 -27 52.5t-76 19.5q-42 0 -83 -18.5t-65 -49.5l-69 90q36 48 96 74t134 26q109 0 171.5 -49t62.5 -135q0 -58 -27.5 -98.5t-84.5 -67.5q-30 -14 -47 -26t-24.5 -26.5t-7.5 -42.5v-18h-137v29q0 65 22.5 99t83.5 61q44 20 61 37.5t17 42.5zM237 -12
q-37 0 -61 22.5t-24 57.5t24 57.5t61 22.5t61 -22.5t24 -57.5t-24 -57.5t-61 -22.5z" />
    <glyph glyph-name="exclam" unicode="!" horiz-adv-x="318" 
d="M84 670h150l-9 -447h-132zM159 -12q-37 0 -61 22.5t-24 57.5t24 57.5t61 22.5t61 -22.5t24 -57.5t-24 -57.5t-61 -22.5z" />
    <glyph glyph-name="questiondown" unicode="&#xbf;" horiz-adv-x="538" 
d="M191 15q0 -33 27 -52.5t76 -19.5q42 0 83 18.5t65 49.5l69 -90q-36 -48 -96 -74t-134 -26q-109 0 -171.5 49t-62.5 135q0 58 27.5 98.5t84.5 67.5q30 14 47 26t24.5 26.5t7.5 42.5v18h137v-29q0 -65 -22.5 -99t-83.5 -61q-44 -20 -61 -37.5t-17 -42.5zM301 519
q37 0 61 -22.5t24 -57.5t-24 -57.5t-61 -22.5t-61 22.5t-24 57.5t24 57.5t61 22.5z" />
    <glyph glyph-name="exclamdown" unicode="&#xa1;" horiz-adv-x="318" 
d="M234 -163h-150l9 447h132zM159 519q37 0 61 -22.5t24 -57.5t-24 -57.5t-61 -22.5t-61 22.5t-24 57.5t24 57.5t61 22.5z" />
    <glyph glyph-name="quotesingle" unicode="'" horiz-adv-x="210" 
d="M40 670h130l-15 -243h-100z" />
    <glyph glyph-name="quotedbl" unicode="&#x22;" horiz-adv-x="405" 
d="M40 670h130l-15 -243h-100zM235 670h130l-15 -243h-100z" />
    <glyph glyph-name="ellipsis" unicode="&#x2026;" horiz-adv-x="1000" 
d="M166 -12q-37 0 -61 22.5t-24 57.5t24 57.5t61 22.5t61 -22.5t24 -57.5t-24 -57.5t-61 -22.5zM499 -12q-37 0 -61 22.5t-24 57.5t24 57.5t61 22.5t61 -22.5t24 -57.5t-24 -57.5t-61 -22.5zM833 -12q-37 0 -61 22.5t-24 57.5t24 57.5t61 22.5t61 -22.5t24 -57.5t-24 -57.5
t-61 -22.5z" />
    <glyph glyph-name="nbspace" unicode="&#xa0;" horiz-adv-x="240" 
 />
    <glyph glyph-name="enquad" unicode="&#x2000;" horiz-adv-x="500" 
 />
    <glyph glyph-name="emquad" unicode="&#x2001;" horiz-adv-x="1000" 
 />
    <glyph glyph-name="enspace" unicode="&#x2002;" horiz-adv-x="500" 
 />
    <glyph glyph-name="emspace" unicode="&#x2003;" horiz-adv-x="1000" 
 />
    <glyph glyph-name="thirdemspace" unicode="&#x2004;" horiz-adv-x="333" 
 />
    <glyph glyph-name="fourthemspace" unicode="&#x2005;" horiz-adv-x="250" 
 />
    <glyph glyph-name="sixthemspace" unicode="&#x2006;" horiz-adv-x="167" 
 />
    <glyph glyph-name="figurespace" unicode="&#x2007;" horiz-adv-x="639" 
 />
    <glyph glyph-name="punctuationspace" unicode="&#x2008;" horiz-adv-x="274" 
 />
    <glyph glyph-name="thinspace" unicode="&#x2009;" horiz-adv-x="200" 
 />
    <glyph glyph-name="hairspace" unicode="&#x200a;" horiz-adv-x="63" 
 />
    <glyph glyph-name="zerowidthspace" unicode="&#x200b;" horiz-adv-x="0" 
 />
    <glyph glyph-name="zero" unicode="0" horiz-adv-x="639" 
d="M319 111q64 0 97.5 58t33.5 166t-33.5 166t-97.5 58q-63 0 -96.5 -58t-33.5 -166t33.5 -166t96.5 -58zM319 -16q-84 0 -146 44.5t-95 123.5t-33 183q0 108 35 187.5t97 121.5t142 42q84 0 146.5 -44.5t95.5 -124t33 -182.5q0 -108 -35 -187.5t-97 -121.5t-143 -42z" />
    <glyph glyph-name="one" unicode="1" horiz-adv-x="506" 
d="M462 0h-403v124h131v364h-131v108l108 3q21 1 32 9.5t14 26.5l6 35h112v-546h131v-124z" />
    <glyph glyph-name="two" unicode="2" horiz-adv-x="552" 
d="M34 83q0 81 19.5 134.5t66.5 93t132 72.5q41 16 65 29.5t34 29t10 41.5q0 35 -29 55.5t-79 20.5q-44 0 -85.5 -18.5t-71.5 -50.5l-66 98q44 46 105.5 72t128.5 26q109 0 174.5 -53.5t65.5 -143.5q0 -83 -40 -131.5t-135 -81.5q-56 -20 -87.5 -39t-46.5 -44.5t-17 -68.5
h323v-124h-467v83z" />
    <glyph glyph-name="three" unicode="3" horiz-adv-x="548" 
d="M30 602q84 84 229 84q109 0 174 -52t65 -140q0 -51 -30 -90t-88 -62q63 -14 102 -58.5t39 -102.5q0 -92 -71 -144t-196 -52q-72 0 -134 19t-92 49l47 107q30 -24 78 -38t101 -14q57 0 90 21t33 57q0 91 -153 91h-60v119h39q151 0 151 87q0 36 -30 58.5t-79 22.5
q-47 0 -87.5 -15t-70.5 -44z" />
    <glyph glyph-name="four" unicode="4" horiz-adv-x="621" 
d="M593 260v-119h-114v-141h-136v141h-311v107l298 421h149v-409h114zM344 259v238l-168 -238h168z" />
    <glyph glyph-name="five" unicode="5" horiz-adv-x="582" 
d="M264 -15q-148 0 -230 70l45 112q34 -26 80.5 -40.5t97.5 -14.5q61 0 96.5 26t35.5 71q0 51 -31 79t-87 28q-75 0 -125 -41l-82 55l41 340h383v-124h-277l-15 -132q50 21 120 21q65 0 114.5 -28t76 -77t26.5 -113q0 -69 -35 -122t-96 -81.5t-138 -28.5z" />
    <glyph glyph-name="six" unicode="6" horiz-adv-x="602" 
d="M490 519q-31 23 -65 33.5t-79 10.5q-75 0 -119 -51.5t-44 -139.5v-9q23 35 68.5 55.5t102.5 20.5q62 0 110 -28.5t74 -77t26 -108.5q0 -71 -33 -126t-88.5 -85t-124.5 -30q-134 0 -204.5 89t-70.5 258q0 168 80 261.5t223 93.5q64 0 108.5 -13.5t84.5 -45.5zM314 331
q-52 0 -83.5 -32t-31.5 -84q0 -51 31.5 -83t83.5 -32t83.5 32t31.5 83q0 52 -32 84t-83 32z" />
    <glyph glyph-name="seven" unicode="7" horiz-adv-x="534" 
d="M505 559q-102 -137 -149 -269.5t-47 -289.5h-154q0 140 48.5 273t150.5 273h-322v124h473v-111z" />
    <glyph glyph-name="eight" unicode="8" horiz-adv-x="606" 
d="M304 686q72 0 126 -23.5t83 -64.5t29 -93q0 -51 -27 -90t-76 -60q56 -15 92.5 -63.5t36.5 -107.5q0 -92 -71 -146t-193 -54t-193 54t-71 146q0 59 36.5 107.5t92.5 63.5q-49 21 -76 60t-27 90q0 54 30.5 95.5t84.5 63.5t123 22zM183 194q0 -43 33 -69.5t88 -26.5t88 26.5
t33 69.5t-33 69.5t-88 26.5t-88 -26.5t-33 -69.5zM207 486q0 -39 27 -63.5t70 -24.5t70 24.5t27 63.5t-27 63.5t-70 24.5t-70 -24.5t-27 -63.5z" />
    <glyph glyph-name="nine" unicode="9" horiz-adv-x="599" 
d="M274 -15q-71 0 -121 14t-90 45l49 108q59 -44 162 -44q70 0 106.5 44t36.5 127v27q-23 -33 -68.5 -52t-102.5 -19q-63 0 -110.5 28.5t-73 76.5t-25.5 107q0 71 33 125.5t88.5 84t123.5 29.5q134 0 204.5 -90t70.5 -261t-72.5 -260.5t-210.5 -89.5zM286 343
q52 0 83.5 31.5t31.5 82.5q0 50 -31.5 81.5t-83.5 31.5q-51 0 -82.5 -31t-31.5 -82t31.5 -82.5t82.5 -31.5z" />
    <glyph glyph-name="zero.tnum" 
d="M299 111q64 0 97.5 58t33.5 166t-33.5 166t-97.5 58q-63 0 -96.5 -58t-33.5 -166t33.5 -166t96.5 -58zM299 -16q-84 0 -146 44.5t-95 123.5t-33 183q0 108 35 187.5t97 121.5t142 42q84 0 146.5 -44.5t95.5 -124t33 -182.5q0 -108 -35 -187.5t-97 -121.5t-143 -42z" />
    <glyph glyph-name="one.tnum" 
d="M509 0h-403v124h131v364h-131v108l108 3q21 1 32 9.5t14 26.5l6 35h112v-546h131v-124z" />
    <glyph glyph-name="two.tnum" 
d="M58 83q0 81 19.5 134.5t66.5 93t132 72.5q41 16 65 29.5t34 29t10 41.5q0 35 -29 55.5t-79 20.5q-44 0 -85.5 -18.5t-71.5 -50.5l-66 98q44 46 105.5 72t128.5 26q109 0 174.5 -53.5t65.5 -143.5q0 -83 -40 -131.5t-135 -81.5q-56 -20 -87.5 -39t-46.5 -44.5t-17 -68.5
h323v-124h-467v83z" />
    <glyph glyph-name="three.tnum" 
d="M49 602q84 84 229 84q109 0 174 -52t65 -140q0 -51 -30 -90t-88 -62q63 -14 102 -58.5t39 -102.5q0 -92 -71 -144t-196 -52q-72 0 -134 19t-92 49l47 107q30 -24 78 -38t101 -14q57 0 90 21t33 57q0 91 -153 91h-60v119h39q151 0 151 87q0 36 -30 58.5t-79 22.5
q-47 0 -87.5 -15t-70.5 -44z" />
    <glyph glyph-name="four.tnum" 
d="M583 260v-119h-114v-141h-136v141h-311v107l298 421h149v-409h114zM334 259v238l-168 -238h168z" />
    <glyph glyph-name="five.tnum" 
d="M275 -15q-148 0 -230 70l45 112q34 -26 80.5 -40.5t97.5 -14.5q61 0 96.5 26t35.5 71q0 51 -31 79t-87 28q-75 0 -125 -41l-82 55l41 340h383v-124h-277l-15 -132q50 21 120 21q65 0 114.5 -28t76 -77t26.5 -113q0 -69 -35 -122t-96 -81.5t-138 -28.5z" />
    <glyph glyph-name="six.tnum" 
d="M495 519q-31 23 -65 33.5t-79 10.5q-75 0 -119 -51.5t-44 -139.5v-9q23 35 68.5 55.5t102.5 20.5q62 0 110 -28.5t74 -77t26 -108.5q0 -71 -33 -126t-88.5 -85t-124.5 -30q-134 0 -204.5 89t-70.5 258q0 168 80 261.5t223 93.5q64 0 108.5 -13.5t84.5 -45.5zM319 331
q-52 0 -83.5 -32t-31.5 -84q0 -51 31.5 -83t83.5 -32t83.5 32t31.5 83q0 52 -32 84t-83 32z" />
    <glyph glyph-name="seven.tnum" 
d="M526 559q-102 -137 -149 -269.5t-47 -289.5h-154q0 140 48.5 273t150.5 273h-322v124h473v-111z" />
    <glyph glyph-name="eight.tnum" 
d="M300 686q72 0 126 -23.5t83 -64.5t29 -93q0 -51 -27 -90t-76 -60q56 -15 92.5 -63.5t36.5 -107.5q0 -92 -71 -146t-193 -54t-193 54t-71 146q0 59 36.5 107.5t92.5 63.5q-49 21 -76 60t-27 90q0 54 30.5 95.5t84.5 63.5t123 22zM179 194q0 -43 33 -69.5t88 -26.5t88 26.5
t33 69.5t-33 69.5t-88 26.5t-88 -26.5t-33 -69.5zM203 486q0 -39 27 -63.5t70 -24.5t70 24.5t27 63.5t-27 63.5t-70 24.5t-70 -24.5t-27 -63.5z" />
    <glyph glyph-name="nine.tnum" 
d="M269 -15q-71 0 -121 14t-90 45l49 108q59 -44 162 -44q70 0 106.5 44t36.5 127v27q-23 -33 -68.5 -52t-102.5 -19q-63 0 -110.5 28.5t-73 76.5t-25.5 107q0 71 33 125.5t88.5 84t123.5 29.5q134 0 204.5 -90t70.5 -261t-72.5 -260.5t-210.5 -89.5zM281 343
q52 0 83.5 31.5t31.5 82.5q0 50 -31.5 81.5t-83.5 31.5q-51 0 -82.5 -31t-31.5 -82t31.5 -82.5t82.5 -31.5z" />
    <glyph glyph-name="zeroinferior" unicode="&#x2080;" horiz-adv-x="405" 
d="M203 189q-29 0 -42 -26.5t-13 -79.5t13 -79.5t42 -26.5t42 26.5t13 79.5t-13 79.5t-42 26.5zM203 286q75 0 121 -54.5t46 -148.5t-46 -148.5t-121 -54.5t-121 54.5t-46 148.5t46 148.5t121 54.5z" />
    <glyph glyph-name="oneinferior" unicode="&#x2081;" horiz-adv-x="405" 
d="M351 -113h-291v91h89v175h-89v88l78 2q13 0 19.5 4.5t8.5 14.5l4 18h88v-302h93v-91z" />
    <glyph glyph-name="twoinferior" unicode="&#x2082;" horiz-adv-x="405" 
d="M50 -60q0 74 31 114.5t102 63.5q36 12 47 20.5t11 22.5t-13 21.5t-35 7.5q-53 0 -101 -39l-47 76q65 57 158 57q46 0 79.5 -16.5t52 -45t18.5 -62.5q0 -43 -25 -70.5t-80 -45.5q-54 -17 -69.5 -29.5t-18.5 -36.5h191v-91h-301v53z" />
    <glyph glyph-name="threeinferior" unicode="&#x2083;" horiz-adv-x="405" 
d="M48 238q62 48 146 48q69 0 112 -31t43 -80q0 -30 -19.5 -53t-55.5 -35q40 -8 64 -35t24 -63q0 -33 -21.5 -58t-60 -38t-89.5 -13q-83 0 -142 38l29 83q23 -14 52.5 -22t58.5 -8q61 0 61 34t-59 34h-59v89h38q66 0 66 35q0 31 -54 31q-51 0 -95 -31z" />
    <glyph glyph-name="fourinferior" unicode="&#x2084;" horiz-adv-x="405" 
d="M372 48v-87h-65v-74h-100v74h-183v82l162 237h121v-232h65zM207 44v125l-85 -125h85z" />
    <glyph glyph-name="fiveinferior" unicode="&#x2085;" horiz-adv-x="405" 
d="M193 -120q-93 0 -143 41l31 80q45 -31 107 -31q66 0 66 45q0 21 -16 33t-45 12q-40 0 -67 -20l-57 38l24 198h237v-88h-161l-6 -53q29 8 65 8q58 0 94 -35t36 -93q0 -60 -45.5 -97.5t-119.5 -37.5z" />
    <glyph glyph-name="sixinferior" unicode="&#x2086;" horiz-adv-x="405" 
d="M213 -120q-83 0 -126.5 52t-43.5 151q0 97 49 150t137 53q38 0 66.5 -9t55.5 -30l-35 -75q-21 15 -41.5 21.5t-45.5 6.5q-39 0 -63 -24t-26 -65q34 35 92 35q59 0 95.5 -34t36.5 -89q0 -65 -41.5 -104t-109.5 -39zM210 -39q26 0 42 15.5t16 39.5t-16 39.5t-43 15.5
q-25 0 -41 -15.5t-16 -39.5q0 -25 16 -40t42 -15z" />
    <glyph glyph-name="seveninferior" unicode="&#x2087;" horiz-adv-x="405" 
d="M124 -113q0 147 114 301h-182v88h290v-78q-57 -77 -84 -150t-27 -161h-111z" />
    <glyph glyph-name="eightinferior" unicode="&#x2088;" horiz-adv-x="405" 
d="M203 -120q-76 0 -120 31.5t-44 86.5q0 35 22 63.5t55 36.5q-30 11 -45.5 33t-15.5 51q0 47 40.5 75.5t107.5 28.5q66 0 107 -29t41 -75q0 -29 -16 -51t-46 -33q33 -8 55 -36.5t22 -63.5q0 -55 -44 -86.5t-119 -31.5zM203 -40q27 0 43.5 13t16.5 33t-17 33t-43 13
q-27 0 -44 -13t-17 -33t16.5 -33t44.5 -13zM203 126q19 0 32.5 12t13.5 29q0 18 -13 29.5t-33 11.5t-33.5 -11.5t-13.5 -29.5q0 -17 13.5 -29t33.5 -12z" />
    <glyph glyph-name="nineinferior" unicode="&#x2089;" horiz-adv-x="405" 
d="M175 -120q-38 0 -66.5 9t-55.5 30l35 75q21 -15 41.5 -21.5t45.5 -6.5q41 0 64 22.5t25 66.5q-34 -35 -92 -35q-59 0 -95.5 34t-36.5 89q0 63 41.5 103t109.5 40q83 0 126.5 -52t43.5 -151q0 -100 -47.5 -151.5t-138.5 -51.5zM195 95q25 0 41 15.5t16 39.5q0 25 -16 40
t-42 15q-24 0 -41 -15.5t-17 -39.5t16 -39.5t43 -15.5z" />
    <glyph glyph-name="zerosuperior" unicode="&#x2070;" horiz-adv-x="405" 
d="M203 703q-29 0 -42 -26.5t-13 -79.5t13 -79.5t42 -26.5t42 26.5t13 79.5t-13 79.5t-42 26.5zM203 800q75 0 121 -54.5t46 -148.5t-46 -148.5t-121 -54.5t-121 54.5t-46 148.5t46 148.5t121 54.5z" />
    <glyph glyph-name="onesuperior" unicode="&#xb9;" horiz-adv-x="405" 
d="M351 401h-291v91h89v175h-89v88l78 2q13 0 19.5 4.5t8.5 14.5l4 18h88v-302h93v-91z" />
    <glyph glyph-name="twosuperior" unicode="&#xb2;" horiz-adv-x="405" 
d="M50 454q0 74 31 114.5t102 63.5q36 12 47 20.5t11 22.5t-13 21.5t-35 7.5q-53 0 -101 -39l-47 76q65 57 158 57q46 0 79.5 -16.5t52 -45t18.5 -62.5q0 -43 -25 -70.5t-80 -45.5q-54 -17 -69.5 -29.5t-18.5 -36.5h191v-91h-301v53z" />
    <glyph glyph-name="threesuperior" unicode="&#xb3;" horiz-adv-x="405" 
d="M48 752q62 48 146 48q69 0 112 -31t43 -80q0 -30 -19.5 -53t-55.5 -35q40 -8 64 -35t24 -63q0 -33 -21.5 -58t-60 -38t-89.5 -13q-83 0 -142 38l29 83q23 -14 52.5 -22t58.5 -8q61 0 61 34t-59 34h-59v89h38q66 0 66 35q0 31 -54 31q-51 0 -95 -31z" />
    <glyph glyph-name="foursuperior" unicode="&#x2074;" horiz-adv-x="405" 
d="M372 562v-87h-65v-74h-100v74h-183v82l162 237h121v-232h65zM207 558v125l-85 -125h85z" />
    <glyph glyph-name="fivesuperior" unicode="&#x2075;" horiz-adv-x="405" 
d="M193 394q-93 0 -143 41l31 80q45 -31 107 -31q66 0 66 45q0 21 -16 33t-45 12q-40 0 -67 -20l-57 38l24 198h237v-88h-161l-6 -53q29 8 65 8q58 0 94 -35t36 -93q0 -60 -45.5 -97.5t-119.5 -37.5z" />
    <glyph glyph-name="sixsuperior" unicode="&#x2076;" horiz-adv-x="405" 
d="M213 394q-83 0 -126.5 52t-43.5 151q0 97 49 150t137 53q38 0 66.5 -9t55.5 -30l-35 -75q-21 15 -41.5 21.5t-45.5 6.5q-39 0 -63 -24t-26 -65q34 35 92 35q59 0 95.5 -34t36.5 -89q0 -65 -41.5 -104t-109.5 -39zM210 475q26 0 42 15.5t16 39.5t-16 39.5t-43 15.5
q-25 0 -41 -15.5t-16 -39.5q0 -25 16 -40t42 -15z" />
    <glyph glyph-name="sevensuperior" unicode="&#x2077;" horiz-adv-x="405" 
d="M124 401q0 147 114 301h-182v88h290v-78q-57 -77 -84 -150t-27 -161h-111z" />
    <glyph glyph-name="eightsuperior" unicode="&#x2078;" horiz-adv-x="405" 
d="M203 394q-76 0 -120 31.5t-44 86.5q0 35 22 63.5t55 36.5q-30 11 -45.5 33t-15.5 51q0 47 40.5 75.5t107.5 28.5q66 0 107 -29t41 -75q0 -29 -16 -51t-46 -33q33 -8 55 -36.5t22 -63.5q0 -55 -44 -86.5t-119 -31.5zM203 474q27 0 43.5 13t16.5 33t-17 33t-43 13
q-27 0 -44 -13t-17 -33t16.5 -33t44.5 -13zM203 640q19 0 32.5 12t13.5 29q0 18 -13 29.5t-33 11.5t-33.5 -11.5t-13.5 -29.5q0 -17 13.5 -29t33.5 -12z" />
    <glyph glyph-name="ninesuperior" unicode="&#x2079;" horiz-adv-x="405" 
d="M175 394q-38 0 -66.5 9t-55.5 30l35 75q21 -15 41.5 -21.5t45.5 -6.5q41 0 64 22.5t25 66.5q-34 -35 -92 -35q-59 0 -95.5 34t-36.5 89q0 63 41.5 103t109.5 40q83 0 126.5 -52t43.5 -151q0 -100 -47.5 -151.5t-138.5 -51.5zM195 609q25 0 41 15.5t16 39.5q0 25 -16 40
t-42 15q-24 0 -41 -15.5t-17 -39.5t16 -39.5t43 -15.5z" />
    <glyph glyph-name="zero.dnom" horiz-adv-x="405" 
d="M203 302q-29 0 -42 -26.5t-13 -79.5t13 -79.5t42 -26.5t42 26.5t13 79.5t-13 79.5t-42 26.5zM203 399q75 0 121 -54.5t46 -148.5t-46 -148.5t-121 -54.5t-121 54.5t-46 148.5t46 148.5t121 54.5z" />
    <glyph glyph-name="one.dnom" horiz-adv-x="405" 
d="M351 0h-291v91h89v175h-89v88l78 2q13 0 19.5 4.5t8.5 14.5l4 18h88v-302h93v-91z" />
    <glyph glyph-name="two.dnom" horiz-adv-x="405" 
d="M50 53q0 74 31 114.5t102 63.5q36 12 47 20.5t11 22.5t-13 21.5t-35 7.5q-53 0 -101 -39l-47 76q65 57 158 57q46 0 79.5 -16.5t52 -45t18.5 -62.5q0 -43 -25 -70.5t-80 -45.5q-54 -17 -69.5 -29.5t-18.5 -36.5h191v-91h-301v53z" />
    <glyph glyph-name="three.dnom" horiz-adv-x="405" 
d="M48 351q62 48 146 48q69 0 112 -31t43 -80q0 -30 -19.5 -53t-55.5 -35q40 -8 64 -35t24 -63q0 -33 -21.5 -58t-60 -38t-89.5 -13q-83 0 -142 38l29 83q23 -14 52.5 -22t58.5 -8q61 0 61 34t-59 34h-59v89h38q66 0 66 35q0 31 -54 31q-51 0 -95 -31z" />
    <glyph glyph-name="four.dnom" horiz-adv-x="405" 
d="M372 161v-87h-65v-74h-100v74h-183v82l162 237h121v-232h65zM207 157v125l-85 -125h85z" />
    <glyph glyph-name="five.dnom" horiz-adv-x="405" 
d="M193 -7q-93 0 -143 41l31 80q45 -31 107 -31q66 0 66 45q0 21 -16 33t-45 12q-40 0 -67 -20l-57 38l24 198h237v-88h-161l-6 -53q29 8 65 8q58 0 94 -35t36 -93q0 -60 -45.5 -97.5t-119.5 -37.5z" />
    <glyph glyph-name="six.dnom" horiz-adv-x="405" 
d="M213 -7q-83 0 -126.5 52t-43.5 151q0 97 49 150t137 53q38 0 66.5 -9t55.5 -30l-35 -75q-21 15 -41.5 21.5t-45.5 6.5q-39 0 -63 -24t-26 -65q34 35 92 35q59 0 95.5 -34t36.5 -89q0 -65 -41.5 -104t-109.5 -39zM210 74q26 0 42 15.5t16 39.5t-16 39.5t-43 15.5
q-25 0 -41 -15.5t-16 -39.5q0 -25 16 -40t42 -15z" />
    <glyph glyph-name="seven.dnom" horiz-adv-x="405" 
d="M124 0q0 147 114 301h-182v88h290v-78q-57 -77 -84 -150t-27 -161h-111z" />
    <glyph glyph-name="eight.dnom" horiz-adv-x="405" 
d="M203 -7q-76 0 -120 31.5t-44 86.5q0 35 22 63.5t55 36.5q-30 11 -45.5 33t-15.5 51q0 47 40.5 75.5t107.5 28.5q66 0 107 -29t41 -75q0 -29 -16 -51t-46 -33q33 -8 55 -36.5t22 -63.5q0 -55 -44 -86.5t-119 -31.5zM203 73q27 0 43.5 13t16.5 33t-17 33t-43 13
q-27 0 -44 -13t-17 -33t16.5 -33t44.5 -13zM203 239q19 0 32.5 12t13.5 29q0 18 -13 29.5t-33 11.5t-33.5 -11.5t-13.5 -29.5q0 -17 13.5 -29t33.5 -12z" />
    <glyph glyph-name="nine.dnom" horiz-adv-x="405" 
d="M175 -7q-38 0 -66.5 9t-55.5 30l35 75q21 -15 41.5 -21.5t45.5 -6.5q41 0 64 22.5t25 66.5q-34 -35 -92 -35q-59 0 -95.5 34t-36.5 89q0 63 41.5 103t109.5 40q83 0 126.5 -52t43.5 -151q0 -100 -47.5 -151.5t-138.5 -51.5zM195 208q25 0 41 15.5t16 39.5q0 25 -16 40
t-42 15q-24 0 -41 -15.5t-17 -39.5t16 -39.5t43 -15.5z" />
    <glyph glyph-name="zero.numr" horiz-adv-x="405" 
d="M203 583q-29 0 -42 -26.5t-13 -79.5t13 -79.5t42 -26.5t42 26.5t13 79.5t-13 79.5t-42 26.5zM203 680q75 0 121 -54.5t46 -148.5t-46 -148.5t-121 -54.5t-121 54.5t-46 148.5t46 148.5t121 54.5z" />
    <glyph glyph-name="one.numr" horiz-adv-x="405" 
d="M351 281h-291v91h89v175h-89v88l78 2q13 0 19.5 4.5t8.5 14.5l4 18h88v-302h93v-91z" />
    <glyph glyph-name="two.numr" horiz-adv-x="405" 
d="M50 334q0 74 31 114.5t102 63.5q36 12 47 20.5t11 22.5t-13 21.5t-35 7.5q-53 0 -101 -39l-47 76q65 57 158 57q46 0 79.5 -16.5t52 -45t18.5 -62.5q0 -43 -25 -70.5t-80 -45.5q-54 -17 -69.5 -29.5t-18.5 -36.5h191v-91h-301v53z" />
    <glyph glyph-name="three.numr" horiz-adv-x="405" 
d="M48 632q62 48 146 48q69 0 112 -31t43 -80q0 -30 -19.5 -53t-55.5 -35q40 -8 64 -35t24 -63q0 -33 -21.5 -58t-60 -38t-89.5 -13q-83 0 -142 38l29 83q23 -14 52.5 -22t58.5 -8q61 0 61 34t-59 34h-59v89h38q66 0 66 35q0 31 -54 31q-51 0 -95 -31z" />
    <glyph glyph-name="four.numr" horiz-adv-x="405" 
d="M372 442v-87h-65v-74h-100v74h-183v82l162 237h121v-232h65zM207 438v125l-85 -125h85z" />
    <glyph glyph-name="five.numr" horiz-adv-x="405" 
d="M193 274q-93 0 -143 41l31 80q45 -31 107 -31q66 0 66 45q0 21 -16 33t-45 12q-40 0 -67 -20l-57 38l24 198h237v-88h-161l-6 -53q29 8 65 8q58 0 94 -35t36 -93q0 -60 -45.5 -97.5t-119.5 -37.5z" />
    <glyph glyph-name="six.numr" horiz-adv-x="405" 
d="M213 274q-83 0 -126.5 52t-43.5 151q0 97 49 150t137 53q38 0 66.5 -9t55.5 -30l-35 -75q-21 15 -41.5 21.5t-45.5 6.5q-39 0 -63 -24t-26 -65q34 35 92 35q59 0 95.5 -34t36.5 -89q0 -65 -41.5 -104t-109.5 -39zM210 355q26 0 42 15.5t16 39.5t-16 39.5t-43 15.5
q-25 0 -41 -15.5t-16 -39.5q0 -25 16 -40t42 -15z" />
    <glyph glyph-name="seven.numr" horiz-adv-x="405" 
d="M124 281q0 147 114 301h-182v88h290v-78q-57 -77 -84 -150t-27 -161h-111z" />
    <glyph glyph-name="eight.numr" horiz-adv-x="405" 
d="M203 274q-76 0 -120 31.5t-44 86.5q0 35 22 63.5t55 36.5q-30 11 -45.5 33t-15.5 51q0 47 40.5 75.5t107.5 28.5q66 0 107 -29t41 -75q0 -29 -16 -51t-46 -33q33 -8 55 -36.5t22 -63.5q0 -55 -44 -86.5t-119 -31.5zM203 354q27 0 43.5 13t16.5 33t-17 33t-43 13
q-27 0 -44 -13t-17 -33t16.5 -33t44.5 -13zM203 520q19 0 32.5 12t13.5 29q0 18 -13 29.5t-33 11.5t-33.5 -11.5t-13.5 -29.5q0 -17 13.5 -29t33.5 -12z" />
    <glyph glyph-name="nine.numr" horiz-adv-x="405" 
d="M175 274q-38 0 -66.5 9t-55.5 30l35 75q21 -15 41.5 -21.5t45.5 -6.5q41 0 64 22.5t25 66.5q-34 -35 -92 -35q-59 0 -95.5 34t-36.5 89q0 63 41.5 103t109.5 40q83 0 126.5 -52t43.5 -151q0 -100 -47.5 -151.5t-138.5 -51.5zM195 489q25 0 41 15.5t16 39.5q0 25 -16 40
t-42 15q-24 0 -41 -15.5t-17 -39.5t16 -39.5t43 -15.5z" />
    <glyph glyph-name="plus.subs" horiz-adv-x="405" 
d="M251 -60h-98v105h-103v87h103v104h98v-104h103v-87h-103v-105z" />
    <glyph glyph-name="minus.subs" horiz-adv-x="405" 
d="M354 45h-304v87h304v-87z" />
    <glyph glyph-name="equal.subs" horiz-adv-x="405" 
d="M354 -32h-304v87h304v-87zM354 118h-304v88h304v-88z" />
    <glyph glyph-name="parenleft.subs" horiz-adv-x="296" 
d="M63 58q0 87 35.5 160.5t97.5 117.5l71 -61q-52 -48 -73.5 -99t-21.5 -118t21.5 -118t73.5 -99l-71 -61q-62 44 -97.5 117.5t-35.5 160.5z" />
    <glyph glyph-name="parenright.subs" horiz-adv-x="296" 
d="M233 58q0 -87 -35.5 -160.5t-97.5 -117.5l-71 61q51 47 72.5 98t21.5 119t-21.5 119t-72.5 98l71 61q62 -44 97.5 -117.5t35.5 -160.5z" />
    <glyph glyph-name="percent.subs" horiz-adv-x="669" 
d="M150 223q-12 0 -17.5 -12t-5.5 -39t5.5 -38.5t17.5 -11.5t17.5 11.5t5.5 38.5t-5.5 39t-17.5 12zM150 296q48 0 78 -33.5t30 -90.5q0 -56 -30 -89.5t-78 -33.5t-78.5 33.5t-30.5 89.5q0 57 30.5 90.5t78.5 33.5zM261 -113h-103l249 402h104zM519 57q-13 0 -18.5 -12.5
t-5.5 -38.5t6 -38t18 -12t17.5 11.5t5.5 38.5t-5.5 39t-17.5 12zM519 129q48 0 78 -33t30 -90q0 -56 -30 -89.5t-78 -33.5t-78.5 33.5t-30.5 89.5q0 57 30.5 90t78.5 33z" />
    <glyph glyph-name="dollar.subs" horiz-adv-x="405" 
d="M175 -180v62q-38 3 -73 14t-58 27l25 69q19 -13 48 -22.5t58 -13.5v98l-7 2q-119 22 -119 117q0 51 35.5 83.5t96.5 37.5v60h60v-62q61 -7 105 -39l-26 -65q-35 21 -79 29v-90q63 -13 91.5 -42t28.5 -78q0 -53 -33.5 -86t-93.5 -39v-62h-59zM138 179q0 -31 43 -41v81
q-43 -8 -43 -40zM273 1q0 29 -39 41v-84q19 5 29 16t10 27z" />
    <glyph glyph-name="cent.subs" horiz-adv-x="405" 
d="M201 -185v65q-70 7 -109 49.5t-39 109.5t39.5 109t108.5 50v65h60v-66q51 -9 90 -46l-37 -55q-26 22 -53 27v-169q27 5 57 26l32 -60q-37 -30 -89 -39v-66h-60zM201 -43v163q-27 -9 -42 -30t-15 -51q0 -31 14.5 -52t42.5 -30z" />
    <glyph glyph-name="sterling.subs" horiz-adv-x="405" 
d="M52 43v80h41v45q0 61 39.5 96t106.5 35q33 0 65.5 -12t55.5 -32l-40 -67q-25 17 -41 22.5t-33 5.5q-21 0 -34 -12.5t-13 -32.5v-48h94v-80h-94v-76h153v-80h-308v80h21q15 0 21.5 6t6.5 20v50h-41z" />
    <glyph glyph-name="yen.subs" horiz-adv-x="405" 
d="M147 -113v71h-79v58h82v35h-82v58h49l-104 180h119l72 -149l73 149h115l-103 -180h49v-58h-84v-35h84v-58h-81v-71h-110z" />
    <glyph glyph-name="Euro.subs" horiz-adv-x="405" 
d="M27 163h45q19 64 68.5 100t117.5 36t119 -40l-44 -73q-20 13 -37 18t-39 5q-60 0 -83 -46h156l-13 -56h-156q-1 -6 -1 -11.5v-11.5v-16h152l-13 -56h-126q21 -46 78 -46q44 0 87 26l40 -72q-53 -43 -132 -43q-65 0 -111 35.5t-63 99.5h-45v56h36v39h-36v56z" />
    <glyph glyph-name="liraturkish.subs" horiz-adv-x="405" 
d="M89 -113v120l-58 -26v57l60 27v45l-60 -27v57l58 26v123h101v-79l83 36v-57l-85 -37v-45l85 37v-57l-83 -36v-82h16q39 0 56 16t17 52v27h94v-27q0 -150 -166 -150h-118z" />
    <glyph glyph-name="rupeeindian.subs" horiz-adv-x="405" 
d="M187 -113l-135 134v57h72q61 0 80 43h-152v66h151q-10 21 -28.5 30.5t-50.5 9.5h-72v62h301v-62h-85q18 -17 29 -40h56v-66h-48q-7 -45 -45 -72.5t-93 -27.5l143 -134h-123z" />
    <glyph glyph-name="plus.sups" horiz-adv-x="405" 
d="M251 454h-98v105h-103v87h103v104h98v-104h103v-87h-103v-105z" />
    <glyph glyph-name="minus.sups" horiz-adv-x="405" 
d="M354 559h-304v87h304v-87z" />
    <glyph glyph-name="equal.sups" horiz-adv-x="405" 
d="M354 482h-304v87h304v-87zM354 632h-304v88h304v-88z" />
    <glyph glyph-name="parenleft.sups" horiz-adv-x="296" 
d="M63 572q0 87 35.5 160.5t97.5 117.5l71 -61q-52 -48 -73.5 -99t-21.5 -118t21.5 -118t73.5 -99l-71 -61q-62 44 -97.5 117.5t-35.5 160.5z" />
    <glyph glyph-name="parenright.sups" horiz-adv-x="296" 
d="M233 572q0 -87 -35.5 -160.5t-97.5 -117.5l-71 61q51 47 72.5 98t21.5 119t-21.5 119t-72.5 98l71 61q62 -44 97.5 -117.5t35.5 -160.5z" />
    <glyph glyph-name="percent.sups" horiz-adv-x="669" 
d="M150 737q-12 0 -17.5 -12t-5.5 -39t5.5 -38.5t17.5 -11.5t17.5 11.5t5.5 38.5t-5.5 39t-17.5 12zM150 810q48 0 78 -33.5t30 -90.5q0 -56 -30 -89.5t-78 -33.5t-78.5 33.5t-30.5 89.5q0 57 30.5 90.5t78.5 33.5zM261 401h-103l249 402h104zM519 571q-13 0 -18.5 -12.5
t-5.5 -38.5t6 -38t18 -12t17.5 11.5t5.5 38.5t-5.5 39t-17.5 12zM519 643q48 0 78 -33t30 -90q0 -56 -30 -89.5t-78 -33.5t-78.5 33.5t-30.5 89.5q0 57 30.5 90t78.5 33z" />
    <glyph glyph-name="dollar.sups" horiz-adv-x="405" 
d="M175 334v62q-38 3 -73 14t-58 27l25 69q19 -13 48 -22.5t58 -13.5v98l-7 2q-119 22 -119 117q0 51 35.5 83.5t96.5 37.5v60h60v-62q61 -7 105 -39l-26 -65q-35 21 -79 29v-90q63 -13 91.5 -42t28.5 -78q0 -53 -33.5 -86t-93.5 -39v-62h-59zM138 693q0 -31 43 -41v81
q-43 -8 -43 -40zM273 515q0 29 -39 41v-84q19 5 29 16t10 27z" />
    <glyph glyph-name="cent.sups" horiz-adv-x="405" 
d="M201 329v65q-70 7 -109 49.5t-39 109.5t39.5 109t108.5 50v65h60v-66q51 -9 90 -46l-37 -55q-26 22 -53 27v-169q27 5 57 26l32 -60q-37 -30 -89 -39v-66h-60zM201 471v163q-27 -9 -42 -30t-15 -51q0 -31 14.5 -52t42.5 -30z" />
    <glyph glyph-name="sterling.sups" horiz-adv-x="405" 
d="M52 557v80h41v45q0 61 39.5 96t106.5 35q33 0 65.5 -12t55.5 -32l-40 -67q-25 17 -41 22.5t-33 5.5q-21 0 -34 -12.5t-13 -32.5v-48h94v-80h-94v-76h153v-80h-308v80h21q15 0 21.5 6t6.5 20v50h-41z" />
    <glyph glyph-name="yen.sups" horiz-adv-x="405" 
d="M147 401v71h-79v58h82v35h-82v58h49l-104 180h119l72 -149l73 149h115l-103 -180h49v-58h-84v-35h84v-58h-81v-71h-110z" />
    <glyph glyph-name="Euro.sups" horiz-adv-x="405" 
d="M27 677h45q19 64 68.5 100t117.5 36t119 -40l-44 -73q-20 13 -37 18t-39 5q-60 0 -83 -46h156l-13 -56h-156q-1 -6 -1 -11.5v-11.5v-16h152l-13 -56h-126q21 -46 78 -46q44 0 87 26l40 -72q-53 -43 -132 -43q-65 0 -111 35.5t-63 99.5h-45v56h36v39h-36v56z" />
    <glyph glyph-name="liraturkish.sups" horiz-adv-x="405" 
d="M89 401v120l-58 -26v57l60 27v45l-60 -27v57l58 26v123h101v-79l83 36v-57l-85 -37v-45l85 37v-57l-83 -36v-82h16q39 0 56 16t17 52v27h94v-27q0 -150 -166 -150h-118z" />
    <glyph glyph-name="rupeeindian.sups" horiz-adv-x="405" 
d="M187 401l-135 134v57h72q61 0 80 43h-152v66h151q-10 21 -28.5 30.5t-50.5 9.5h-72v62h301v-62h-85q18 -17 29 -40h56v-66h-48q-7 -45 -45 -72.5t-93 -27.5l143 -134h-123z" />
    <glyph glyph-name="plus.dnom" horiz-adv-x="405" 
d="M251 53h-98v105h-103v87h103v104h98v-104h103v-87h-103v-105z" />
    <glyph glyph-name="minus.dnom" horiz-adv-x="405" 
d="M354 158h-304v87h304v-87z" />
    <glyph glyph-name="equal.dnom" horiz-adv-x="405" 
d="M354 81h-304v87h304v-87zM354 231h-304v88h304v-88z" />
    <glyph glyph-name="parenleft.dnom" horiz-adv-x="296" 
d="M63 171q0 87 35.5 160.5t97.5 117.5l71 -61q-52 -48 -73.5 -99t-21.5 -118t21.5 -118t73.5 -99l-71 -61q-62 44 -97.5 117.5t-35.5 160.5z" />
    <glyph glyph-name="parenright.dnom" horiz-adv-x="296" 
d="M233 171q0 -87 -35.5 -160.5t-97.5 -117.5l-71 61q51 47 72.5 98t21.5 119t-21.5 119t-72.5 98l71 61q62 -44 97.5 -117.5t35.5 -160.5z" />
    <glyph glyph-name="percent.dnom" horiz-adv-x="669" 
d="M150 336q-12 0 -17.5 -12t-5.5 -39t5.5 -38.5t17.5 -11.5t17.5 11.5t5.5 38.5t-5.5 39t-17.5 12zM150 409q48 0 78 -33.5t30 -90.5q0 -56 -30 -89.5t-78 -33.5t-78.5 33.5t-30.5 89.5q0 57 30.5 90.5t78.5 33.5zM261 0h-103l249 402h104zM519 170q-13 0 -18.5 -12.5
t-5.5 -38.5t6 -38t18 -12t17.5 11.5t5.5 38.5t-5.5 39t-17.5 12zM519 242q48 0 78 -33t30 -90q0 -56 -30 -89.5t-78 -33.5t-78.5 33.5t-30.5 89.5q0 57 30.5 90t78.5 33z" />
    <glyph glyph-name="dollar.dnom" horiz-adv-x="405" 
d="M175 -67v62q-38 3 -73 14t-58 27l25 69q19 -13 48 -22.5t58 -13.5v98l-7 2q-119 22 -119 117q0 51 35.5 83.5t96.5 37.5v60h60v-62q61 -7 105 -39l-26 -65q-35 21 -79 29v-90q63 -13 91.5 -42t28.5 -78q0 -53 -33.5 -86t-93.5 -39v-62h-59zM138 292q0 -31 43 -41v81
q-43 -8 -43 -40zM273 114q0 29 -39 41v-84q19 5 29 16t10 27z" />
    <glyph glyph-name="cent.dnom" horiz-adv-x="405" 
d="M201 -72v65q-70 7 -109 49.5t-39 109.5t39.5 109t108.5 50v65h60v-66q51 -9 90 -46l-37 -55q-26 22 -53 27v-169q27 5 57 26l32 -60q-37 -30 -89 -39v-66h-60zM201 70v163q-27 -9 -42 -30t-15 -51q0 -31 14.5 -52t42.5 -30z" />
    <glyph glyph-name="sterling.dnom" horiz-adv-x="405" 
d="M52 156v80h41v45q0 61 39.5 96t106.5 35q33 0 65.5 -12t55.5 -32l-40 -67q-25 17 -41 22.5t-33 5.5q-21 0 -34 -12.5t-13 -32.5v-48h94v-80h-94v-76h153v-80h-308v80h21q15 0 21.5 6t6.5 20v50h-41z" />
    <glyph glyph-name="yen.dnom" horiz-adv-x="405" 
d="M147 0v71h-79v58h82v35h-82v58h49l-104 180h119l72 -149l73 149h115l-103 -180h49v-58h-84v-35h84v-58h-81v-71h-110z" />
    <glyph glyph-name="Euro.dnom" horiz-adv-x="405" 
d="M27 276h45q19 64 68.5 100t117.5 36t119 -40l-44 -73q-20 13 -37 18t-39 5q-60 0 -83 -46h156l-13 -56h-156q-1 -6 -1 -11.5v-11.5v-16h152l-13 -56h-126q21 -46 78 -46q44 0 87 26l40 -72q-53 -43 -132 -43q-65 0 -111 35.5t-63 99.5h-45v56h36v39h-36v56z" />
    <glyph glyph-name="liraturkish.dnom" horiz-adv-x="405" 
d="M89 0v120l-58 -26v57l60 27v45l-60 -27v57l58 26v123h101v-79l83 36v-57l-85 -37v-45l85 37v-57l-83 -36v-82h16q39 0 56 16t17 52v27h94v-27q0 -150 -166 -150h-118z" />
    <glyph glyph-name="rupeeindian.dnom" horiz-adv-x="405" 
d="M187 0l-135 134v57h72q61 0 80 43h-152v66h151q-10 21 -28.5 30.5t-50.5 9.5h-72v62h301v-62h-85q18 -17 29 -40h56v-66h-48q-7 -45 -45 -72.5t-93 -27.5l143 -134h-123z" />
    <glyph glyph-name="plus.numr" horiz-adv-x="405" 
d="M251 334h-98v105h-103v87h103v104h98v-104h103v-87h-103v-105z" />
    <glyph glyph-name="minus.numr" horiz-adv-x="405" 
d="M354 439h-304v87h304v-87z" />
    <glyph glyph-name="equal.numr" horiz-adv-x="405" 
d="M354 362h-304v87h304v-87zM354 512h-304v88h304v-88z" />
    <glyph glyph-name="parenleft.numr" horiz-adv-x="296" 
d="M63 452q0 87 35.5 160.5t97.5 117.5l71 -61q-52 -48 -73.5 -99t-21.5 -118t21.5 -118t73.5 -99l-71 -61q-62 44 -97.5 117.5t-35.5 160.5z" />
    <glyph glyph-name="parenright.numr" horiz-adv-x="296" 
d="M233 452q0 -87 -35.5 -160.5t-97.5 -117.5l-71 61q51 47 72.5 98t21.5 119t-21.5 119t-72.5 98l71 61q62 -44 97.5 -117.5t35.5 -160.5z" />
    <glyph glyph-name="percent.numr" horiz-adv-x="669" 
d="M150 617q-12 0 -17.5 -12t-5.5 -39t5.5 -38.5t17.5 -11.5t17.5 11.5t5.5 38.5t-5.5 39t-17.5 12zM150 690q48 0 78 -33.5t30 -90.5q0 -56 -30 -89.5t-78 -33.5t-78.5 33.5t-30.5 89.5q0 57 30.5 90.5t78.5 33.5zM261 281h-103l249 402h104zM519 451q-13 0 -18.5 -12.5
t-5.5 -38.5t6 -38t18 -12t17.5 11.5t5.5 38.5t-5.5 39t-17.5 12zM519 523q48 0 78 -33t30 -90q0 -56 -30 -89.5t-78 -33.5t-78.5 33.5t-30.5 89.5q0 57 30.5 90t78.5 33z" />
    <glyph glyph-name="dollar.numr" horiz-adv-x="405" 
d="M175 214v62q-38 3 -73 14t-58 27l25 69q19 -13 48 -22.5t58 -13.5v98l-7 2q-119 22 -119 117q0 51 35.5 83.5t96.5 37.5v60h60v-62q61 -7 105 -39l-26 -65q-35 21 -79 29v-90q63 -13 91.5 -42t28.5 -78q0 -53 -33.5 -86t-93.5 -39v-62h-59zM138 573q0 -31 43 -41v81
q-43 -8 -43 -40zM273 395q0 29 -39 41v-84q19 5 29 16t10 27z" />
    <glyph glyph-name="cent.numr" horiz-adv-x="405" 
d="M201 209v65q-70 7 -109 49.5t-39 109.5t39.5 109t108.5 50v65h60v-66q51 -9 90 -46l-37 -55q-26 22 -53 27v-169q27 5 57 26l32 -60q-37 -30 -89 -39v-66h-60zM201 351v163q-27 -9 -42 -30t-15 -51q0 -31 14.5 -52t42.5 -30z" />
    <glyph glyph-name="sterling.numr" horiz-adv-x="405" 
d="M52 437v80h41v45q0 61 39.5 96t106.5 35q33 0 65.5 -12t55.5 -32l-40 -67q-25 17 -41 22.5t-33 5.5q-21 0 -34 -12.5t-13 -32.5v-48h94v-80h-94v-76h153v-80h-308v80h21q15 0 21.5 6t6.5 20v50h-41z" />
    <glyph glyph-name="yen.numr" horiz-adv-x="405" 
d="M147 281v71h-79v58h82v35h-82v58h49l-104 180h119l72 -149l73 149h115l-103 -180h49v-58h-84v-35h84v-58h-81v-71h-110z" />
    <glyph glyph-name="Euro.numr" horiz-adv-x="405" 
d="M27 557h45q19 64 68.5 100t117.5 36t119 -40l-44 -73q-20 13 -37 18t-39 5q-60 0 -83 -46h156l-13 -56h-156q-1 -6 -1 -11.5v-11.5v-16h152l-13 -56h-126q21 -46 78 -46q44 0 87 26l40 -72q-53 -43 -132 -43q-65 0 -111 35.5t-63 99.5h-45v56h36v39h-36v56z" />
    <glyph glyph-name="liraturkish.numr" horiz-adv-x="405" 
d="M89 281v120l-58 -26v57l60 27v45l-60 -27v57l58 26v123h101v-79l83 36v-57l-85 -37v-45l85 37v-57l-83 -36v-82h16q39 0 56 16t17 52v27h94v-27q0 -150 -166 -150h-118z" />
    <glyph glyph-name="rupeeindian.numr" horiz-adv-x="405" 
d="M187 281l-135 134v57h72q61 0 80 43h-152v66h151q-10 21 -28.5 30.5t-50.5 9.5h-72v62h301v-62h-85q18 -17 29 -40h56v-66h-48q-7 -45 -45 -72.5t-93 -27.5l143 -134h-123z" />
    <glyph glyph-name="fraction" unicode="&#x2044;" horiz-adv-x="190" 
d="M362 670l-400 -670h-135l400 670h135z" />
    <glyph glyph-name="percent" unicode="%" horiz-adv-x="937" 
d="M736 670l-400 -670h-135l400 670h135zM734 303q-29 0 -42 -26.5t-13 -79.5t13 -79.5t42 -26.5t42 26.5t13 79.5t-13 79.5t-42 26.5zM734 400q75 0 121 -54.5t46 -148.5t-46 -148.5t-121 -54.5t-121 54.5t-46 148.5t46 148.5t121 54.5zM203 579q-29 0 -42 -26.5t-13 -79.5
t13 -79.5t42 -26.5t42 26.5t13 79.5t-13 79.5t-42 26.5zM203 676q75 0 121 -54.5t46 -148.5t-46 -148.5t-121 -54.5t-121 54.5t-46 148.5t46 148.5t121 54.5z" />
    <glyph glyph-name="perthousand" unicode="&#x2030;" horiz-adv-x="1329" 
d="M736 670l-400 -670h-135l400 670h135zM734 303q-29 0 -42 -26.5t-13 -79.5t13 -79.5t42 -26.5t42 26.5t13 79.5t-13 79.5t-42 26.5zM734 400q75 0 121 -54.5t46 -148.5t-46 -148.5t-121 -54.5t-121 54.5t-46 148.5t46 148.5t121 54.5zM1126 303q-29 0 -42 -26.5
t-13 -79.5t13 -79.5t42 -26.5t42 26.5t13 79.5t-13 79.5t-42 26.5zM1126 400q75 0 121 -54.5t46 -148.5t-46 -148.5t-121 -54.5t-121 54.5t-46 148.5t46 148.5t121 54.5zM203 579q-29 0 -42 -26.5t-13 -79.5t13 -79.5t42 -26.5t42 26.5t13 79.5t-13 79.5t-42 26.5zM203 676
q75 0 121 -54.5t46 -148.5t-46 -148.5t-121 -54.5t-121 54.5t-46 148.5t46 148.5t121 54.5z" />
    <glyph glyph-name="onehalf" unicode="&#xbd;" horiz-adv-x="1000" 
d="M781 670l-400 -670h-135l400 670h135zM645 53q0 74 31 114.5t102 63.5q36 12 47 20.5t11 22.5t-13 21.5t-35 7.5q-53 0 -101 -39l-47 76q65 57 158 57q46 0 79.5 -16.5t52 -45t18.5 -62.5q0 -43 -25 -70.5t-80 -45.5q-54 -17 -69.5 -29.5t-18.5 -36.5h191v-91h-301v53z
M351 277h-291v91h89v175h-89v88l78 2q13 0 19.5 4.5t8.5 14.5l4 18h88v-302h93v-91z" />
    <glyph glyph-name="onequarter" unicode="&#xbc;" horiz-adv-x="1000" 
d="M804 670l-400 -670h-135l400 670h135zM967 161v-87h-65v-74h-100v74h-183v82l162 237h121v-232h65zM802 157v125l-85 -125h85zM351 277h-291v91h89v175h-89v88l78 2q13 0 19.5 4.5t8.5 14.5l4 18h88v-302h93v-91z" />
    <glyph glyph-name="threequarters" unicode="&#xbe;" horiz-adv-x="1000" 
d="M791 670l-400 -670h-135l400 670h135zM967 161v-87h-65v-74h-100v74h-183v82l162 237h121v-232h65zM802 157v125l-85 -125h85zM48 628q62 48 146 48q69 0 112 -31t43 -80q0 -30 -19.5 -53t-55.5 -35q40 -8 64 -35t24 -63q0 -33 -21.5 -58t-60 -38t-89.5 -13
q-83 0 -142 38l29 83q23 -14 52.5 -22t58.5 -8q61 0 61 34t-59 34h-59v89h38q66 0 66 35q0 31 -54 31q-51 0 -95 -31z" />
    <glyph glyph-name="onethird" unicode="&#x2153;" horiz-adv-x="1000" 
d="M767 670l-400 -670h-135l400 670h135zM351 281h-291v91h89v175h-89v88l78 2q13 0 19.5 4.5t8.5 14.5l4 18h88v-302h93v-91zM643 351q62 48 146 48q69 0 112 -31t43 -80q0 -30 -19.5 -53t-55.5 -35q40 -8 64 -35t24 -63q0 -33 -21.5 -58t-60 -38t-89.5 -13q-83 0 -142 38
l29 83q23 -14 52.5 -22t58.5 -8q61 0 61 34t-59 34h-59v89h38q66 0 66 35q0 31 -54 31q-51 0 -95 -31z" />
    <glyph glyph-name="twothirds" unicode="&#x2154;" horiz-adv-x="1000" 
d="M767 670l-400 -670h-135l400 670h135zM50 334q0 74 31 114.5t102 63.5q36 12 47 20.5t11 22.5t-13 21.5t-35 7.5q-53 0 -101 -39l-47 76q65 57 158 57q46 0 79.5 -16.5t52 -45t18.5 -62.5q0 -43 -25 -70.5t-80 -45.5q-54 -17 -69.5 -29.5t-18.5 -36.5h191v-91h-301v53z
M643 351q62 48 146 48q69 0 112 -31t43 -80q0 -30 -19.5 -53t-55.5 -35q40 -8 64 -35t24 -63q0 -33 -21.5 -58t-60 -38t-89.5 -13q-83 0 -142 38l29 83q23 -14 52.5 -22t58.5 -8q61 0 61 34t-59 34h-59v89h38q66 0 66 35q0 31 -54 31q-51 0 -95 -31z" />
    <glyph glyph-name="onefifth" unicode="&#x2155;" horiz-adv-x="1000" 
d="M799 670l-400 -670h-135l400 670h135zM351 281h-291v91h89v175h-89v88l78 2q13 0 19.5 4.5t8.5 14.5l4 18h88v-302h93v-91zM788 -7q-93 0 -143 41l31 80q45 -31 107 -31q66 0 66 45q0 21 -16 33t-45 12q-40 0 -67 -20l-57 38l24 198h237v-88h-161l-6 -53q29 8 65 8
q58 0 94 -35t36 -93q0 -60 -45.5 -97.5t-119.5 -37.5z" />
    <glyph glyph-name="twofifths" unicode="&#x2156;" horiz-adv-x="1000" 
d="M794 670l-400 -670h-135l400 670h135zM50 334q0 74 31 114.5t102 63.5q36 12 47 20.5t11 22.5t-13 21.5t-35 7.5q-53 0 -101 -39l-47 76q65 57 158 57q46 0 79.5 -16.5t52 -45t18.5 -62.5q0 -43 -25 -70.5t-80 -45.5q-54 -17 -69.5 -29.5t-18.5 -36.5h191v-91h-301v53z
M788 -7q-93 0 -143 41l31 80q45 -31 107 -31q66 0 66 45q0 21 -16 33t-45 12q-40 0 -67 -20l-57 38l24 198h237v-88h-161l-6 -53q29 8 65 8q58 0 94 -35t36 -93q0 -60 -45.5 -97.5t-119.5 -37.5z" />
    <glyph glyph-name="threefifths" unicode="&#x2157;" horiz-adv-x="1000" 
d="M778 670l-400 -670h-135l400 670h135zM788 -7q-93 0 -143 41l31 80q45 -31 107 -31q66 0 66 45q0 21 -16 33t-45 12q-40 0 -67 -20l-57 38l24 198h237v-88h-161l-6 -53q29 8 65 8q58 0 94 -35t36 -93q0 -60 -45.5 -97.5t-119.5 -37.5zM48 632q62 48 146 48q69 0 112 -31
t43 -80q0 -30 -19.5 -53t-55.5 -35q40 -8 64 -35t24 -63q0 -33 -21.5 -58t-60 -38t-89.5 -13q-83 0 -142 38l29 83q23 -14 52.5 -22t58.5 -8q61 0 61 34t-59 34h-59v89h38q66 0 66 35q0 31 -54 31q-51 0 -95 -31z" />
    <glyph glyph-name="fourfifths" unicode="&#x2158;" horiz-adv-x="1000" 
d="M767 670l-400 -670h-135l400 670h135zM788 -7q-93 0 -143 41l31 80q45 -31 107 -31q66 0 66 45q0 21 -16 33t-45 12q-40 0 -67 -20l-57 38l24 198h237v-88h-161l-6 -53q29 8 65 8q58 0 94 -35t36 -93q0 -60 -45.5 -97.5t-119.5 -37.5zM372 442v-87h-65v-74h-100v74h-183
v82l162 237h121v-232h65zM207 438v125l-85 -125h85z" />
    <glyph glyph-name="onesixth" unicode="&#x2159;" horiz-adv-x="1000" 
d="M802 670l-400 -670h-135l400 670h135zM351 281h-291v91h89v175h-89v88l78 2q13 0 19.5 4.5t8.5 14.5l4 18h88v-302h93v-91zM808 -7q-83 0 -126.5 52t-43.5 151q0 97 49 150t137 53q38 0 66.5 -9t55.5 -30l-35 -75q-21 15 -41.5 21.5t-45.5 6.5q-39 0 -63 -24t-26 -65
q34 35 92 35q59 0 95.5 -34t36.5 -89q0 -65 -41.5 -104t-109.5 -39zM805 74q26 0 42 15.5t16 39.5t-16 39.5t-43 15.5q-25 0 -41 -15.5t-16 -39.5q0 -25 16 -40t42 -15z" />
    <glyph glyph-name="fivesixths" unicode="&#x215a;" horiz-adv-x="1000" 
d="M767 670l-400 -670h-135l400 670h135zM808 -7q-83 0 -126.5 52t-43.5 151q0 97 49 150t137 53q38 0 66.5 -9t55.5 -30l-35 -75q-21 15 -41.5 21.5t-45.5 6.5q-39 0 -63 -24t-26 -65q34 35 92 35q59 0 95.5 -34t36.5 -89q0 -65 -41.5 -104t-109.5 -39zM805 74
q26 0 42 15.5t16 39.5t-16 39.5t-43 15.5q-25 0 -41 -15.5t-16 -39.5q0 -25 16 -40t42 -15zM193 274q-93 0 -143 41l31 80q45 -31 107 -31q66 0 66 45q0 21 -16 33t-45 12q-40 0 -67 -20l-57 38l24 198h237v-88h-161l-6 -53q29 8 65 8q58 0 94 -35t36 -93q0 -60 -45.5 -97.5
t-119.5 -37.5z" />
    <glyph glyph-name="oneseventh" unicode="&#x2150;" horiz-adv-x="1000" 
d="M781 670l-400 -670h-135l400 670h135zM351 281h-291v91h89v175h-89v88l78 2q13 0 19.5 4.5t8.5 14.5l4 18h88v-302h93v-91zM719 0q0 147 114 301h-182v88h290v-78q-57 -77 -84 -150t-27 -161h-111z" />
    <glyph glyph-name="twosevenths" unicode="&#xf507;" horiz-adv-x="1000" 
d="M781 670l-400 -670h-135l400 670h135zM50 334q0 74 31 114.5t102 63.5q36 12 47 20.5t11 22.5t-13 21.5t-35 7.5q-53 0 -101 -39l-47 76q65 57 158 57q46 0 79.5 -16.5t52 -45t18.5 -62.5q0 -43 -25 -70.5t-80 -45.5q-54 -17 -69.5 -29.5t-18.5 -36.5h191v-91h-301v53z
M719 0q0 147 114 301h-182v88h290v-78q-57 -77 -84 -150t-27 -161h-111z" />
    <glyph glyph-name="threesevenths" unicode="&#xf508;" horiz-adv-x="1000" 
d="M764 670l-400 -670h-135l400 670h135zM719 0q0 147 114 301h-182v88h290v-78q-57 -77 -84 -150t-27 -161h-111zM48 632q62 48 146 48q69 0 112 -31t43 -80q0 -30 -19.5 -53t-55.5 -35q40 -8 64 -35t24 -63q0 -33 -21.5 -58t-60 -38t-89.5 -13q-83 0 -142 38l29 83
q23 -14 52.5 -22t58.5 -8q61 0 61 34t-59 34h-59v89h38q66 0 66 35q0 31 -54 31q-51 0 -95 -31z" />
    <glyph glyph-name="foursevenths" unicode="&#xf509;" horiz-adv-x="1000" 
d="M767 670l-400 -670h-135l400 670h135zM372 442v-87h-65v-74h-100v74h-183v82l162 237h121v-232h65zM207 438v125l-85 -125h85zM719 0q0 147 114 301h-182v88h290v-78q-57 -77 -84 -150t-27 -161h-111z" />
    <glyph glyph-name="fivesevenths" unicode="&#xf50a;" horiz-adv-x="1000" 
d="M759 670l-400 -670h-135l400 670h135zM193 274q-93 0 -143 41l31 80q45 -31 107 -31q66 0 66 45q0 21 -16 33t-45 12q-40 0 -67 -20l-57 38l24 198h237v-88h-161l-6 -53q29 8 65 8q58 0 94 -35t36 -93q0 -60 -45.5 -97.5t-119.5 -37.5zM719 0q0 147 114 301h-182v88h290
v-78q-57 -77 -84 -150t-27 -161h-111z" />
    <glyph glyph-name="sixsevenths" unicode="&#xf50b;" horiz-adv-x="1000" 
d="M767 670l-400 -670h-135l400 670h135zM213 274q-83 0 -126.5 52t-43.5 151q0 97 49 150t137 53q38 0 66.5 -9t55.5 -30l-35 -75q-21 15 -41.5 21.5t-45.5 6.5q-39 0 -63 -24t-26 -65q34 35 92 35q59 0 95.5 -34t36.5 -89q0 -65 -41.5 -104t-109.5 -39zM210 355
q26 0 42 15.5t16 39.5t-16 39.5t-43 15.5q-25 0 -41 -15.5t-16 -39.5q0 -25 16 -40t42 -15zM719 0q0 147 114 301h-182v88h290v-78q-57 -77 -84 -150t-27 -161h-111z" />
    <glyph glyph-name="oneeighth" unicode="&#x215b;" horiz-adv-x="1000" 
d="M796 670l-400 -670h-135l400 670h135zM351 281h-291v91h89v175h-89v88l78 2q13 0 19.5 4.5t8.5 14.5l4 18h88v-302h93v-91zM798 -7q-76 0 -120 31.5t-44 86.5q0 35 22 63.5t55 36.5q-30 11 -45.5 33t-15.5 51q0 47 40.5 75.5t107.5 28.5q66 0 107 -29t41 -75
q0 -29 -16 -51t-46 -33q33 -8 55 -36.5t22 -63.5q0 -55 -44 -86.5t-119 -31.5zM798 73q27 0 43.5 13t16.5 33t-17 33t-43 13q-27 0 -44 -13t-17 -33t16.5 -33t44.5 -13zM798 239q19 0 32.5 12t13.5 29q0 18 -13 29.5t-33 11.5t-33.5 -11.5t-13.5 -29.5q0 -17 13.5 -29
t33.5 -12z" />
    <glyph glyph-name="threeeighths" unicode="&#x215c;" horiz-adv-x="1000" 
d="M774 670l-400 -670h-135l400 670h135zM798 -7q-76 0 -120 31.5t-44 86.5q0 35 22 63.5t55 36.5q-30 11 -45.5 33t-15.5 51q0 47 40.5 75.5t107.5 28.5q66 0 107 -29t41 -75q0 -29 -16 -51t-46 -33q33 -8 55 -36.5t22 -63.5q0 -55 -44 -86.5t-119 -31.5zM798 73
q27 0 43.5 13t16.5 33t-17 33t-43 13q-27 0 -44 -13t-17 -33t16.5 -33t44.5 -13zM798 239q19 0 32.5 12t13.5 29q0 18 -13 29.5t-33 11.5t-33.5 -11.5t-13.5 -29.5q0 -17 13.5 -29t33.5 -12zM48 632q62 48 146 48q69 0 112 -31t43 -80q0 -30 -19.5 -53t-55.5 -35
q40 -8 64 -35t24 -63q0 -33 -21.5 -58t-60 -38t-89.5 -13q-83 0 -142 38l29 83q23 -14 52.5 -22t58.5 -8q61 0 61 34t-59 34h-59v89h38q66 0 66 35q0 31 -54 31q-51 0 -95 -31z" />
    <glyph glyph-name="fiveeighths" unicode="&#x215d;" horiz-adv-x="1000" 
d="M767 670l-400 -670h-135l400 670h135zM193 274q-93 0 -143 41l31 80q45 -31 107 -31q66 0 66 45q0 21 -16 33t-45 12q-40 0 -67 -20l-57 38l24 198h237v-88h-161l-6 -53q29 8 65 8q58 0 94 -35t36 -93q0 -60 -45.5 -97.5t-119.5 -37.5zM798 -7q-76 0 -120 31.5t-44 86.5
q0 35 22 63.5t55 36.5q-30 11 -45.5 33t-15.5 51q0 47 40.5 75.5t107.5 28.5q66 0 107 -29t41 -75q0 -29 -16 -51t-46 -33q33 -8 55 -36.5t22 -63.5q0 -55 -44 -86.5t-119 -31.5zM798 73q27 0 43.5 13t16.5 33t-17 33t-43 13q-27 0 -44 -13t-17 -33t16.5 -33t44.5 -13z
M798 239q19 0 32.5 12t13.5 29q0 18 -13 29.5t-33 11.5t-33.5 -11.5t-13.5 -29.5q0 -17 13.5 -29t33.5 -12z" />
    <glyph glyph-name="seveneighths" unicode="&#x215e;" horiz-adv-x="1000" 
d="M742 670l-400 -670h-135l400 670h135zM798 -7q-76 0 -120 31.5t-44 86.5q0 35 22 63.5t55 36.5q-30 11 -45.5 33t-15.5 51q0 47 40.5 75.5t107.5 28.5q66 0 107 -29t41 -75q0 -29 -16 -51t-46 -33q33 -8 55 -36.5t22 -63.5q0 -55 -44 -86.5t-119 -31.5zM798 73
q27 0 43.5 13t16.5 33t-17 33t-43 13q-27 0 -44 -13t-17 -33t16.5 -33t44.5 -13zM798 239q19 0 32.5 12t13.5 29q0 18 -13 29.5t-33 11.5t-33.5 -11.5t-13.5 -29.5q0 -17 13.5 -29t33.5 -12zM124 281q0 147 114 301h-182v88h290v-78q-57 -77 -84 -150t-27 -161h-111z" />
    <glyph glyph-name="oneninth" unicode="&#x2151;" horiz-adv-x="1000" 
d="M787 670l-400 -670h-135l400 670h135zM351 281h-291v91h89v175h-89v88l78 2q13 0 19.5 4.5t8.5 14.5l4 18h88v-302h93v-91zM770 -7q-38 0 -66.5 9t-55.5 30l35 75q21 -15 41.5 -21.5t45.5 -6.5q41 0 64 22.5t25 66.5q-34 -35 -92 -35q-59 0 -95.5 34t-36.5 89
q0 63 41.5 103t109.5 40q83 0 126.5 -52t43.5 -151q0 -100 -47.5 -151.5t-138.5 -51.5zM790 208q25 0 41 15.5t16 39.5q0 25 -16 40t-42 15q-24 0 -41 -15.5t-17 -39.5t16 -39.5t43 -15.5z" />
    <glyph glyph-name="twoninths" unicode="&#xf50d;" horiz-adv-x="1000" 
d="M785 670l-400 -670h-135l400 670h135zM50 334q0 74 31 114.5t102 63.5q36 12 47 20.5t11 22.5t-13 21.5t-35 7.5q-53 0 -101 -39l-47 76q65 57 158 57q46 0 79.5 -16.5t52 -45t18.5 -62.5q0 -43 -25 -70.5t-80 -45.5q-54 -17 -69.5 -29.5t-18.5 -36.5h191v-91h-301v53z
M770 -7q-38 0 -66.5 9t-55.5 30l35 75q21 -15 41.5 -21.5t45.5 -6.5q41 0 64 22.5t25 66.5q-34 -35 -92 -35q-59 0 -95.5 34t-36.5 89q0 63 41.5 103t109.5 40q83 0 126.5 -52t43.5 -151q0 -100 -47.5 -151.5t-138.5 -51.5zM790 208q25 0 41 15.5t16 39.5q0 25 -16 40
t-42 15q-24 0 -41 -15.5t-17 -39.5t16 -39.5t43 -15.5z" />
    <glyph glyph-name="fourninths" unicode="&#xf50e;" horiz-adv-x="1000" 
d="M767 670l-400 -670h-135l400 670h135zM372 442v-87h-65v-74h-100v74h-183v82l162 237h121v-232h65zM207 438v125l-85 -125h85zM770 -7q-38 0 -66.5 9t-55.5 30l35 75q21 -15 41.5 -21.5t45.5 -6.5q41 0 64 22.5t25 66.5q-34 -35 -92 -35q-59 0 -95.5 34t-36.5 89
q0 63 41.5 103t109.5 40q83 0 126.5 -52t43.5 -151q0 -100 -47.5 -151.5t-138.5 -51.5zM790 208q25 0 41 15.5t16 39.5q0 25 -16 40t-42 15q-24 0 -41 -15.5t-17 -39.5t16 -39.5t43 -15.5z" />
    <glyph glyph-name="fiveninths" unicode="&#xf50f;" horiz-adv-x="1000" 
d="M767 670l-400 -670h-135l400 670h135zM193 274q-93 0 -143 41l31 80q45 -31 107 -31q66 0 66 45q0 21 -16 33t-45 12q-40 0 -67 -20l-57 38l24 198h237v-88h-161l-6 -53q29 8 65 8q58 0 94 -35t36 -93q0 -60 -45.5 -97.5t-119.5 -37.5zM770 -7q-38 0 -66.5 9t-55.5 30
l35 75q21 -15 41.5 -21.5t45.5 -6.5q41 0 64 22.5t25 66.5q-34 -35 -92 -35q-59 0 -95.5 34t-36.5 89q0 63 41.5 103t109.5 40q83 0 126.5 -52t43.5 -151q0 -100 -47.5 -151.5t-138.5 -51.5zM790 208q25 0 41 15.5t16 39.5q0 25 -16 40t-42 15q-24 0 -41 -15.5t-17 -39.5
t16 -39.5t43 -15.5z" />
    <glyph glyph-name="sevenninths" unicode="&#xf510;" horiz-adv-x="1000" 
d="M742 670l-400 -670h-135l400 670h135zM770 -7q-38 0 -66.5 9t-55.5 30l35 75q21 -15 41.5 -21.5t45.5 -6.5q41 0 64 22.5t25 66.5q-34 -35 -92 -35q-59 0 -95.5 34t-36.5 89q0 63 41.5 103t109.5 40q83 0 126.5 -52t43.5 -151q0 -100 -47.5 -151.5t-138.5 -51.5zM790 208
q25 0 41 15.5t16 39.5q0 25 -16 40t-42 15q-24 0 -41 -15.5t-17 -39.5t16 -39.5t43 -15.5zM124 281q0 147 114 301h-182v88h290v-78q-57 -77 -84 -150t-27 -161h-111z" />
    <glyph glyph-name="eightninths" unicode="&#xf511;" horiz-adv-x="1000" 
d="M767 670l-400 -670h-135l400 670h135zM770 -7q-38 0 -66.5 9t-55.5 30l35 75q21 -15 41.5 -21.5t45.5 -6.5q41 0 64 22.5t25 66.5q-34 -35 -92 -35q-59 0 -95.5 34t-36.5 89q0 63 41.5 103t109.5 40q83 0 126.5 -52t43.5 -151q0 -100 -47.5 -151.5t-138.5 -51.5zM790 208
q25 0 41 15.5t16 39.5q0 25 -16 40t-42 15q-24 0 -41 -15.5t-17 -39.5t16 -39.5t43 -15.5zM203 274q-76 0 -120 31.5t-44 86.5q0 35 22 63.5t55 36.5q-30 11 -45.5 33t-15.5 51q0 47 40.5 75.5t107.5 28.5q66 0 107 -29t41 -75q0 -29 -16 -51t-46 -33q33 -8 55 -36.5
t22 -63.5q0 -55 -44 -86.5t-119 -31.5zM203 354q27 0 43.5 13t16.5 33t-17 33t-43 13q-27 0 -44 -13t-17 -33t16.5 -33t44.5 -13zM203 520q19 0 32.5 12t13.5 29q0 18 -13 29.5t-33 11.5t-33.5 -11.5t-13.5 -29.5q0 -17 13.5 -29t33.5 -12z" />
    <glyph glyph-name="dollar" unicode="$" 
d="M356 779v-97q92 -12 171 -67l-50 -100q-59 35 -121 47v-165q101 -18 148.5 -65t47.5 -129q0 -89 -55 -146.5t-151 -68.5v-100h-86v99q-114 9 -205 74l43 107q86 -52 162 -62v179q-99 18 -146.5 65.5t-47.5 129.5q0 83 55.5 138t148.5 65v96h86zM419 189q0 59 -73 79v-160
q34 8 53.5 29.5t19.5 51.5zM196 488q0 -56 74 -75v152q-35 -6 -54.5 -26.5t-19.5 -50.5z" />
    <glyph glyph-name="cent" unicode="&#xa2;" 
d="M391 621v-105q87 -11 148 -72l-63 -95q-38 35 -85 44v-282q28 5 52.5 16.5t40.5 26.5l56 -101q-27 -24 -66 -41t-83 -24v-105h-86v104q-105 11 -166.5 81t-61.5 180t62 182.5t166 85.5v105h86zM221 252q0 -50 22.5 -86t61.5 -50v272q-40 -15 -62 -50.5t-22 -85.5z" />
    <glyph glyph-name="sterling" unicode="&#xa3;" 
d="M542 0h-482v124h36q23 0 33 9.5t10 32.5v101h-68v126h68v78q0 67 27.5 115.5t77.5 74t115 25.5q109 0 189 -70l-62 -103q-27 19 -44 28t-34.5 13.5t-38.5 4.5q-41 0 -65 -24.5t-24 -68.5v-73h167v-126h-167v-143h262v-124z" />
    <glyph glyph-name="yen" unicode="&#xa5;" 
d="M505 370v-83h-130v-67h130v-83h-130v-137h-150v137h-130v83h130v67h-130v83h89l-180 300h170l128 -253l127 253h167l-180 -300h89z" />
    <glyph glyph-name="Euro" unicode="&#x20ac;" 
d="M375 -16q-108 0 -180 62.5t-96 175.5h-71v83h61q-1 7 -1 15v16v18t1 18h-61v83h74q27 109 103 170t185 61q107 0 190 -65l-62 -104q-33 23 -62.5 32.5t-64.5 9.5q-52 0 -88.5 -27t-55.5 -77h258l-18 -83h-258q-1 -9 -1 -18v-18v-16t1 -15h249l-18 -83h-217
q17 -55 52.5 -83t88.5 -28q41 0 73 10t68 34l58 -102q-45 -36 -95 -52.5t-113 -16.5z" />
    <glyph glyph-name="liraturkish" unicode="&#x20ba;" 
d="M565 255q0 -127 -66.5 -191t-197.5 -64h-183v208l-84 -37v83l84 37v67l-84 -37v83l84 37v229h141v-166l152 68v-83l-152 -68v-67l152 68v-83l-152 -68v-153h41q74 0 107.5 32.5t33.5 104.5v40h124v-40z" />
    <glyph glyph-name="ruble" unicode="&#x20bd;" 
d="M102 0v121h-68v83h68v67h-68v109h68v290h226q122 0 190 -52t68 -147t-67.5 -147.5t-189.5 -52.5h-80v-67h190v-83h-190v-121h-147zM329 380q51 0 79 24t28 67t-28 66.5t-79 23.5h-80v-181h80z" />
    <glyph glyph-name="rupeeindian" unicode="&#x20b9;" 
d="M550 670v-98h-138q33 -30 49 -71h89v-105h-77q-7 -51 -38.5 -88.5t-79.5 -58t-103 -20.5h-5l238 -229h-189l-227 229v92h117q103 0 131 75h-248v105h247q-14 35 -47 53t-83 18h-117v98h481z" />
    <glyph glyph-name="won" unicode="&#x20a9;" horiz-adv-x="910" 
d="M30 417v83h49l-46 170h138l39 -170h178l29 96h75l29 -96h177l40 170h138l-47 -170h51v-83h-73l-22 -81h95v-83h-118l-68 -253h-130l-110 337l-109 -337h-130l-69 253h-116v83h93l-22 81h-71zM546 417l24 -81h91l18 81h-133zM229 417l19 -81h90l24 81h-133zM595 253
l27 -86l20 86h-47zM267 253l20 -86l26 86h-46z" />
    <glyph glyph-name="colonmonetary" unicode="&#x20a1;" 
d="M176 -109l20 134q-75 42 -116.5 121.5t-41.5 182.5q0 95 32.5 170t91 121.5t135.5 59.5l15 99h83l-15 -94q27 -1 57 -8l16 102h83l-20 -128q40 -19 68 -43l-66 -115l-23 16l-58 -375q45 16 90 52l61 -113q-33 -34 -77.5 -56t-95.5 -29l-15 -97h-83l14 94q-29 3 -56 9
l-16 -103h-83zM296 134q27 -10 56 -11l64 418q-25 6 -51 6h-6zM183 335q0 -90 39 -144l51 335q-44 -24 -67 -73t-23 -118z" />
    <glyph glyph-name="Dramarm" unicode="&#x58f;" 
d="M209 307v105h150v46q0 47 -26.5 74t-73.5 27t-73.5 -27t-26.5 -74v-19h-141v19q0 107 64 167.5t177 60.5t177 -60.5t64 -167.5v-46h80v-105h-80v-69h80v-105h-80v-133h-141v133h-150v105h150v69h-150z" />
    <glyph glyph-name="tBaht" unicode="&#xe3f;" 
d="M63 0v670h198v109h83v-110q94 -4 149 -51t55 -123q0 -90 -87 -129q111 -48 111 -164q0 -85 -61 -139.5t-167 -61.5v-113h-83v112h-198zM185 114h76v187h-76v-187zM437 208q0 40 -24 64t-69 28v-185q46 5 69.5 28.5t23.5 64.5zM186 408h75v147h-75v-147zM418 482
q0 67 -74 72v-146q36 3 55 22t19 52z" />
    <glyph glyph-name="naira" unicode="&#x20a6;" horiz-adv-x="747" 
d="M27 379v105h101v186h121l244 -451v451h126v-186h101v-105h-101v-95h101v-105h-101v-179h-122l-243 448v-448h-126v179h-101v105h101v95h-101z" />
    <glyph glyph-name="newsheqel" unicode="&#x20aa;" horiz-adv-x="917" 
d="M843 229q0 -112 -63.5 -170.5t-186.5 -58.5h-308v457h136v-331h179q105 0 105 103v441h138v-441zM74 0v670h314q119 0 181.5 -59.5t62.5 -172.5v-222h-136v222q0 51 -26 78.5t-75 27.5h-183v-544h-138z" />
    <glyph glyph-name="dong" unicode="&#x20ab;" 
d="M386 61q-53 -76 -144 -76q-60 0 -109.5 32.5t-76.5 87t-27 123.5q0 74 28.5 128t77.5 84t107 30q81 0 140 -63v105h-130v93h130v65h141v-65h65v-93h-65v-512h-137v61zM45 -162v99h543v-99h-543zM173 228q0 -55 29.5 -87.5t78.5 -32.5t78.5 32.5t29.5 87.5t-29.5 87.5
t-78.5 32.5t-78.5 -32.5t-29.5 -87.5z" />
    <glyph glyph-name="kip" unicode="&#x20ad;" 
d="M433 0l-166 250l-32 -43v-207h-145v300h-68v105h68v265h145v-264l186 264h158l-197 -265h198v-105h-193l203 -300h-157z" />
    <glyph glyph-name="tugrik" unicode="&#x20ae;" 
d="M76 228v85l151 57v168h-195v132h536v-132h-195v-114l150 57v-85l-150 -57v-57l150 57v-85l-150 -57v-197h-146v143l-151 -57v85l151 57v57z" />
    <glyph glyph-name="tenge" unicode="&#x20b8;" 
d="M227 0v334h-195v132h536v-132h-195v-334h-146zM32 538v132h536v-132h-536z" />
    <glyph glyph-name="manat" unicode="&#x20bc;" horiz-adv-x="769" 
d="M314 0v397q-140 -61 -140 -397h-144q0 144 34 253.5t98 175.5t152 85v156h141v-155q134 -29 209 -165t75 -350h-144q0 337 -140 398v-398h-141z" />
    <glyph glyph-name="peso" unicode="&#x20b1;" 
d="M6 446v84h68v140h201q93 0 154 -35.5t87 -104.5h72v-84h-56q1 -6 1 -12v-12v-13t-1 -12h56v-84h-73q-26 -69 -86.5 -104t-153.5 -35h-64v-174h-137v313h-68v84h68v49h-68zM403 422q0 10 -2 24h-190v-49h190q2 18 2 25zM211 570v-40h163q-31 40 -99 40h-64zM211 274h64
q67 0 98 39h-162v-39z" />
    <glyph glyph-name="guarani" unicode="&#x20b2;" 
d="M266 -122v114q-114 23 -178.5 113.5t-64.5 228.5q0 90 30.5 162.5t85.5 119t127 62.5v101h83v-93q57 -1 107.5 -20t97.5 -56l-80 -103q-57 49 -125 52v-185h136q46 0 62 -15t16 -60v-267q-50 -24 -102.5 -35.5t-111.5 -12.5v-106h-83zM168 334q0 -170 98 -211v422
q-98 -43 -98 -211zM435 257h-86v-148q51 0 86 8v140z" />
    <glyph glyph-name="hryvnia" unicode="&#x20b4;" 
d="M38 366v83h345q11 17 11 43q0 32 -25 50.5t-68 18.5q-81 0 -154 -50l-48 104q91 71 207 71q65 0 115.5 -25.5t78 -68.5t27.5 -95q0 -25 -6 -48h51v-83h-108q-17 -15 -54 -36l-29 -16h191v-83h-336q-13 -11 -18.5 -24.5t-5.5 -33.5q0 -30 25.5 -47t70.5 -17q91 0 189 60
l45 -113q-100 -72 -234 -72q-69 0 -121.5 23t-80.5 63.5t-28 91.5q0 37 16 69h-56v83h134q9 7 19.5 13t21.5 13l46 26h-221z" />
    <glyph glyph-name="mill" unicode="&#x20a5;" horiz-adv-x="912" 
d="M257 -139l130 321v111q0 104 -87 104q-47 0 -73 -33t-26 -95v-269h-141v505h129v-69q23 40 62.5 61.5t90.5 21.5q44 0 79 -21t57 -61l92 227h88l-65 -159q32 14 76 14q87 0 136.5 -57.5t49.5 -159.5v-302h-141v293q0 104 -87 104q-47 0 -73 -31.5t-26 -90.5v-275h-110v42
l-73 -181h-88z" />
    <glyph glyph-name="cedi" unicode="&#x20b5;" 
d="M318 -122v109q-86 10 -148.5 56.5t-96 120t-33.5 165.5q0 99 35 176t97.5 122.5t145.5 55.5v96h83v-95q109 -13 185 -76l-66 -115q-54 42 -119 51v-419q67 10 128 61l61 -113q-37 -37 -85.5 -59t-103.5 -28v-108h-83zM185 335q0 -84 34.5 -138t98.5 -69v414
q-65 -15 -99 -68.5t-34 -138.5z" />
    <glyph glyph-name="florin" unicode="&#x192;" horiz-adv-x="412" 
d="M14 390v115h106v12q0 102 49 157t140 55q24 0 51.5 -6.5t47.5 -17.5l-27 -107q-21 12 -51 12q-42 0 -62 -21.5t-20 -68.5v-15h130v-115h-130v-390q0 -102 -49 -157t-140 -55q-24 0 -51.5 6.5t-47.5 17.5l27 107q24 -12 51 -12q42 0 62 21.5t20 68.5v393h-106z" />
    <glyph glyph-name="currency" unicode="&#xa4;" 
d="M573 494l-93 -78q18 -41 18 -82t-15 -76l90 -76l-65 -75l-87 73q-53 -39 -121 -39q-69 0 -122 39l-86 -73l-65 75l89 76q-14 36 -14 76q0 43 17 82l-92 78l67 75l89 -77q53 36 117 36t116 -36l90 77zM300 242q39 0 63 24.5t24 67.5q0 44 -23.5 68.5t-63.5 24.5
t-63.5 -24.5t-23.5 -68.5q0 -43 24 -67.5t63 -24.5z" />
    <glyph glyph-name="asciicircum" unicode="^" 
d="M357 631l210 -376h-145l-122 243l-122 -243h-145l210 376h114z" />
    <glyph glyph-name="plus" unicode="+" 
d="M364 278v-183h-128v183h-171v115h171v182h128v-182h171v-115h-171z" />
    <glyph glyph-name="minus" unicode="&#x2212;" 
d="M535 393v-115h-470v115h470z" />
    <glyph glyph-name="plusminus" unicode="&#xb1;" 
d="M364 362v-183h-128v183h-171v115h171v182h128v-182h171v-115h-171zM535 104v-115h-470v115h470z" />
    <glyph glyph-name="minusplus" unicode="&#x2213;" 
d="M364 223v-183h-128v183h-171v115h171v182h128v-182h171v-115h-171zM535 692v-115h-470v115h470z" />
    <glyph glyph-name="equal" unicode="=" 
d="M535 266v-115h-470v115h470zM535 516v-115h-470v115h470z" />
    <glyph glyph-name="notequal" unicode="&#x2260;" 
d="M65 401v115h278l64 115h116l-64 -115h76v-115h-139l-74 -135h213v-115h-276l-63 -115h-116l63 115h-78v115h141l74 135h-215z" />
    <glyph glyph-name="divide" unicode="&#xf7;" 
d="M535 393v-115h-470v115h470zM301 443q-37 0 -61.5 22.5t-24.5 57.5t25 58t61 23t60.5 -23t24.5 -58q0 -36 -24 -58t-61 -22zM301 67q-37 0 -61.5 22.5t-24.5 57.5t25 58t61 23t60.5 -23t24.5 -58q0 -36 -24 -58t-61 -22z" />
    <glyph glyph-name="logicalnot" unicode="&#xac;" 
d="M530 179h-129v135h-341v115h470v-250z" />
    <glyph glyph-name="multiply" unicode="&#xd7;" 
d="M70 191l143 144l-143 144l87 87l143 -144l143 144l87 -87l-143 -144l143 -144l-87 -87l-143 144l-143 -144z" />
    <glyph glyph-name="asciitilde" unicode="~" 
d="M310 400q48 -32 62 -39.5t23 -7.5q17 0 27 11t10 31v49h126v-80q0 -61 -38.5 -100t-99.5 -39q-34 0 -59.5 9t-69.5 38q-48 32 -62 39.5t-23 7.5q-17 0 -27 -11t-10 -31v-49h-126v80q0 61 38.5 100t99.5 39q34 0 59.5 -9t69.5 -38z" />
    <glyph glyph-name="similar" unicode="&#x223c;" 
d="M310 400q48 -32 62 -39.5t23 -7.5q17 0 27 11t10 31v49h126v-80q0 -61 -38.5 -100t-99.5 -39q-34 0 -59.5 9t-69.5 38q-48 32 -62 39.5t-23 7.5q-17 0 -27 -11t-10 -31v-49h-126v80q0 61 38.5 100t99.5 39q34 0 59.5 -9t69.5 -38z" />
    <glyph glyph-name="approxequal" unicode="&#x2248;" 
d="M414 356q-67 0 -120 44q-41 34 -55.5 42.5t-28.5 8.5q-20 0 -31 -14.5t-11 -40.5v-32h-103v69q0 54 34.5 90.5t85.5 36.5q35 0 63.5 -10.5t56.5 -33.5q39 -33 54 -42t30 -9q20 0 31 14.5t11 40.5v32h103v-69q0 -54 -34.5 -90.5t-85.5 -36.5zM414 96q-67 0 -120 44
q-41 34 -55.5 42.5t-28.5 8.5q-20 0 -31 -14.5t-11 -40.5v-32h-103v69q0 54 34.5 90.5t85.5 36.5q35 0 63.5 -10.5t56.5 -33.5q39 -33 54 -42t30 -9q20 0 31 14.5t11 40.5v32h103v-69q0 -54 -34.5 -90.5t-85.5 -36.5z" />
    <glyph glyph-name="asymptoticallyequalto" unicode="&#x2243;" 
d="M535 151h-470v115h470v-115zM414 356q-67 0 -120 44q-41 34 -55.5 42.5t-28.5 8.5q-20 0 -31 -14.5t-11 -40.5v-32h-103v69q0 54 34.5 90.5t85.5 36.5q35 0 63.5 -10.5t56.5 -33.5q39 -33 54 -42t30 -9q20 0 31 14.5t11 40.5v32h103v-69q0 -54 -34.5 -90.5t-85.5 -36.5z
" />
    <glyph glyph-name="congruent" unicode="&#x2245;" 
d="M414 428q-67 0 -120 44q-41 34 -55.5 42.5t-28.5 8.5q-20 0 -31 -14.5t-11 -40.5v-32h-103v69q0 54 34.5 90.5t85.5 36.5q35 0 63.5 -10.5t56.5 -33.5q39 -33 54 -42t30 -9q20 0 31 14.5t11 40.5v32h103v-69q0 -54 -34.5 -90.5t-85.5 -36.5zM65 0v115h470v-115h-470z
M65 230v115h470v-115h-470z" />
    <glyph glyph-name="estimates" unicode="&#x2259;" 
d="M393 427l-93 154l-93 -154h-132l158 253h134l158 -253h-132zM65 230v115h470v-115h-470zM65 0v115h470v-115h-470z" />
    <glyph glyph-name="plussigndotbelow" unicode="&#x2a25;" 
d="M364 278v-183h-128v183h-171v115h171v182h128v-182h171v-115h-171zM301 -134q-37 0 -61 22.5t-24 57.5t24 57.5t61 22.5t61 -22.5t24 -57.5t-24 -57.5t-61 -22.5z" />
    <glyph glyph-name="minussigndotbelow" unicode="&#x2a2a;" 
d="M535 393v-115h-470v115h470zM301 28q-37 0 -61 22.5t-24 57.5t24 57.5t61 22.5t61 -22.5t24 -57.5t-24 -57.5t-61 -22.5z" />
    <glyph glyph-name="approcheslimit" unicode="&#x2250;" 
d="M535 266v-115h-470v115h470zM535 516v-115h-470v115h470zM300 606q-37 0 -61 22.5t-24 57.5t24 57.5t61 22.5t61 -22.5t24 -57.5t-24 -57.5t-61 -22.5z" />
    <glyph glyph-name="equalssigndotbelow" unicode="&#x2a66;" 
d="M535 266v-115h-470v115h470zM535 516v-115h-470v115h470zM301 -99q-37 0 -61 22.5t-24 57.5t24 57.5t61 22.5t61 -22.5t24 -57.5t-24 -57.5t-61 -22.5z" />
    <glyph glyph-name="colonequals" unicode="&#x2254;" horiz-adv-x="800" 
d="M747 266v-115h-470v115h470zM747 516v-115h-470v115h470zM128 396q-37 0 -61 22.5t-24 57.5t24 57.5t61 22.5t61 -22.5t24 -57.5t-24 -57.5t-61 -22.5zM128 111q-37 0 -61 22.5t-24 57.5t24 57.5t61 22.5t61 -22.5t24 -57.5t-24 -57.5t-61 -22.5z" />
    <glyph glyph-name="equivalence" unicode="&#x2261;" 
d="M65 40v115h470v-115h-470zM65 250v115h470v-115h-470zM65 460v115h470v-115h-470z" />
    <glyph glyph-name="equivalentto" unicode="&#x224d;" 
d="M540 252v-117q-104 44 -240 44t-240 -44v117q107 46 240 46t240 -46zM540 532v-117q-107 -46 -240 -46t-240 46v117q104 -44 240 -44t240 44z" />
    <glyph glyph-name="circlemultiply" unicode="&#x2297;" horiz-adv-x="700" 
d="M349 26q-90 0 -160.5 42t-109.5 112t-39 155q0 89 42.5 160t112.5 110t154 39q90 0 161 -43t110 -113t39 -153q0 -90 -42.5 -161t-113 -109.5t-154.5 -38.5zM349 537q-53 0 -97 -28l97 -97l97 97q-44 28 -97 28zM349 133q55 0 97 27l-97 97l-97 -97q42 -27 97 -27z
M536 335q0 48 -19 92l-91 -92l91 -92q19 43 19 92zM162 335q0 -51 18 -92l92 92l-91 92q-19 -41 -19 -92z" />
    <glyph glyph-name="circleplus" unicode="&#x2295;" horiz-adv-x="700" 
d="M349 26q-90 0 -160.5 42t-109.5 112t-39 155q0 89 42.5 160t112.5 110t154 39q90 0 161 -43t110 -113t39 -153q0 -90 -42.5 -161t-113 -109.5t-154.5 -38.5zM408 142q47 16 79 53t43 88h-122v-141zM167 283q12 -51 44 -88t79 -53v141h-123zM290 527q-46 -15 -78.5 -52
t-43.5 -87h122v139zM530 388q-12 50 -44 87t-78 52v-139h122z" />
    <glyph glyph-name="divisionslash" unicode="&#x2215;" 
d="M18 0l415 670h138l-415 -670h-138z" />
    <glyph glyph-name="commercialminus" unicode="&#x2052;" 
d="M154 524q-37 0 -61 22.5t-24 57.5t24 57.5t61 22.5t61 -22.5t24 -57.5t-24 -57.5t-61 -22.5zM434 -22q-37 0 -61 22.5t-24 57.5t24 57.5t61 22.5t61 -22.5t24 -57.5t-24 -57.5t-61 -22.5zM53 0l355 670h138l-355 -670h-138z" />
    <glyph glyph-name="less" unicode="&#x3c;" 
d="M509 225v-129l-418 180v118l418 180v-127l-288 -111z" />
    <glyph glyph-name="greater" unicode="&#x3e;" 
d="M91 574l418 -180v-118l-418 -180v127l288 111l-288 111v129z" />
    <glyph glyph-name="lessequal" unicode="&#x2264;" 
d="M533 156l-468 180v118l468 180v-127l-336 -111l336 -111v-129zM535 105v-115h-470v115h470z" />
    <glyph glyph-name="greaterequal" unicode="&#x2265;" 
d="M65 156v127l336 111l-336 111v129l468 -180v-118zM535 105v-115h-470v115h470z" />
    <glyph glyph-name="lessthanequivalentto" unicode="&#x2272;" 
d="M534 156l-468 180v118l468 180v-127l-336 -111l336 -111v-129zM414 -71q-67 0 -120 44q-41 34 -55.5 42.5t-28.5 8.5q-20 0 -31 -14.5t-11 -40.5v-32h-103v69q0 54 34.5 90.5t85.5 36.5q35 0 63.5 -10.5t56.5 -33.5q39 -33 54 -42t30 -9q20 0 31 14.5t11 40.5v32h103v-69
q0 -54 -34.5 -90.5t-85.5 -36.5z" />
    <glyph glyph-name="greaterthanequivalentto" unicode="&#x2273;" 
d="M66 156v127l336 111l-336 111v129l468 -180v-118zM414 -71q-67 0 -120 44q-41 34 -55.5 42.5t-28.5 8.5q-20 0 -31 -14.5t-11 -40.5v-32h-103v69q0 54 34.5 90.5t85.5 36.5q35 0 63.5 -10.5t56.5 -33.5q39 -33 54 -42t30 -9q20 0 31 14.5t11 40.5v32h103v-69
q0 -54 -34.5 -90.5t-85.5 -36.5z" />
    <glyph glyph-name="notlessthan" unicode="&#x226e;" 
d="M199 36l58 166l-192 74v118l300 115l43 122h81l-30 -86l74 29v-117l-119 -40l-52 -146l171 -56v-119l-205 78l-48 -138h-81zM166 336l124 -41l32 92z" />
    <glyph glyph-name="notgreaterthan" unicode="&#x226f;" 
d="M65 96v117l121 40l51 145l-172 57v119l206 -80l48 137h81l-58 -164l191 -73v-118l-298 -115l-44 -125h-81l31 89zM431 334l-121 40l-32 -91z" />
    <glyph glyph-name="muchless" unicode="&#x226a;" horiz-adv-x="855" 
d="M444 47l-362 228v120l362 228v-131l-253 -150l253 -150v-145zM772 47l-362 228v120l362 228v-131l-253 -150l253 -150v-145z" />
    <glyph glyph-name="muchgreater" unicode="&#x226b;" horiz-adv-x="855" 
d="M83 47v145l252 150l-252 150v131l362 -228v-120zM411 47v145l252 150l-252 150v131l362 -228v-120z" />
    <glyph glyph-name="precedes" unicode="&#x227a;" 
d="M510 542q0 -77 -29.5 -130.5t-84.5 -76.5q55 -23 84.5 -76t29.5 -130v-34h-128v27q0 156 -201 156h-131v115h131q201 0 201 156v27h128v-34z" />
    <glyph glyph-name="succeeds" unicode="&#x227b;" 
d="M90 129q0 78 29.5 131t84.5 75q-55 22 -84.5 75.5t-29.5 131.5v34h128v-27q0 -156 201 -156h131v-115h-131q-201 0 -201 -156v-27h-128v34z" />
    <glyph glyph-name="precedesequal" unicode="&#x2aaf;" 
d="M515 104v-115h-470v115h470zM505 626q0 -77 -29.5 -130.5t-84.5 -76.5q55 -23 84.5 -76t29.5 -130v-34h-128v27q0 156 -201 156h-131v115h131q201 0 201 156v27h128v-34z" />
    <glyph glyph-name="succeedsequal" unicode="&#x2ab0;" 
d="M555 104v-115h-470v115h470zM95 213q0 78 29.5 131t84.5 75q-55 22 -84.5 75.5t-29.5 131.5v34h128v-27q0 -156 201 -156h131v-115h-131q-201 0 -201 -156v-27h-128v34z" />
    <glyph glyph-name="bracketleftangle" unicode="&#x27e8;" horiz-adv-x="410" 
d="M251 -149l-210 434l210 434h144l-195 -434l195 -434h-144z" />
    <glyph glyph-name="bracketrightangle" unicode="&#x27e9;" horiz-adv-x="410" 
d="M15 -149l195 434l-195 434h144l210 -434l-210 -434h-144z" />
    <glyph glyph-name="verticalellipsis" unicode="&#x22ee;" horiz-adv-x="274" 
d="M137 -12q-37 0 -61 22.5t-24 57.5t24 57.5t61 22.5t61 -22.5t24 -57.5t-24 -57.5t-61 -22.5zM137 255q-37 0 -61 22.5t-24 57.5t24 57.5t61 22.5t61 -22.5t24 -57.5t-24 -57.5t-61 -22.5zM137 522q-37 0 -61 22.5t-24 57.5t24 57.5t61 22.5t61 -22.5t24 -57.5t-24 -57.5
t-61 -22.5z" />
    <glyph glyph-name="bulletoperator" unicode="&#x2219;" horiz-adv-x="274" 
d="M137 253q-37 0 -61 22.5t-24 57.5t24 57.5t61 22.5t61 -22.5t24 -57.5t-24 -57.5t-61 -22.5z" />
    <glyph glyph-name="dotmath" unicode="&#x22c5;" horiz-adv-x="274" 
d="M137 253q-37 0 -61 22.5t-24 57.5t24 57.5t61 22.5t61 -22.5t24 -57.5t-24 -57.5t-61 -22.5z" />
    <glyph glyph-name="therefore" unicode="&#x2234;" 
d="M150 92q-37 0 -61 22.5t-24 57.5t24 57.5t61 22.5t61 -22.5t24 -57.5t-24 -57.5t-61 -22.5zM451 92q-37 0 -61 22.5t-24 57.5t24 57.5t61 22.5t61 -22.5t24 -57.5t-24 -57.5t-61 -22.5zM305 415q-37 0 -61 22.5t-24 57.5t24 57.5t61 22.5t61 -22.5t24 -57.5t-24 -57.5
t-61 -22.5z" />
    <glyph glyph-name="universal" unicode="&#x2200;" horiz-adv-x="667" 
d="M252 0l-250 670h160l45 -141h251l46 141h161l-250 -670h-163zM332 142l87 267h-173z" />
    <glyph glyph-name="complement" unicode="&#x2201;" horiz-adv-x="700" 
d="M416 -8q-98 0 -172 39t-113.5 108.5t-39.5 161.5q0 93 42 165t113.5 111t161.5 39q54 0 103 -15.5t88 -45.5l-57 -97q-25 19 -58 29t-69 10q-86 0 -139 -53t-53 -139t53.5 -140.5t137.5 -54.5q79 0 135 47l54 -100q-32 -32 -80 -48.5t-107 -16.5z" />
    <glyph glyph-name="existential" unicode="&#x2203;" 
d="M51 0v132h321v141h-302v131h302v134h-315v132h463v-670h-469z" />
    <glyph glyph-name="gradient" unicode="&#x2207;" horiz-adv-x="689" 
d="M263 0l-221 547v123h605v-123l-221 -547h-163zM202 543l141 -407l142 407h-283z" />
    <glyph glyph-name="increment" unicode="&#x2206;" horiz-adv-x="689" 
d="M42 0v123l221 547h163l221 -547v-123h-605zM202 127h283l-142 407z" />
    <glyph glyph-name="element" unicode="&#x2208;" 
d="M341 0q-91 0 -159.5 37.5t-104 104.5t-35.5 156q0 93 38 160t106 102.5t155 35.5h200v-115h-200q-66 0 -108.5 -32.5t-55.5 -92.5h364v-115h-365q13 -61 55.5 -93.5t109.5 -32.5h200v-115h-200z" />
    <glyph glyph-name="notelement" unicode="&#x2209;" 
d="M138 -93l47 129q-69 36 -106 103t-37 159q0 93 38 160t106 102.5t155 35.5h48l38 104h111l-38 -104h41v-115h-83l-45 -125h128v-115h-170l-46 -126h216v-115h-200q-32 0 -57 4l-35 -97h-111zM341 481q-66 0 -108.5 -32.5t-55.5 -92.5h124l46 125h-6zM176 241
q14 -60 51 -90l32 90h-83z" />
    <glyph glyph-name="suchthat" unicode="&#x220b;" 
d="M59 241v115h364q-13 60 -55.5 92.5t-108.5 32.5h-200v115h200q91 0 159 -37.5t104 -104.5t36 -156q0 -93 -37.5 -160t-105.5 -102.5t-156 -35.5h-200v115h200q67 0 109 32t55 94h-364z" />
    <glyph glyph-name="emptyset" unicode="&#x2205;" horiz-adv-x="730" 
d="M176 -89l-87 57l65 100q-48 42 -73.5 102t-25.5 129q0 89 42.5 160t112.5 110t154 39q68 0 126 -26l60 92l87 -57l-60 -91q47 -44 72 -102.5t25 -124.5q0 -90 -42.5 -161t-113 -109.5t-154.5 -38.5q-65 0 -122 23zM186 299q0 -72 39 -123l199 304q-30 11 -60 11
q-52 0 -92.5 -26t-63 -69.5t-22.5 -96.5zM364 107q52 0 92.5 26t63 69.5t22.5 96.5q0 68 -36 118l-197 -302q27 -8 55 -8z" />
    <glyph glyph-name="logicaland" unicode="&#x2227;" horiz-adv-x="700" 
d="M26 0l253 596h140l254 -596h-142l-182 449l-181 -449h-142z" />
    <glyph glyph-name="logicalor" unicode="&#x2228;" horiz-adv-x="700" 
d="M279 0l-253 596h142l181 -450l182 450h142l-254 -596h-140z" />
    <glyph glyph-name="orthogonal" unicode="&#x221f;" horiz-adv-x="700" 
d="M82 0v596h128v-481h408v-115h-536z" />
    <glyph glyph-name="perpendicular" unicode="&#x22a5;" horiz-adv-x="700" 
d="M28 0v115h258v481h128v-481h258v-115h-644z" />
    <glyph glyph-name="angle" unicode="&#x2220;" 
d="M24 0v103l320 567l108 -61l-276 -489h399v-120h-551z" />
    <glyph glyph-name="measuredangle" unicode="&#x2221;" 
d="M24 0v103l320 567l108 -61l-134 -238q57 -49 95 -113.5t54 -137.5h108v-120h-551zM353 120q-12 43 -35.5 82t-55.5 70l-86 -152h177z" />
    <glyph glyph-name="radical" unicode="&#x221a;" horiz-adv-x="620" 
d="M207 0l-105 270h-94v115h193l80 -232l190 566h141l-260 -719h-145z" />
    <glyph glyph-name="ohm" unicode="&#x2126;" horiz-adv-x="776" 
d="M346 0h-309v127h116q-52 49 -79 111t-27 132q0 94 45 166t122 111t174 39q102 0 179.5 -42t119.5 -113.5t42 -160.5q0 -69 -27 -131.5t-79 -111.5h116v-127h-309v117q143 80 143 238q0 86 -51 139t-134 53t-134 -53t-51 -139q0 -158 143 -238v-117z" />
    <glyph glyph-name="product" unicode="&#x220f;" horiz-adv-x="720" 
d="M74 -149v819h572v-819h-141v704h-290v-704h-141z" />
    <glyph glyph-name="summation" unicode="&#x2211;" 
d="M30 -149v106l211 312l-201 301v100h535v-115h-360l190 -278l-216 -311h396v-115h-555z" />
    <glyph glyph-name="partialdiff" unicode="&#x2202;" horiz-adv-x="623" 
d="M265 -16q-69 0 -120.5 27t-78.5 76.5t-27 113.5q0 68 32 122.5t84.5 85t113.5 30.5q56 0 100 -20.5t64 -55.5q5 48 5 70q0 85 -40.5 133t-110.5 48q-66 0 -139 -46l-40 98q40 29 92.5 45.5t107.5 16.5q128 0 198 -82t70 -228q0 -212 -79 -323t-232 -111zM279 100
q55 0 90 36t35 92q0 47 -28.5 75t-76.5 28q-55 0 -90.5 -36.5t-35.5 -92.5q0 -46 29 -74t77 -28z" />
    <glyph glyph-name="micro" unicode="&#xb5;" horiz-adv-x="638" 
d="M281 -15q-50 0 -85 22v-209h-136v707h141v-294q0 -104 90 -104q50 0 76 33t26 95v270h141v-356q0 -41 31 -41q15 0 32 8l26 -107q-34 -24 -80 -24q-84 0 -117 75q-23 -35 -61.5 -55t-83.5 -20z" />
    <glyph glyph-name="intersection" unicode="&#x2229;" horiz-adv-x="700" 
d="M74 0v313q0 144 70.5 219t204.5 75q135 0 205.5 -75t70.5 -219v-313h-128v314q0 178 -148 178q-147 0 -147 -178v-314h-128z" />
    <glyph glyph-name="union" unicode="&#x222a;" horiz-adv-x="700" 
d="M349 0q-134 0 -204.5 75t-70.5 219v313h128v-314q0 -178 147 -178q148 0 148 178v314h128v-313q0 -144 -70.5 -219t-205.5 -75z" />
    <glyph glyph-name="propersuperset" unicode="&#x2283;" horiz-adv-x="700" 
d="M74 60v115h287q132 0 132 123t-132 123h-287v115h287q128 0 196 -61t68 -177t-68 -177t-196 -61h-287z" />
    <glyph glyph-name="reflexsuperset" unicode="&#x2287;" horiz-adv-x="700" 
d="M74 193v115h287q132 0 132 123t-132 123h-287v115h287q128 0 196 -61t68 -177t-68 -177t-196 -61h-287zM75 0v115h537v-115h-537z" />
    <glyph glyph-name="notsubset" unicode="&#x2284;" horiz-adv-x="700" 
d="M209 -93l60 158q-95 15 -145 74.5t-50 158.5q0 116 68 177t196 61h109l62 164h110l-62 -164h68v-115h-112l-93 -246h205v-115h-248l-58 -153h-110zM206 298q0 -110 105 -122l92 245h-65q-132 0 -132 -123z" />
    <glyph glyph-name="propersubset" unicode="&#x2282;" horiz-adv-x="700" 
d="M338 60q-128 0 -196 61t-68 177t68 177t196 61h287v-115h-287q-132 0 -132 -123t132 -123h287v-115h-287z" />
    <glyph glyph-name="reflexsubset" unicode="&#x2286;" horiz-adv-x="700" 
d="M338 193q-128 0 -196 61t-68 177t68 177t196 61h287v-115h-287q-132 0 -132 -123t132 -123h287v-115h-287zM85 0v115h540v-115h-540z" />
    <glyph glyph-name="sqimage" unicode="&#x228f;" 
d="M540 210v-115h-460v480h460v-115h-332v-250h332z" />
    <glyph glyph-name="sqoriginal" unicode="&#x2290;" 
d="M60 95v115h332v250h-332v115h460v-480h-460z" />
    <glyph glyph-name="sqimageequal" unicode="&#x2291;" 
d="M545 104v-115h-470v115h470zM540 294v-115h-460v480h460v-115h-332v-250h332z" />
    <glyph glyph-name="sqoriginalequal" unicode="&#x2292;" 
d="M525 104v-115h-470v115h470zM60 179v115h332v250h-332v115h460v-480h-460z" />
    <glyph glyph-name="righttack" unicode="&#x22a2;" 
d="M85 628h128v-235h342v-115h-342v-235h-128v585z" />
    <glyph glyph-name="lefttack" unicode="&#x22a3;" 
d="M387 628h128v-585h-128v235h-342v115h342v235z" />
    <glyph glyph-name="ringoperator" unicode="&#x2218;" 
d="M300 125q-74 0 -123 49t-49 123t49 123t123 49t123 -49t49 -123t-49 -123t-123 -49zM300 214q34 0 56 24t22 59t-22 59t-56 24t-56 -24t-22 -59t22 -59t56 -24z" />
    <glyph glyph-name="infinity" unicode="&#x221e;" horiz-adv-x="670" 
d="M178 179q-68 0 -112.5 44t-44.5 113t44.5 113t112.5 44q43 0 81 -21t77 -69q39 48 76 69t80 21q68 0 112.5 -44t44.5 -113t-44.5 -113t-112.5 -44q-43 0 -80.5 20.5t-78.5 68.5q-40 -48 -76.5 -68.5t-78.5 -20.5zM184 270q24 0 47 14.5t51 49.5q-30 38 -52.5 53t-45.5 15
q-26 0 -44.5 -19t-18.5 -47t18.5 -47t44.5 -19zM486 270q26 0 44.5 19t18.5 47t-18.5 47t-44.5 19q-24 0 -47 -15t-52 -50q29 -37 52 -52t47 -15z" />
    <glyph glyph-name="proportional" unicode="&#x221d;" horiz-adv-x="670" 
d="M542 164q-52 0 -94.5 24.5t-87.5 80.5q-39 -48 -75 -69t-77 -21q-68 0 -112.5 44t-44.5 113t44.5 113t112.5 44q41 0 77 -21.5t75 -69.5q46 56 88.5 81t93.5 25h49v-91h-55q-32 0 -60.5 -18.5t-64.5 -62.5q36 -44 64.5 -62.5t60.5 -18.5h55v-91h-49zM214 270
q24 0 45.5 15t50.5 51q-29 36 -50.5 51t-45.5 15q-26 0 -44.5 -19t-18.5 -47t18.5 -47t44.5 -19z" />
    <glyph glyph-name="ceilingleft" unicode="&#x2308;" horiz-adv-x="354" 
d="M87 -149v868h247v-128h-110v-740h-137z" />
    <glyph glyph-name="ceilingright" unicode="&#x2309;" horiz-adv-x="354" 
d="M130 -149v740h-110v128h247v-868h-137z" />
    <glyph glyph-name="floorleft" unicode="&#x230a;" horiz-adv-x="354" 
d="M87 -149v868h137v-740h110v-128h-247z" />
    <glyph glyph-name="floorright" unicode="&#x230b;" horiz-adv-x="354" 
d="M20 -149v128h110v740h137v-868h-247z" />
    <glyph glyph-name="parallelto" unicode="&#x2225;" 
d="M108 -149v819h128v-819h-128zM364 -149v819h128v-819h-128z" />
    <glyph glyph-name="divides" unicode="&#x2223;" horiz-adv-x="366" 
d="M119 -149v819h128v-819h-128z" />
    <glyph glyph-name="equaltobydef" unicode="&#x225d;" horiz-adv-x="695" 
d="M544 436v147h-33v58h33q0 43 24.5 68t68.5 25q25 0 46 -12l-15 -53q-12 5 -21 5q-29 0 -29 -33h53v-58h-53v-147h-74zM395 430q-57 0 -90 29.5t-33 79.5q0 48 31.5 78.5t81.5 30.5q47 0 74.5 -27t27.5 -73v-29h-144q7 -33 56 -33q15 0 33.5 5t28.5 11l20 -48
q-33 -24 -86 -24zM106 430q-42 0 -68.5 30t-26.5 79t26.5 79t68.5 30q38 0 62 -27v107h73v-292h-71v23q-26 -29 -64 -29zM127 494q20 0 32.5 12.5t12.5 32.5t-12.5 32.5t-32.5 12.5q-18 0 -30 -12.5t-12 -32.5q0 -19 12 -32t30 -13zM345 562h75q-1 16 -10.5 24.5t-26.5 8.5
q-15 0 -25.5 -9.5t-12.5 -23.5zM34 0v115h608v-115h-608zM34 230v115h608v-115h-608z" />
    <glyph glyph-name="integral" unicode="&#x222b;" horiz-adv-x="449" 
d="M100 -212q-24 0 -51.5 6.5t-47.5 17.5l27 107q24 -12 51 -12q42 0 62 21.5t20 68.5v520q0 102 49 157t140 55q24 0 51.5 -6.5t47.5 -17.5l-27 -107q-21 12 -51 12q-42 0 -62 -21.5t-20 -68.5v-520q0 -102 -49 -157t-140 -55z" />
    <glyph glyph-name="dblintegral" unicode="&#x222c;" horiz-adv-x="744" 
d="M128 -212q-24 0 -51.5 6.5t-47.5 17.5l27 107q24 -12 51 -12q42 0 62 21.5t20 68.5v520q0 102 49 157t140 55q24 0 51.5 -6.5t47.5 -17.5l-27 -107q-21 12 -51 12q-42 0 -62 -21.5t-20 -68.5v-520q0 -102 -49 -157t-140 -55zM424 -212q-24 0 -51.5 6.5t-47.5 17.5l27 107
q24 -12 51 -12q42 0 62 21.5t20 68.5v520q0 102 49 157t140 55q24 0 51.5 -6.5t47.5 -17.5l-27 -107q-21 12 -51 12q-42 0 -62 -21.5t-20 -68.5v-520q0 -102 -49 -157t-140 -55z" />
    <glyph glyph-name="finiteintegral" unicode="&#x2a0d;" horiz-adv-x="466" 
d="M44 234v115h125v168q0 102 49 157t140 55q24 0 51.5 -6.5t47.5 -17.5l-27 -107q-21 12 -51 12q-42 0 -62 -21.5t-20 -68.5v-171h141v-115h-141v-234q0 -102 -49 -157t-140 -55q-24 0 -51.5 6.5t-47.5 17.5l27 107q24 -12 51 -12q42 0 62 21.5t20 68.5v237h-125z" />
    <glyph glyph-name="contourintegral" unicode="&#x222e;" 
d="M176 -212q-24 0 -51.5 6.5t-47.5 17.5l27 107q23 -12 51 -12q45 0 65 20t20 65v9q-97 17 -155.5 86.5t-58.5 170.5q0 99 58.5 168.5t155.5 87.5v8q0 98 49 152.5t137 54.5q24 0 51.5 -6.5t47.5 -17.5l-27 -107q-21 12 -51 12q-44 0 -64.5 -21.5t-20.5 -66.5v-8
q96 -18 154 -87.5t58 -168.5q0 -100 -57.5 -169t-154.5 -88v-6q0 -99 -48.5 -153t-137.5 -54zM144 258q0 -51 26 -90t70 -56v292q-44 -17 -70 -56t-26 -90zM456 258q0 49 -25.5 88t-68.5 57v-290q43 17 68.5 56t25.5 89z" />
    <glyph glyph-name="sfcintegral" unicode="&#x222f;" horiz-adv-x="820" 
d="M410 -4q-35 0 -67 3q-2 -102 -50 -156.5t-137 -54.5q-22 0 -46.5 5.5t-44.5 14.5l29 107q22 -8 41 -8q42 0 62 21.5t20 68.5v29q-92 33 -141.5 93t-49.5 139q0 78 50 138t141 93v28q0 102 49 157t140 55q40 0 77 -14l-29 -108q-7 2 -13.5 2.5t-13.5 0.5q-43 0 -63.5 -23
t-20.5 -71q42 4 67 4q40 0 71 -4q1 103 49.5 158t137.5 55q42 0 84 -17l-29 -107q-18 5 -34 5q-42 0 -62 -21.5t-20 -68.5v-33q89 -33 138 -92.5t49 -136.5t-48.5 -137t-138.5 -93v-28q0 -102 -49 -157t-140 -55q-39 0 -79 15l28 108q13 -4 30 -4q41 0 61.5 22.5t22.5 70.5
q-31 -4 -71 -4zM410 101q42 0 71 4v305q-37 5 -71 5q-25 0 -67 -4v-306q28 -4 67 -4zM144 258q0 -71 73 -113v226q-36 -21 -54.5 -50t-18.5 -63zM676 258q0 33 -17.5 61t-51.5 49v-221q69 44 69 111z" />
    <glyph glyph-name="Cdblstruck" unicode="&#x2102;" horiz-adv-x="705" 
d="M420 -16q-112 0 -197 44.5t-130.5 122.5t-45.5 178q0 109 47.5 190t131.5 124t192 43q67 0 129.5 -21.5t109.5 -60.5l-42 -71q-39 30 -82 46.5t-83 16.5q-63 0 -107.5 -33.5t-68.5 -93.5t-24 -134q0 -75 25 -136.5t69 -93t103 -31.5q44 0 90.5 18t87.5 50l41 -68
q-41 -41 -107.5 -65.5t-138.5 -24.5zM209 126l7 4q-46 79 -46 200t46 200l-7 4q-40 -39 -61 -91t-21 -113t21 -113t61 -91z" />
    <glyph glyph-name="Ndblstruck" unicode="&#x2115;" horiz-adv-x="722" 
d="M74 0v670h109l375 -375v375h90v-670h-109l-375 375v-375h-90zM558 109v58l-394 394v-58z" />
    <glyph glyph-name="Pdblstruck" unicode="&#x2119;" horiz-adv-x="684" 
d="M496 359q62 33 62 102q0 65 -61 95q16 -43 16 -95q0 -54 -17 -102zM74 0v670h273q154 0 225 -51.5t71 -162.5t-71 -162.5t-225 -51.5h-58v-242h-215zM289 332h51q37 0 62.5 36t25.5 93q0 53 -26 86t-65 33h-48v-248zM159 90h45v490h-45v-490z" />
    <glyph glyph-name="Qdblstruck" unicode="&#x211a;" horiz-adv-x="816" 
d="M607 -114l-82 114q-52 -16 -117 -16q-108 0 -190.5 46t-126.5 125.5t-44 179.5q0 105 47 185t129 123t185 43q108 0 190.5 -46t126.5 -125.5t44 -179.5q0 -97 -41.5 -175t-118.5 -124l70 -98zM408 74q29 0 54 13l-86 119l73 52l77 -107q40 72 40 184q0 118 -43.5 189.5
t-114.5 71.5t-114.5 -71.5t-43.5 -189.5t43.5 -189.5t114.5 -71.5zM607 126q40 39 61 91t21 113t-21 113t-61 91l-7 -4q46 -79 46 -200t-46 -200zM209 126l7 4q-46 79 -46 200t46 200l-7 4q-40 -39 -61 -91t-21 -113t21 -113t61 -91z" />
    <glyph glyph-name="Rdblstruck" unicode="&#x211d;" horiz-adv-x="684" 
d="M74 0v670h273q152 0 224 -50t72 -154q0 -129 -108 -181l146 -285h-243l-129 252h-20v-252h-215zM289 342h51q37 0 62.5 35t25.5 89q0 51 -26 82.5t-65 31.5h-48v-238zM159 90h45v490h-45v-490zM488 90h50l-83 162h-49zM496 369q62 32 62 97q0 62 -61 90q16 -42 16 -90
q0 -51 -17 -97z" />
    <glyph glyph-name="Zdblstruck" unicode="&#x2124;" horiz-adv-x="659" 
d="M42 0v69l287 511h-266v90h536v-74l-285 -506h295v-90h-567zM159 90h52l275 490h-52z" />
    <glyph glyph-name="Ifraktur" unicode="&#x2111;" horiz-adv-x="560" 
d="M270 -9q-55 0 -106.5 10t-110.5 33l34 99q29 -13 67 -21t75 -8q67 0 95 25.5t28 81.5q0 37 -19 92q-18 52 -18 91q0 68 27 129q-16 3 -41 13q-27 12 -39.5 15.5t-25.5 3.5q-31 0 -48 -15.5t-17 -43.5q0 -29 21 -57t51 -40l-37 -92q-157 59 -157 204q0 70 38.5 117.5
t100.5 47.5q16 0 35.5 -5t56.5 -19q26 -10 41 -14t31 -4q43 0 56 44l112 -27q-31 -104 -41 -140.5t-13.5 -58.5t-3.5 -57q0 -47 18 -111q17 -58 17 -101q0 -56 -31.5 -100t-83.5 -68t-112 -24z" />
    <glyph glyph-name="Rfraktur" unicode="&#x211c;" horiz-adv-x="800" 
d="M611 -7q-31 0 -51 16t-33 50l-65 179q-15 -2 -45 -4q-20 -119 -82.5 -181t-164.5 -62q-76 0 -157 37l40 97q40 -21 83 -21q73 0 111 59t38 167q0 107 -24 165t-69 58q-22 0 -36.5 -15.5t-14.5 -39.5q0 -31 19.5 -58t52.5 -41l-37 -92q-157 60 -157 204q0 75 48 119.5
t128 44.5q102 0 163 -81l136 71q23 13 44 13q28 0 55 -17q56 -35 88.5 -89.5t32.5 -114.5q0 -133 -127 -189l62 -134l89 39l51 -112l-112 -53q-33 -15 -66 -15zM426 347v-11q71 8 109 37.5t38 77.5q0 28 -15 53t-43 41l-111 -42q22 -71 22 -156z" />
    <glyph glyph-name="Zfraktur" unicode="&#x2128;" horiz-adv-x="652" 
d="M142 280v110h154l112 143q-14 -2 -30 -2q-30 1 -55 8t-50 13.5t-53 7.5q-20 0 -33 -13.5t-13 -33.5q0 -10 4 -19l-103 -44q-29 37 -29 87q0 60 44.5 99t116.5 39q34 0 64 -6.5t57.5 -15t52.5 -15t49 -6.5t52 11.5t51 32.5l74 -74l-166 -212h82v-110h-169l-114 -146
q25 4 51 4q29 0 55 -6.5t50.5 -13t50.5 -7.5q49 0 73 48l89 -55q-29 -59 -64 -84.5t-87 -25.5q-40 0 -73 7.5t-62 17t-58 17t-61 7.5q-26 0 -47.5 -12t-44.5 -41l-74 72l171 218h-67z" />
    <glyph glyph-name="aleph" unicode="&#x2135;" horiz-adv-x="720" 
d="M500 0l-229 332q-34 -42 -52 -88.5t-23 -104.5h96v-139h-180q-71 0 -71 65q0 69 19 142t53 133t81 103l-156 227h182l228 -331q34 42 51.5 88.5t22.5 103.5h-96v139h180q71 0 71 -65q0 -69 -19 -141.5t-52.5 -132t-80.5 -103.5l157 -228h-182z" />
    <glyph glyph-name="Fscript" unicode="&#x2131;" horiz-adv-x="640" 
d="M186 320v40h117q19 76 58.5 131.5t102.5 94.5q-7 -1 -14 -1h-14q-25 0 -49 8t-46.5 18.5t-44.5 18.5t-45 8q-39 0 -61.5 -23.5t-22.5 -64.5q0 -38 15 -61.5t40 -23.5q29 0 49 25t21 63h40q0 -58 -36 -94t-95 -36q-60 0 -97.5 30.5t-37.5 79.5q0 40 29.5 74t75 53.5
t94.5 19.5q39 -1 73.5 -9.5t65.5 -17t61 -9.5q77 0 137 26l16 -34q-58 -31 -94 -64t-59.5 -81.5t-43.5 -130.5h120v-40h-129q-35 -158 -109.5 -241.5t-182.5 -83.5q-113 0 -113 85q0 48 38.5 79t92.5 31q40 0 71 -18l-14 -22q-24 12 -49 12q-33 0 -53 -19.5t-20 -52.5
q0 -27 16 -42t42 -15q35 0 61 25.5t50 87t51 174.5h-107z" />
    <glyph glyph-name="Lscript" unicode="&#x2112;" horiz-adv-x="640" 
d="M95 -6q-60 0 -92.5 21t-32.5 61q0 52 43.5 85t111.5 33q47 0 99 -19q18 56 44 167q3 14 6.5 27t7.5 26q-116 1 -170 28.5t-54 87.5q0 55 48.5 92.5t119.5 37.5q56 0 90 -29l-26 -29q-22 25 -56 25q-32 0 -52.5 -19t-20.5 -47q0 -46 35 -71.5t101 -29.5
q42 115 107.5 176.5t144.5 61.5q50 0 78 -20t28 -55q0 -44 -35 -84.5t-94.5 -70.5t-130.5 -44l-12 -60q-26 -134 -75 -216q88 -68 114 -82t51 -14q40 0 69 32t45 93l26 -5q-17 -80 -60 -121t-109 -41q-94 0 -182 77q-69 -74 -167 -74zM524 635q-34 0 -64 -47.5t-54 -138.5
q72 15 112 52t40 88q0 46 -34 46zM112 34q30 0 51.5 19.5t40.5 64.5q-51 38 -90 38q-25 0 -42.5 -17.5t-17.5 -43.5q0 -28 16 -44.5t42 -16.5z" />
    <glyph glyph-name="arrowleft" unicode="&#x2190;" horiz-adv-x="800" 
d="M288 92l-243 243l243 243l51 -52l-152 -152h565v-78h-565l152 -152z" />
    <glyph glyph-name="arrowup" unicode="&#x2191;" 
d="M109 388l-52 51l243 243l243 -243l-52 -51l-152 152v-540h-78v540z" />
    <glyph glyph-name="arrowright" unicode="&#x2192;" horiz-adv-x="800" 
d="M48 296v78h565l-152 152l51 52l243 -243l-243 -243l-51 52l152 152h-565z" />
    <glyph glyph-name="arrowdown" unicode="&#x2193;" 
d="M300 0l-243 243l52 51l152 -152v540h78v-540l152 152l52 -51z" />
    <glyph glyph-name="arrowupleft" unicode="&#x2196;" 
d="M42 256v343h342v-71h-216l400 -401l-56 -55l-399 399v-215h-71z" />
    <glyph glyph-name="arrowupright" unicode="&#x2197;" 
d="M558 599v-343h-71v215l-399 -399l-56 55l400 401h-216v71h342z" />
    <glyph glyph-name="arrowdownleft" unicode="&#x2199;" 
d="M558 415v-343h-342v71h216l-400 401l56 55l399 -399v215h71z" />
    <glyph glyph-name="arrowdownright" unicode="&#x2198;" 
d="M42 72v343h71v-215l399 399l56 -55l-400 -401h216v-71h-342z" />
    <glyph glyph-name="arrowtridownleft" unicode="&#x2ba0;" horiz-adv-x="800" 
d="M291 2l-216 216l216 216l52 -51l-126 -126h367v393h78v-471h-445l126 -126z" />
    <glyph glyph-name="arrowtridownright" unicode="&#x2ba1;" horiz-adv-x="800" 
d="M509 2l-52 51l126 126h-445v471h78v-393h367l-126 126l52 51l216 -216z" />
    <glyph glyph-name="arrowtrileftdown" unicode="&#x2ba6;" horiz-adv-x="800" 
d="M94 256l51 52l126 -126v445h471v-78h-393v-367l126 126l51 -52l-216 -216z" />
    <glyph glyph-name="arrowtrileftup" unicode="&#x2ba4;" horiz-adv-x="800" 
d="M271 49v445l-126 -126l-51 52l216 216l216 -216l-51 -52l-126 126v-367h393v-78h-471z" />
    <glyph glyph-name="arrowtrirightdown" unicode="&#x2ba7;" horiz-adv-x="800" 
d="M490 40l-216 216l51 52l126 -126v369h-393v76h471v-445l126 126l51 -52z" />
    <glyph glyph-name="arrowtrirightup" unicode="&#x2ba5;" horiz-adv-x="800" 
d="M94 49v78h393v367l-126 -126l-51 52l216 216l216 -216l-51 -52l-126 126v-445h-471z" />
    <glyph glyph-name="arrowtriupleft" unicode="&#x2ba2;" horiz-adv-x="800" 
d="M75 432l216 216l52 -51l-126 -126h445v-471h-76v393h-369l126 -126l-52 -51z" />
    <glyph glyph-name="arrowtriupright" unicode="&#x2ba3;" horiz-adv-x="800" 
d="M138 0v471h445l-126 126l52 51l216 -216l-216 -216l-52 51l126 126h-369v-393h-76z" />
    <glyph glyph-name="arrowleftoverright" unicode="&#x21c6;" horiz-adv-x="800" 
d="M538 -75l-54 54l129 125h-527v77h526l-128 124l54 53l216 -216zM262 288l-216 217l216 216l54 -53l-128 -124h526v-77h-527l129 -125z" />
    <glyph glyph-name="arrowbarright" unicode="&#x21a6;" horiz-adv-x="800" 
d="M68 542h76v-168h489l-152 152l51 52l243 -243l-243 -242l-51 51l153 154h-490v-168h-76v412z" />
    <glyph glyph-name="arrowboth" unicode="&#x2194;" horiz-adv-x="883" 
d="M604 92l-51 52l152 152h-527l152 -152l-51 -52l-243 243l243 243l51 -52l-152 -152h527l-152 152l51 52l243 -243z" />
    <glyph glyph-name="arrowupdn" unicode="&#x2195;" 
d="M109 388l-52 51l243 243l243 -243l-52 -51l-152 152v-410l152 152l52 -51l-243 -243l-243 243l52 51l152 -152v410z" />
    <glyph glyph-name="arrowupdnbse" unicode="&#x21a8;" 
d="M109 418l-52 51l243 243l243 -243l-52 -51l-152 152v-390l152 152l52 -51l-243 -243l-243 243l52 51l152 -152v390zM66 -77v77h468v-77h-468z" />
    <glyph glyph-name="arrowdblleft" unicode="&#x21d0;" horiz-adv-x="800" 
d="M286 81l-254 254l254 254l80 -76l-71 -67h472v-83h-560l-29 -28l27 -26h562v-83h-474l73 -69z" />
    <glyph glyph-name="arrowdblup" unicode="&#x21d1;" 
d="M329 0v504l-29 30l-29 -30v-504h-83v419l-66 -68l-76 80l254 254l254 -254l-76 -80l-66 68v-419h-83z" />
    <glyph glyph-name="arrowdblright" unicode="&#x21d2;" horiz-adv-x="800" 
d="M32 363v83h472l-71 67l80 76l254 -254l-254 -254l-80 76l73 69h-474v83h561l28 26l-30 28h-559z" />
    <glyph glyph-name="arrowdbldown" unicode="&#x21d3;" 
d="M300 0l-254 254l76 80l66 -68v419h83v-504l29 -30l29 30v504h83v-419l66 68l76 -80z" />
    <glyph glyph-name="arrowdblboth" unicode="&#x21d4;" horiz-adv-x="900" 
d="M631 81l-80 76l73 69h-348l73 -69l-80 -76l-254 254l254 254l80 -76l-71 -67h344l-71 67l80 76l254 -254zM739 335l-30 28h-519l-29 -28l27 -26h523z" />
    <glyph glyph-name="triangledown" unicode="&#x25bc;" 
d="M300 132l-226 391h452z" />
    <glyph glyph-name="triangleleft" unicode="&#x25c0;" 
d="M451 116l-391 226l391 226v-452z" />
    <glyph glyph-name="triangleright" unicode="&#x25b6;" 
d="M149 116v452l391 -226z" />
    <glyph glyph-name="trianglesmalldown" unicode="&#x25be;" 
d="M300 125l-183 315h366z" />
    <glyph glyph-name="trianglesmallleft" unicode="&#x25c2;" 
d="M425 124l-315 183l315 183v-366z" />
    <glyph glyph-name="trianglesmallright" unicode="&#x25b8;" 
d="M175 124v366l315 -183z" />
    <glyph glyph-name="trianglesmallup" unicode="&#x25b4;" 
d="M117 150l183 315l183 -315h-366z" />
    <glyph glyph-name="triangleup" unicode="&#x25b2;" 
d="M74 182l226 391l226 -391h-452z" />
    <glyph glyph-name="whsquare" unicode="&#x25a1;" horiz-adv-x="640" 
d="M64 79v512h512v-512h-512zM204 206h231v258h-231v-258z" />
    <glyph glyph-name="bowtie" unicode="&#x22c8;" 
d="M25 545h105l170 -157l170 157h105v-420h-105l-170 157l-170 -157h-105v420zM142 423v-176l98 88zM458 247v176l-98 -88z" />
    <glyph glyph-name="join" unicode="&#x2a1d;" 
d="M65 575h105l130 -182l130 182h105v-480h-105l-130 182l-130 -182h-105v480zM182 442v-214l75 107zM418 228v214l-75 -107z" />
    <glyph glyph-name="smile" unicode="&#x2323;" 
d="M563 258q-108 -115 -263 -115t-263 115v125q64 -61 125.5 -88t137.5 -27t137.5 27t125.5 88v-125z" />
    <glyph glyph-name="frown" unicode="&#x2322;" 
d="M563 298v-125q-64 61 -125.5 88t-137.5 27t-137.5 -27t-125.5 -88v125q108 115 263 115t263 -115z" />
    <glyph glyph-name="underscore" unicode="_" horiz-adv-x="500" 
d="M0 -93h500v-109h-500v109z" />
    <glyph glyph-name="section" unicode="&#xa7;" horiz-adv-x="530" 
d="M258 -85q-127 0 -206 55l40 104q34 -22 77 -34.5t87 -12.5q68 0 68 47q0 21 -16 33t-53 17l-40 5q-92 11 -135.5 46.5t-43.5 98.5q0 42 22 75t64 52q-57 44 -57 112q0 51 28.5 91.5t76.5 62.5t109 22q53 0 96 -12t87 -39l-43 -99q-76 38 -141 38q-36 0 -56.5 -13.5
t-20.5 -37.5q0 -19 13 -29.5t42 -14.5l57 -7q94 -12 136.5 -47.5t42.5 -101.5q0 -39 -21.5 -72t-59.5 -55q52 -46 52 -118q0 -49 -27.5 -87t-74 -58.5t-103.5 -20.5zM366 297q0 24 -17 38t-54 19l-69 9q-29 -6 -46.5 -22.5t-17.5 -35.5q0 -24 20 -36.5t67 -18.5l54 -7
q63 12 63 54z" />
    <glyph glyph-name="paragraph" unicode="&#xb6;" horiz-adv-x="694" 
d="M45 447q0 106 70 164.5t195 58.5h310v-820h-118v705h-71v-705h-121v375q-125 0 -195 58.5t-70 163.5z" />
    <glyph glyph-name="numbersign" unicode="#" 
d="M418 670h128l-30 -154h71v-111h-93l-27 -140h80v-111h-101l-30 -154h-128l30 154h-106l-30 -154h-128l30 154h-71v111h92l27 140h-79v111h101l30 154h128l-30 -154h106zM233 265h106l27 140h-106z" />
    <glyph glyph-name="bar" unicode="|" horiz-adv-x="311" 
d="M87 -149v868h137v-868h-137z" />
    <glyph glyph-name="brokenbar" unicode="&#xa6;" horiz-adv-x="311" 
d="M224 719v-353h-137v353h137zM224 204v-353h-137v353h137z" />
    <glyph glyph-name="dagger" unicode="&#x2020;" horiz-adv-x="529" 
d="M197 -129v490h-162v129h162v180h135v-180h162v-129h-162v-490h-135z" />
    <glyph glyph-name="daggerdbl" unicode="&#x2021;" horiz-adv-x="529" 
d="M198 -129v180h-163v129h163v181h-163v129h163v180h133v-180h163v-129h-163v-181h163v-129h-163v-180h-133z" />
    <glyph glyph-name="ampersand" unicode="&#x26;" horiz-adv-x="662" 
d="M627 280q-36 -74 -85 -139l20 -22h80v-119h-76q-43 0 -62 7.5t-44 35.5l-6 6q-84 -65 -181 -65q-67 0 -119 24.5t-80 66.5t-28 93q0 58 32.5 104.5t95.5 76.5q-38 46 -55.5 84.5t-17.5 75.5q0 80 56 128.5t147 48.5q89 0 142 -47t53 -126q0 -56 -33 -100t-102 -83
l96 -102q27 41 62 113zM188 186q0 -37 27 -59.5t73 -22.5q44 0 86 30l-132 139q-54 -36 -54 -87zM371 512q0 26 -18 42.5t-47 16.5t-48 -18t-19 -45q0 -23 12.5 -46.5t44.5 -58.5q75 48 75 109z" />
    <glyph glyph-name="asterisk" unicode="*" horiz-adv-x="439" 
d="M275 671l-13 -124l99 57l43 -100l-122 -36l94 -84l-85 -69l-72 108l-71 -108l-85 69l94 84l-122 36l43 100l102 -58l-14 125h109z" />
    <glyph glyph-name="degree" unicode="&#xb0;" horiz-adv-x="394" 
d="M197 608q-28 0 -44.5 -17.5t-16.5 -47.5t16.5 -47.5t44.5 -17.5t44.5 17.5t16.5 47.5t-16.5 47.5t-44.5 17.5zM197 694q72 0 117 -41.5t45 -109.5t-45 -109.5t-117 -41.5t-117 41.5t-45 109.5t45 109.5t117 41.5z" />
    <glyph glyph-name="asteriskmath" unicode="&#x2217;" 
d="M355 474l-13 -124l99 57l43 -100l-122 -36l94 -84l-85 -69l-72 108l-71 -108l-85 69l94 84l-122 36l43 100l102 -58l-14 125h109z" />
    <glyph glyph-name="hyphen" unicode="-" horiz-adv-x="372" 
d="M45 330h282v-132h-282v132z" />
    <glyph glyph-name="endash" unicode="&#x2013;" horiz-adv-x="500" 
d="M0 325h500v-122h-500v122z" />
    <glyph glyph-name="emdash" unicode="&#x2014;" horiz-adv-x="1000" 
d="M0 325h1000v-122h-1000v122z" />
    <glyph glyph-name="parenleft" unicode="(" horiz-adv-x="381" 
d="M65 285q0 145 56.5 264.5t158.5 193.5l90 -81q-83 -72 -122.5 -164.5t-39.5 -212.5t39.5 -212.5t122.5 -164.5l-90 -81q-102 74 -158.5 193.5t-56.5 264.5z" />
    <glyph glyph-name="parenright" unicode=")" horiz-adv-x="381" 
d="M316 285q0 -145 -56.5 -264.5t-158.5 -193.5l-90 81q83 72 122.5 164.5t39.5 212.5t-39.5 212.5t-122.5 164.5l90 81q102 -74 158.5 -193.5t56.5 -264.5z" />
    <glyph glyph-name="slash" unicode="/" horiz-adv-x="571" 
d="M17 -149l400 868h137l-400 -868h-137z" />
    <glyph glyph-name="backslash" unicode="\" horiz-adv-x="571" 
d="M417 -149l-400 868h137l400 -868h-137z" />
    <glyph glyph-name="bracketleft" unicode="[" horiz-adv-x="354" 
d="M87 719h247v-128h-110v-612h110v-128h-247v868z" />
    <glyph glyph-name="bracketright" unicode="]" horiz-adv-x="354" 
d="M267 -149h-247v128h110v612h-110v128h247v-868z" />
    <glyph glyph-name="braceleft" unicode="{" horiz-adv-x="395" 
d="M299 -159q-90 0 -130.5 38.5t-40.5 124.5v165q0 23 -10 32.5t-33 9.5h-43v138h43q23 0 33 9.5t10 32.5v165q0 86 40.5 124.5t130.5 38.5h76v-128h-110v-212q0 -83 -74 -99q38 -9 56 -33.5t18 -65.5v-212h110v-128h-76z" />
    <glyph glyph-name="braceright" unicode="}" horiz-adv-x="395" 
d="M20 -31h110v212q0 42 17.5 66t55.5 33q-37 8 -55 32.5t-18 66.5v212h-110v128h76q90 0 130.5 -38.5t40.5 -124.5v-165q0 -23 10 -32.5t33 -9.5h43v-138h-43q-23 0 -33 -9.5t-10 -32.5v-165q0 -86 -40.5 -124.5t-130.5 -38.5h-76v128z" />
    <glyph glyph-name="bullet" unicode="&#x2022;" horiz-adv-x="374" 
d="M187 125q-59 0 -97 36t-38 91t38 91t97 36t97 -36t38 -91t-38 -91t-97 -36z" />
    <glyph glyph-name="guilsinglleft" unicode="&#x2039;" horiz-adv-x="364" 
d="M309 80h-156l-121 172l121 172h155l-120 -172z" />
    <glyph glyph-name="guilsinglright" unicode="&#x203a;" horiz-adv-x="364" 
d="M211 424l121 -172l-121 -172h-155l119 171l-120 173h156z" />
    <glyph glyph-name="guillemotleft" unicode="&#xab;" horiz-adv-x="614" 
d="M309 80h-156l-121 172l121 172h155l-120 -172zM559 80h-156l-121 172l121 172h155l-120 -172z" />
    <glyph glyph-name="guillemotright" unicode="&#xbb;" horiz-adv-x="614" 
d="M211 424l121 -172l-121 -172h-155l119 171l-120 173h156zM461 424l121 -172l-121 -172h-155l119 171l-120 173h156z" />
    <glyph glyph-name="at" unicode="@" horiz-adv-x="1002" 
d="M728 105q60 0 88.5 42t28.5 130q0 87 -44.5 154.5t-120 104t-168.5 36.5q-104 0 -185.5 -46.5t-125.5 -125t-44 -174.5q0 -102 47.5 -181t128 -122t179.5 -43q80 0 152.5 22.5t117.5 61.5l47 -78q-45 -46 -133 -74.5t-184 -28.5q-137 0 -241.5 58t-160.5 158.5t-56 226.5
q0 129 62.5 231t166.5 157.5t229 55.5q128 0 228 -52.5t154 -141.5t54 -198q0 -83 -27.5 -143.5t-77 -92.5t-115.5 -32h-50q-65 0 -71 60q-19 -36 -53.5 -55t-81.5 -19q-86 0 -139 63t-53 165q0 70 24.5 122t68 79.5t99.5 27.5q42 0 75.5 -19t53.5 -54v62h110v-337h17z
M497 104q42 0 67.5 32.5t25.5 87.5t-25 88t-68 33q-41 0 -66 -33.5t-25 -87.5q0 -53 25.5 -86.5t65.5 -33.5z" />
    <glyph glyph-name="periodcentered" unicode="&#xb7;" horiz-adv-x="274" 
d="M137 172q-37 0 -61 22.5t-24 57.5t24 57.5t61 22.5t61 -22.5t24 -57.5t-24 -57.5t-61 -22.5z" />
    <glyph glyph-name="A" unicode="A" horiz-adv-x="667" 
d="M415 670l250 -670h-161l-46 141h-251l-45 -141h-160l250 670h163zM246 261h173l-87 267z" />
    <glyph glyph-name="B" unicode="B" horiz-adv-x="646" 
d="M74 670h262q101 0 160.5 -46.5t59.5 -124.5q0 -84 -71 -130q123 -43 123 -167q0 -97 -66.5 -149.5t-192.5 -52.5h-275v670zM344 119q57 0 86.5 22t29.5 65q0 42 -30 66t-84 24h-125v-177h123zM325 410q42 0 65.5 19t23.5 53t-23 52.5t-65 18.5h-105v-143h104z" />
    <glyph glyph-name="C" unicode="C" horiz-adv-x="689" 
d="M404 686q72 0 135.5 -20.5t106.5 -57.5l-65 -115q-32 26 -76 40t-92 14q-95 0 -152.5 -57.5t-57.5 -154.5q0 -96 57.5 -154t152.5 -58q106 0 176 63l61 -113q-37 -40 -103.5 -64.5t-140.5 -24.5q-108 0 -190 44.5t-125.5 122.5t-43.5 178q0 109 46 190t126.5 124
t184.5 43z" />
    <glyph glyph-name="D" unicode="D" horiz-adv-x="719" 
d="M74 670h248q108 0 187.5 -41t121 -116t41.5 -178q0 -106 -43 -181t-122 -114.5t-185 -39.5h-248v670zM320 135q95 0 145.5 51.5t50.5 148.5t-50.5 148.5t-145.5 51.5h-96v-400h96z" />
    <glyph glyph-name="E" unicode="E" 
d="M74 0v670h471v-132h-323v-130h281v-131h-281v-145h333v-132h-481z" />
    <glyph glyph-name="F" unicode="F" horiz-adv-x="583" 
d="M74 0v670h467v-132h-319v-159h277v-132h-277v-247h-148z" />
    <glyph glyph-name="G" unicode="G" horiz-adv-x="713" 
d="M523 246h-128v128h188q46 0 62 -15t16 -60v-246q-102 -69 -253 -69q-111 0 -192.5 44.5t-125 123.5t-43.5 182q0 107 45 187t124.5 122.5t183.5 42.5q74 0 138.5 -25t105.5 -69l-80 -103q-32 29 -73 44.5t-86 15.5q-95 0 -150 -57t-55 -155q0 -103 56.5 -160.5
t156.5 -57.5q69 0 110 17v110z" />
    <glyph glyph-name="H" unicode="H" horiz-adv-x="737" 
d="M74 0v670h150v-260h289v260h150v-670h-150v271h-289v-271h-150z" />
    <glyph glyph-name="I" unicode="I" horiz-adv-x="298" 
d="M224 0h-150v670h150v-670z" />
    <glyph glyph-name="J" unicode="J" horiz-adv-x="484" 
d="M337 670q46 0 62 -15t16 -60v-378q0 -116 -57 -174.5t-168 -58.5q-54 0 -100 14t-79 41l50 119q19 -15 49.5 -25t58.5 -10q51 0 73.5 22.5t22.5 71.5v321h-174v132h246z" />
    <glyph glyph-name="K" unicode="K" horiz-adv-x="683" 
d="M455 670h185l-242 -290l285 -380h-186l-194 267l-81 -97v-170h-148v670h148v-303z" />
    <glyph glyph-name="L" unicode="L" horiz-adv-x="564" 
d="M74 0v670h150v-531h311v-139h-461z" />
    <glyph glyph-name="M" unicode="M" horiz-adv-x="860" 
d="M372 150l-157 269v-419h-141v670h147l210 -362l208 362h147v-670h-143v418l-155 -268h-116z" />
    <glyph glyph-name="N" unicode="N" horiz-adv-x="725" 
d="M74 0v670h144l289 -430v430h144v-670h-144l-289 429v-429h-144z" />
    <glyph glyph-name="O" unicode="O" horiz-adv-x="776" 
d="M388 -16q-102 0 -180 46t-119.5 125.5t-41.5 179.5q0 105 44.5 185t121.5 123t175 43q102 0 180 -46t119.5 -125.5t41.5 -179.5q0 -105 -44.5 -185t-121.5 -123t-175 -43zM388 123q83 0 134 58.5t51 153.5t-51 153.5t-134 58.5t-134 -58.5t-51 -153.5t51 -153.5
t134 -58.5z" />
    <glyph glyph-name="P" unicode="P" horiz-adv-x="616" 
d="M74 0v670h225q137 0 209.5 -58t72.5 -166q0 -109 -72.5 -166.5t-208.5 -57.5h-79v-222h-147zM313 354q56 0 87 24t31 68t-31 68t-87 24h-92v-184h92z" />
    <glyph glyph-name="Q" unicode="Q" horiz-adv-x="776" 
d="M388 -16q-102 0 -180 46t-119.5 125.5t-41.5 179.5q0 105 44.5 185t121.5 123t175 43q102 0 180 -46t119.5 -125.5t41.5 -179.5q0 -90 -34 -163t-97 -121l74 -102l-99 -73l-87 122q-52 -14 -98 -14zM573 335q0 64 -24 112t-65.5 74t-95.5 26q-83 0 -134 -58.5t-51 -153.5
q0 -96 51.5 -154.5t134.5 -58.5h8l-45 63l99 73l62 -88q29 29 44.5 71.5t15.5 93.5z" />
    <glyph glyph-name="R" unicode="R" horiz-adv-x="632" 
d="M74 670h221q136 0 210 -56.5t74 -161.5q0 -64 -30.5 -112t-86.5 -74l167 -266h-172l-139 237h-97v-237h-147v670zM310 364q119 0 119 87q0 43 -30.5 65t-89.5 22h-88v-174h89z" />
    <glyph glyph-name="S" unicode="S" horiz-adv-x="596" 
d="M481 504q-86 50 -181 50q-47 0 -73 -17.5t-26 -50.5q0 -54 81 -69l79 -15q102 -20 150.5 -69.5t48.5 -132.5q0 -103 -69.5 -159.5t-195.5 -56.5q-145 0 -255 76l48 119q55 -30 110 -46t102 -16q108 0 108 68q0 32 -18.5 49t-61.5 25l-85 16q-95 19 -143.5 70t-48.5 132
q0 64 32.5 111.5t89 72.5t129.5 25q132 0 233 -71z" />
    <glyph glyph-name="T" unicode="T" horiz-adv-x="620" 
d="M235 0v535h-203v135h556v-135h-203v-535h-150z" />
    <glyph glyph-name="U" unicode="U" horiz-adv-x="720" 
d="M361 123q76 0 109 44.5t33 147.5v355h150v-385q0 -147 -74.5 -224t-217.5 -77t-217.5 77t-74.5 224v385h150v-355q0 -103 33 -147.5t109 -44.5z" />
    <glyph glyph-name="V" unicode="V" horiz-adv-x="664" 
d="M254 0l-246 670h168l158 -493l157 493h165l-247 -670h-155z" />
    <glyph glyph-name="W" unicode="W" horiz-adv-x="936" 
d="M205 0l-187 670h166l106 -466l104 392h145l112 -394l105 468h162l-187 -670h-150l-116 390l-111 -390h-149z" />
    <glyph glyph-name="X" unicode="X" horiz-adv-x="656" 
d="M458 0l-139 230l-128 -230h-175l215 341l-205 329h182l126 -216l121 216h175l-209 -327l219 -343h-182z" />
    <glyph glyph-name="Y" unicode="Y" horiz-adv-x="668" 
d="M409 0h-150v230l-251 440h170l158 -301l157 301h167l-251 -440v-230z" />
    <glyph glyph-name="Z" unicode="Z" horiz-adv-x="624" 
d="M574 132v-132h-532v122l334 416h-321v132h513v-122l-335 -416h341z" />
    <glyph glyph-name="a" unicode="a" horiz-adv-x="574" 
d="M460 0q-37 0 -57.5 14t-26.5 45q-24 -36 -66.5 -55t-96.5 -19q-81 0 -128 42.5t-47 115.5q0 82 60 127.5t170 45.5h81q-3 49 -29.5 71t-81.5 22q-69 0 -133 -39l-40 93q35 26 85.5 41t106.5 15q110 0 171 -56.5t61 -157.5v-190h61v-115h-90zM172 159q0 -32 20.5 -49.5
t57.5 -17.5q45 0 72.5 28t27.5 75v30h-71q-56 0 -81.5 -16t-25.5 -50z" />
    <glyph glyph-name="b" unicode="b" horiz-adv-x="633" 
d="M60 0v719h141v-281q27 40 68.5 60.5t92.5 20.5q69 0 122 -35t81.5 -95.5t28.5 -136.5q0 -80 -30.5 -141t-83 -93.5t-118.5 -32.5q-52 0 -94.5 21.5t-70.5 60.5v-67h-137zM324 108q56 0 91 40t35 104t-35 104t-91 40q-58 0 -94 -40t-36 -104t36 -104t94 -40z" />
    <glyph glyph-name="c" unicode="c" horiz-adv-x="522" 
d="M307 -15q-122 0 -195 71.5t-73 191.5q0 82 35 144t96 94.5t139 32.5q117 0 192 -75l-63 -95q-49 48 -121 48q-61 0 -97.5 -39.5t-36.5 -105.5q0 -65 36.5 -104.5t96.5 -39.5q36 0 72 13t58 33l56 -101q-35 -31 -87.5 -49.5t-107.5 -18.5z" />
    <glyph glyph-name="d" unicode="d" horiz-adv-x="633" 
d="M436 0v67q-20 -26 -46 -44.5t-56 -28t-63 -9.5q-69 0 -122 35t-81.5 95.5t-28.5 136.5q0 80 30.5 141t83 93.5t118.5 32.5q51 0 92.5 -20.5t68.5 -60.5v281h141v-719h-137zM309 108q58 0 94 40t36 104t-36 104t-94 40q-56 0 -91 -40t-35 -104t35 -104t91 -40z" />
    <glyph glyph-name="e" unicode="e" horiz-adv-x="562" 
d="M519 42q-33 -27 -85.5 -42t-114.5 -15q-131 0 -205.5 71.5t-74.5 195.5q0 81 33.5 141.5t91 93t130.5 32.5q106 0 167.5 -65.5t61.5 -178.5v-60h-343q9 -56 46 -86t97 -30q40 0 82.5 12t69.5 30zM291 409q-45 0 -74 -26.5t-36 -75.5h212q-3 49 -29.5 75.5t-72.5 26.5z
" />
    <glyph glyph-name="f" unicode="f" horiz-adv-x="413" 
d="M108 0v390h-83v115h83v12q0 104 54 160.5t152 56.5q25 0 52.5 -7t46.5 -17l-27 -107q-27 12 -51 12q-86 0 -86 -95v-15h140v-115h-140v-390h-141z" />
    <glyph glyph-name="g" unicode="g" horiz-adv-x="633" 
d="M438 86q-27 -42 -69.5 -64.5t-94.5 -22.5q-70 0 -123.5 34.5t-82.5 93.5t-29 132q0 77 31 136.5t83.5 91.5t118.5 32q50 0 92.5 -21t71.5 -60v67h137v-447q0 -138 -74.5 -206.5t-224.5 -68.5q-53 0 -104.5 15t-81.5 38l38 106q31 -19 69.5 -29.5t75.5 -10.5
q85 0 126 37.5t41 115.5v31zM310 121q56 0 92.5 39t36.5 99q0 61 -36.5 100.5t-92.5 39.5t-91.5 -39.5t-35.5 -100.5t35.5 -99.5t91.5 -38.5z" />
    <glyph glyph-name="h" unicode="h" horiz-adv-x="593" 
d="M395 0v293q0 104 -91 104q-49 0 -76 -33t-27 -95v-269h-141v719h141v-276q24 37 61 56.5t84 19.5q89 0 139.5 -57.5t50.5 -159.5v-302h-141z" />
    <glyph glyph-name="i" unicode="i" horiz-adv-x="299" 
d="M99 0v390h-73v115h136q40 0 59 -19t19 -59v-427h-141zM157 560q-38 0 -62 23t-24 58t24 58t62 23t62 -23t24 -58t-24 -58t-62 -23z" />
    <glyph glyph-name="j" unicode="j" horiz-adv-x="299" 
d="M26 505h136q40 0 59 -19t19 -59v-459q0 -88 -47.5 -136.5t-132.5 -48.5q-24 0 -47 5.5t-38 14.5l22 104q18 -8 36 -8q66 0 66 78v413h-73v115zM157 560q-38 0 -62 23t-24 58t24 58t62 23t62 -23t24 -58t-24 -58t-62 -23z" />
    <glyph glyph-name="k" unicode="k" horiz-adv-x="578" 
d="M379 505h168l-197 -208l228 -297h-176l-144 199l-59 -63v-136h-139v719h139v-414z" />
    <glyph glyph-name="l" unicode="l" horiz-adv-x="261" 
d="M60 0v719h141v-719h-141z" />
    <glyph glyph-name="m" unicode="m" horiz-adv-x="912" 
d="M342 519q51 0 88.5 -26.5t57.5 -76.5q25 50 72 76.5t109 26.5q87 0 136.5 -57.5t49.5 -159.5v-302h-141v293q0 104 -87 104q-47 0 -73 -31.5t-26 -90.5v-275h-141v293q0 104 -87 104q-47 0 -73 -33t-26 -95v-269h-141v505h129v-69q23 40 62.5 61.5t90.5 21.5z" />
    <glyph glyph-name="n" unicode="n" horiz-adv-x="593" 
d="M395 0v293q0 104 -91 104q-49 0 -76 -33t-27 -95v-269h-141v505h129v-71q25 42 65.5 63.5t91.5 21.5q89 0 139.5 -57.5t50.5 -159.5v-302h-141z" />
    <glyph glyph-name="o" unicode="o" horiz-adv-x="624" 
d="M312 -15q-82 0 -144 35.5t-95.5 96t-33.5 135.5q0 80 36 140.5t98 93.5t139 33q82 0 144 -35.5t95.5 -96t33.5 -135.5q0 -80 -36 -140.5t-98 -93.5t-139 -33zM312 108q56 0 92.5 40t36.5 104t-36.5 104t-92.5 40t-92.5 -40t-36.5 -104t36.5 -104t92.5 -40z" />
    <glyph glyph-name="p" unicode="p" horiz-adv-x="633" 
d="M60 -202v707h137v-68q28 39 70.5 60.5t94.5 21.5q69 0 122 -35t81.5 -95.5t28.5 -136.5q0 -80 -30.5 -141t-83 -93.5t-118.5 -32.5q-52 0 -93.5 20.5t-67.5 60.5v-268h-141zM324 108q56 0 91 40t35 104t-35 104t-91 40q-58 0 -94 -40t-36 -104t36 -104t94 -40z" />
    <glyph glyph-name="q" unicode="q" horiz-adv-x="633" 
d="M432 -202v268q-26 -39 -67.5 -60t-93.5 -21q-69 0 -122 35t-81.5 95.5t-28.5 136.5q0 80 30.5 141t83 93.5t118.5 32.5q34 0 64 -9.5t55.5 -28t45.5 -44.5v68h137v-707h-141zM309 108q58 0 94 40t36 104t-36 104t-94 40q-56 0 -91 -40t-35 -104t35 -104t91 -40z" />
    <glyph glyph-name="r" unicode="r" horiz-adv-x="409" 
d="M385 376q-21 6 -56 6q-61 0 -94.5 -36t-33.5 -100v-246h-141v505h129v-90q21 47 59.5 72.5t88.5 25.5q27 0 48 -8v-129z" />
    <glyph glyph-name="s" unicode="s" horiz-adv-x="525" 
d="M260 -15q-62 0 -122 15.5t-97 40.5l37 106q30 -21 83 -35.5t97 -14.5q39 0 60 12t21 35q0 34 -59 45l-70 12q-163 28 -163 155q0 75 57 119t154 44q60 0 111 -14.5t87 -40.5l-40 -97q-34 19 -75 29.5t-79 10.5q-37 0 -57 -10.5t-20 -30.5q0 -30 52 -39l63 -12
q93 -17 135 -55t42 -105q0 -80 -57.5 -125t-159.5 -45z" />
    <glyph glyph-name="t" unicode="t" horiz-adv-x="447" 
d="M289 -15q-89 0 -135 48.5t-46 142.5v214h-83v115h51q23 0 33 9.5t10 32.5v84h130v-126h147v-115h-147v-197q0 -47 16.5 -68t54.5 -21q39 0 77 17l23 -105q-23 -15 -57.5 -23t-73.5 -8z" />
    <glyph glyph-name="u" unicode="u" horiz-adv-x="591" 
d="M247 -15q-89 0 -139.5 58t-50.5 160v302h141v-294q0 -104 90 -104q50 0 76 33t26 95v270h141v-505h-129v68q-24 -40 -63.5 -61.5t-91.5 -21.5z" />
    <glyph glyph-name="v" unicode="v" horiz-adv-x="545" 
d="M208 0l-206 505h153l119 -347l120 347h150l-207 -505h-129z" />
    <glyph glyph-name="w" unicode="w" horiz-adv-x="817" 
d="M508 0l-100 313l-99 -313h-132l-165 505h155l84 -341l96 335h128l96 -337l85 343h149l-165 -505h-132z" />
    <glyph glyph-name="x" unicode="x" horiz-adv-x="546" 
d="M10 0l181 255l-171 250h165l93 -153l86 153h162l-171 -251l181 -254h-165l-104 159l-95 -159h-162z" />
    <glyph glyph-name="y" unicode="y" horiz-adv-x="545" 
d="M340 -1q-25 -62 -48.5 -101.5t-52.5 -64.5t-65.5 -37.5t-84.5 -12.5q-29 0 -55 6t-38 14l20 117q30 -13 67 -13q46 0 72 19.5t46 63.5l7 16l-209 499h153l120 -338l119 338h150z" />
    <glyph glyph-name="z" unicode="z" horiz-adv-x="492" 
d="M457 115v-115h-420v102l243 288h-231v115h406v-100l-245 -290h247z" />
    <glyph glyph-name="a.subs" horiz-adv-x="412" 
d="M154 -123q-50 0 -79 26t-29 70q0 51 37.5 78t106.5 27h43q-3 23 -16.5 32.5t-43.5 9.5q-38 0 -82 -22l-28 67q25 16 58 25.5t67 9.5q68 0 107 -34t39 -96v-106h37v-77h-61q-46 0 -58 31q-32 -41 -98 -41zM186 -50q23 0 36.5 15.5t13.5 41.5v10h-39q-23 0 -36 -8.5
t-13 -23.5q0 -35 38 -35z" />
    <glyph glyph-name="b.subs" horiz-adv-x="444" 
d="M54 318h109v-158q16 19 40.5 29.5t54.5 10.5q64 0 103 -44.5t39 -116.5t-39 -117t-103 -45q-58 0 -95 40v-30h-109v431zM225 -29q29 0 46.5 19t17.5 49t-17.5 48.5t-46.5 18.5t-47 -18.5t-18 -48.5q0 -31 18 -49.5t47 -18.5z" />
    <glyph glyph-name="c.subs" horiz-adv-x="379" 
d="M219 -123q-79 0 -126 43t-47 115q0 75 48 120t127 45q72 0 123 -49l-48 -71q-28 27 -68 27q-33 0 -52 -18.5t-19 -49.5q0 -30 19 -49t51 -19q20 0 41 7.5t33 18.5l43 -77q-23 -19 -57 -31t-68 -12z" />
    <glyph glyph-name="d.subs" horiz-adv-x="444" 
d="M283 -113v31q-38 -41 -94 -41q-64 0 -103.5 45t-39.5 117q0 73 39.5 117t103.5 44q58 0 91 -40v158h109v-431h-106zM221 -29q30 0 47.5 18.5t17.5 49.5q0 30 -17.5 48.5t-47.5 18.5q-29 0 -46.5 -18.5t-17.5 -48.5t17.5 -49t46.5 -19z" />
    <glyph glyph-name="e.subs" horiz-adv-x="403" 
d="M225 -123q-86 0 -135 43t-49 118q0 73 46 117.5t122 44.5q71 0 111.5 -39.5t40.5 -108.5v-44h-215q12 -49 83 -49q24 0 51 7t43 18l30 -71q-21 -17 -54.5 -26.5t-73.5 -9.5zM148 73h113q-5 50 -54 50q-22 0 -38 -13.5t-21 -36.5z" />
    <glyph glyph-name="f.subs" horiz-adv-x="316" 
d="M39 104v87h50v5q0 61 36 96.5t101 35.5q16 0 35 -5t33 -12l-21 -81q-19 8 -32 8q-21 0 -32 -11t-11 -31v-5h79v-87h-79v-217h-109v217h-50z" />
    <glyph glyph-name="g.subs" horiz-adv-x="444" 
d="M207 -245q-70 0 -130 33l26 72q44 -23 90 -23q45 0 66 18t21 58v4q-35 -40 -91 -40q-64 0 -103.5 45t-39.5 117t39.5 116.5t103.5 44.5q56 0 94 -40v31h106v-266q0 -164 -182 -170zM221 -29q30 0 47.5 18.5t17.5 49.5t-18 49t-47 18t-46.5 -18.5t-17.5 -48.5t17.5 -49
t46.5 -19z" />
    <glyph glyph-name="h.subs" horiz-adv-x="419" 
d="M256 -113v175q0 45 -44 45q-48 0 -48 -63v-157h-109v431h109v-158q15 19 36.5 29.5t46.5 10.5q54 0 86 -35t32 -96v-182h-109z" />
    <glyph glyph-name="i.subs" horiz-adv-x="245" 
d="M81 -113v217h-42v87h97q54 0 54 -53v-251h-109zM128 217q-28 0 -45.5 15t-17.5 40t17.5 40.5t45.5 15.5t46 -15.5t18 -40.5q0 -24 -17.5 -39.5t-46.5 -15.5z" />
    <glyph glyph-name="j.subs" horiz-adv-x="245" 
d="M69 -244q-35 0 -58 14l17 78q8 -4 18 -4q33 0 33 36v224h-42v87h96q55 0 55 -53v-265q0 -54 -32 -85.5t-87 -31.5zM125 217q-28 0 -45.5 15t-17.5 40t17.5 40.5t45.5 15.5t46 -15.5t18 -40.5q0 -24 -17.5 -39.5t-46.5 -15.5z" />
    <glyph glyph-name="k.subs" horiz-adv-x="426" 
d="M57 -113v431h109v-233l91 106h126l-111 -119l118 -185h-126l-62 108l-36 -39v-69h-109z" />
    <glyph glyph-name="l.subs" horiz-adv-x="219" 
d="M55 -113v431h109v-431h-109z" />
    <glyph glyph-name="m.subs" horiz-adv-x="612" 
d="M245 200q29 0 51 -14.5t35 -42.5q34 57 111 57q54 0 85 -35t31 -96v-182h-109v175q0 45 -42 45q-46 0 -46 -60v-160h-109v175q0 45 -42 45q-46 0 -46 -66v-154h-109v304h99v-37q14 23 37.5 34.5t53.5 11.5z" />
    <glyph glyph-name="n.subs" horiz-adv-x="419" 
d="M256 -113v175q0 45 -44 45q-48 0 -48 -63v-157h-109v304h99v-39q32 48 93 48q54 0 86 -35t32 -96v-182h-109z" />
    <glyph glyph-name="o.subs" horiz-adv-x="442" 
d="M221 -123q-77 0 -126 45t-49 117t49 116.5t126 44.5t126 -44.5t49 -116.5t-49 -117t-126 -45zM221 -29q29 0 46.5 19t17.5 49t-17.5 48.5t-46.5 18.5t-46.5 -18.5t-17.5 -48.5t17.5 -49t46.5 -19z" />
    <glyph glyph-name="p.subs" horiz-adv-x="444" 
d="M55 191h106v-31q35 40 95 40q64 0 103 -44.5t39 -116.5t-39 -117t-103 -45q-58 0 -92 40v-151h-109v425zM223 -29q29 0 46.5 19t17.5 49t-17.5 48.5t-46.5 18.5t-47 -18.5t-18 -48.5q0 -31 18 -49.5t47 -18.5z" />
    <glyph glyph-name="q.subs" horiz-adv-x="444" 
d="M280 -234v151q-33 -40 -91 -40q-64 0 -103.5 45t-39.5 117q0 73 39.5 117t103.5 44q56 0 94 -40v31h106v-425h-109zM221 -29q30 0 47.5 18.5t17.5 49.5q0 30 -17.5 48.5t-47.5 18.5q-29 0 -46.5 -18.5t-17.5 -48.5t17.5 -49t46.5 -19z" />
    <glyph glyph-name="r.subs" horiz-adv-x="311" 
d="M272 92q-17 5 -39 5q-33 0 -51 -18t-18 -52v-140h-109v304h99v-51q12 27 34.5 42t51.5 15q19 0 32 -6v-99z" />
    <glyph glyph-name="s.subs" horiz-adv-x="385" 
d="M191 -122q-43 0 -82.5 9.5t-62.5 24.5l26 73q18 -12 53 -21.5t63 -9.5q50 0 50 21q0 17 -32 22l-47 8q-56 9 -82.5 32.5t-26.5 64.5q0 46 38 73.5t102 27.5q81 0 131 -34l-29 -67q-22 11 -49 17.5t-51 6.5q-44 0 -44 -20q0 -14 26 -18l45 -7q61 -10 88.5 -33.5
t27.5 -65.5q0 -49 -38 -76.5t-106 -27.5z" />
    <glyph glyph-name="t.subs" horiz-adv-x="340" 
d="M211 -123q-60 0 -91 31t-31 90v106h-50v87h30q29 0 29 27v49h100v-76h87v-87h-87v-92q0 -24 8.5 -34t29.5 -10q23 0 46 9l17 -80q-35 -20 -88 -20z" />
    <glyph glyph-name="u.subs" horiz-adv-x="418" 
d="M172 -123q-55 0 -86.5 35.5t-31.5 96.5v182h109v-175q0 -46 43 -46q25 0 36 15t11 48v158h110v-304h-99v37q-31 -47 -92 -47z" />
    <glyph glyph-name="v.subs" horiz-adv-x="408" 
d="M25 191h119l61 -183l62 183h117l-130 -304h-100z" />
    <glyph glyph-name="w.subs" horiz-adv-x="558" 
d="M31 191h111l42 -187l52 184h90l51 -186l44 189h106l-100 -304h-93l-55 170l-54 -170h-93z" />
    <glyph glyph-name="x.subs" horiz-adv-x="402" 
d="M137 40l-103 151h128l43 -77l37 77h126l-103 -152l109 -152h-128l-50 79l-42 -79h-126z" />
    <glyph glyph-name="y.subs" horiz-adv-x="407" 
d="M86 -244q-21 0 -39 4t-27 10l16 90q25 -9 47 -9q32 0 49 10.5t21 33.5l-131 296h119l62 -175l61 175h116l-119 -287q-24 -58 -47.5 -88.5t-54.5 -45t-73 -14.5z" />
    <glyph glyph-name="z.subs" horiz-adv-x="360" 
d="M314 -113h-267v76l131 141h-124v87h259v-74l-132 -143h133v-87z" />
    <glyph glyph-name="a.dnom" horiz-adv-x="412" 
d="M154 -10q-50 0 -79 26t-29 70q0 51 37.5 78t106.5 27h43q-3 23 -16.5 32.5t-43.5 9.5q-38 0 -82 -22l-28 67q25 16 58 25.5t67 9.5q68 0 107 -34t39 -96v-106h37v-77h-61q-46 0 -58 31q-32 -41 -98 -41zM186 63q23 0 36.5 15.5t13.5 41.5v10h-39q-23 0 -36 -8.5
t-13 -23.5q0 -35 38 -35z" />
    <glyph glyph-name="b.dnom" horiz-adv-x="444" 
d="M54 431h109v-158q16 19 40.5 29.5t54.5 10.5q64 0 103 -44.5t39 -116.5t-39 -117t-103 -45q-58 0 -95 40v-30h-109v431zM225 84q29 0 46.5 19t17.5 49t-17.5 48.5t-46.5 18.5t-47 -18.5t-18 -48.5q0 -31 18 -49.5t47 -18.5z" />
    <glyph glyph-name="c.dnom" horiz-adv-x="379" 
d="M219 -10q-79 0 -126 43t-47 115q0 75 48 120t127 45q72 0 123 -49l-48 -71q-28 27 -68 27q-33 0 -52 -18.5t-19 -49.5q0 -30 19 -49t51 -19q20 0 41 7.5t33 18.5l43 -77q-23 -19 -57 -31t-68 -12z" />
    <glyph glyph-name="d.dnom" horiz-adv-x="444" 
d="M283 0v31q-38 -41 -94 -41q-64 0 -103.5 45t-39.5 117q0 73 39.5 117t103.5 44q58 0 91 -40v158h109v-431h-106zM221 84q30 0 47.5 18.5t17.5 49.5q0 30 -17.5 48.5t-47.5 18.5q-29 0 -46.5 -18.5t-17.5 -48.5t17.5 -49t46.5 -19z" />
    <glyph glyph-name="e.dnom" horiz-adv-x="403" 
d="M225 -10q-86 0 -135 43t-49 118q0 73 46 117.5t122 44.5q71 0 111.5 -39.5t40.5 -108.5v-44h-215q12 -49 83 -49q24 0 51 7t43 18l30 -71q-21 -17 -54.5 -26.5t-73.5 -9.5zM148 186h113q-5 50 -54 50q-22 0 -38 -13.5t-21 -36.5z" />
    <glyph glyph-name="f.dnom" horiz-adv-x="316" 
d="M39 217v87h50v5q0 61 36 96.5t101 35.5q16 0 35 -5t33 -12l-21 -81q-19 8 -32 8q-21 0 -32 -11t-11 -31v-5h79v-87h-79v-217h-109v217h-50z" />
    <glyph glyph-name="g.dnom" horiz-adv-x="444" 
d="M207 -132q-70 0 -130 33l26 72q44 -23 90 -23q45 0 66 18t21 58v4q-35 -40 -91 -40q-64 0 -103.5 45t-39.5 117t39.5 116.5t103.5 44.5q56 0 94 -40v31h106v-266q0 -164 -182 -170zM221 84q30 0 47.5 18.5t17.5 49.5t-18 49t-47 18t-46.5 -18.5t-17.5 -48.5t17.5 -49
t46.5 -19z" />
    <glyph glyph-name="h.dnom" horiz-adv-x="419" 
d="M256 0v175q0 45 -44 45q-48 0 -48 -63v-157h-109v431h109v-158q15 19 36.5 29.5t46.5 10.5q54 0 86 -35t32 -96v-182h-109z" />
    <glyph glyph-name="i.dnom" horiz-adv-x="245" 
d="M81 0v217h-42v87h97q54 0 54 -53v-251h-109zM128 330q-28 0 -45.5 15t-17.5 40t17.5 40.5t45.5 15.5t46 -15.5t18 -40.5q0 -24 -17.5 -39.5t-46.5 -15.5z" />
    <glyph glyph-name="j.dnom" horiz-adv-x="245" 
d="M69 -131q-35 0 -58 14l17 78q8 -4 18 -4q33 0 33 36v224h-42v87h96q55 0 55 -53v-265q0 -54 -32 -85.5t-87 -31.5zM125 330q-28 0 -45.5 15t-17.5 40t17.5 40.5t45.5 15.5t46 -15.5t18 -40.5q0 -24 -17.5 -39.5t-46.5 -15.5z" />
    <glyph glyph-name="k.dnom" horiz-adv-x="425" 
d="M57 0v431h109v-233l91 106h126l-111 -119l118 -185h-126l-62 108l-36 -39v-69h-109z" />
    <glyph glyph-name="l.dnom" horiz-adv-x="219" 
d="M55 0v431h109v-431h-109z" />
    <glyph glyph-name="m.dnom" horiz-adv-x="612" 
d="M245 313q29 0 51 -14.5t35 -42.5q34 57 111 57q54 0 85 -35t31 -96v-182h-109v175q0 45 -42 45q-46 0 -46 -60v-160h-109v175q0 45 -42 45q-46 0 -46 -66v-154h-109v304h99v-37q14 23 37.5 34.5t53.5 11.5z" />
    <glyph glyph-name="n.dnom" horiz-adv-x="419" 
d="M256 0v175q0 45 -44 45q-48 0 -48 -63v-157h-109v304h99v-39q32 48 93 48q54 0 86 -35t32 -96v-182h-109z" />
    <glyph glyph-name="o.dnom" horiz-adv-x="442" 
d="M221 -10q-77 0 -126 45t-49 117t49 116.5t126 44.5t126 -44.5t49 -116.5t-49 -117t-126 -45zM221 84q29 0 46.5 19t17.5 49t-17.5 48.5t-46.5 18.5t-46.5 -18.5t-17.5 -48.5t17.5 -49t46.5 -19z" />
    <glyph glyph-name="p.dnom" horiz-adv-x="444" 
d="M55 304h106v-31q35 40 95 40q64 0 103 -44.5t39 -116.5t-39 -117t-103 -45q-58 0 -92 40v-151h-109v425zM223 84q29 0 46.5 19t17.5 49t-17.5 48.5t-46.5 18.5t-47 -18.5t-18 -48.5q0 -31 18 -49.5t47 -18.5z" />
    <glyph glyph-name="q.dnom" horiz-adv-x="444" 
d="M280 -121v151q-33 -40 -91 -40q-64 0 -103.5 45t-39.5 117q0 73 39.5 117t103.5 44q56 0 94 -40v31h106v-425h-109zM221 84q30 0 47.5 18.5t17.5 49.5q0 30 -17.5 48.5t-47.5 18.5q-29 0 -46.5 -18.5t-17.5 -48.5t17.5 -49t46.5 -19z" />
    <glyph glyph-name="r.dnom" horiz-adv-x="311" 
d="M272 205q-17 5 -39 5q-33 0 -51 -18t-18 -52v-140h-109v304h99v-51q12 27 34.5 42t51.5 15q19 0 32 -6v-99z" />
    <glyph glyph-name="s.dnom" horiz-adv-x="380" 
d="M191 -9q-43 0 -82.5 9.5t-62.5 24.5l26 73q18 -12 53 -21.5t63 -9.5q50 0 50 21q0 17 -32 22l-47 8q-56 9 -82.5 32.5t-26.5 64.5q0 46 38 73.5t102 27.5q81 0 131 -34l-29 -67q-22 11 -49 17.5t-51 6.5q-44 0 -44 -20q0 -14 26 -18l45 -7q61 -10 88.5 -33.5t27.5 -65.5
q0 -49 -38 -76.5t-106 -27.5z" />
    <glyph glyph-name="t.dnom" horiz-adv-x="340" 
d="M211 -10q-60 0 -91 31t-31 90v106h-50v87h30q29 0 29 27v49h100v-76h87v-87h-87v-92q0 -24 8.5 -34t29.5 -10q23 0 46 9l17 -80q-35 -20 -88 -20z" />
    <glyph glyph-name="u.dnom" horiz-adv-x="418" 
d="M172 -10q-55 0 -86.5 35.5t-31.5 96.5v182h109v-175q0 -46 43 -46q25 0 36 15t11 48v158h110v-304h-99v37q-31 -47 -92 -47z" />
    <glyph glyph-name="v.dnom" horiz-adv-x="408" 
d="M25 304h119l61 -183l62 183h117l-130 -304h-100z" />
    <glyph glyph-name="w.dnom" horiz-adv-x="561" 
d="M31 304h111l42 -187l52 184h90l51 -186l44 189h106l-100 -304h-93l-55 170l-54 -170h-93z" />
    <glyph glyph-name="x.dnom" horiz-adv-x="402" 
d="M137 153l-103 151h128l43 -77l37 77h126l-103 -152l109 -152h-128l-50 79l-42 -79h-126z" />
    <glyph glyph-name="y.dnom" horiz-adv-x="407" 
d="M86 -131q-21 0 -39 4t-27 10l16 90q25 -9 47 -9q32 0 49 10.5t21 33.5l-131 296h119l62 -175l61 175h116l-119 -287q-24 -58 -47.5 -88.5t-54.5 -45t-73 -14.5z" />
    <glyph glyph-name="z.dnom" horiz-adv-x="360" 
d="M314 0h-267v76l131 141h-124v87h259v-74l-132 -143h133v-87z" />
    <glyph glyph-name="a.sups" horiz-adv-x="412" 
d="M154 391q-50 0 -79 26t-29 70q0 51 37.5 78t106.5 27h43q-3 23 -16.5 32.5t-43.5 9.5q-38 0 -82 -22l-28 67q25 16 58 25.5t67 9.5q68 0 107 -34t39 -96v-106h37v-77h-61q-46 0 -58 31q-32 -41 -98 -41zM186 464q23 0 36.5 15.5t13.5 41.5v10h-39q-23 0 -36 -8.5
t-13 -23.5q0 -35 38 -35z" />
    <glyph glyph-name="b.sups" horiz-adv-x="444" 
d="M54 832h109v-158q16 19 40.5 29.5t54.5 10.5q64 0 103 -44.5t39 -116.5t-39 -117t-103 -45q-58 0 -95 40v-30h-109v431zM225 485q29 0 46.5 19t17.5 49t-17.5 48.5t-46.5 18.5t-47 -18.5t-18 -48.5q0 -31 18 -49.5t47 -18.5z" />
    <glyph glyph-name="c.sups" horiz-adv-x="379" 
d="M219 391q-79 0 -126 43t-47 115q0 75 48 120t127 45q72 0 123 -49l-48 -71q-28 27 -68 27q-33 0 -52 -18.5t-19 -49.5q0 -30 19 -49t51 -19q20 0 41 7.5t33 18.5l43 -77q-23 -19 -57 -31t-68 -12z" />
    <glyph glyph-name="d.sups" horiz-adv-x="444" 
d="M283 401v31q-38 -41 -94 -41q-64 0 -103.5 45t-39.5 117q0 73 39.5 117t103.5 44q58 0 91 -40v158h109v-431h-106zM221 485q30 0 47.5 18.5t17.5 49.5q0 30 -17.5 48.5t-47.5 18.5q-29 0 -46.5 -18.5t-17.5 -48.5t17.5 -49t46.5 -19z" />
    <glyph glyph-name="e.sups" horiz-adv-x="403" 
d="M225 391q-86 0 -135 43t-49 118q0 73 46 117.5t122 44.5q71 0 111.5 -39.5t40.5 -108.5v-44h-215q12 -49 83 -49q24 0 51 7t43 18l30 -71q-21 -17 -54.5 -26.5t-73.5 -9.5zM148 587h113q-5 50 -54 50q-22 0 -38 -13.5t-21 -36.5z" />
    <glyph glyph-name="f.sups" horiz-adv-x="316" 
d="M39 618v87h50v5q0 61 36 96.5t101 35.5q16 0 35 -5t33 -12l-21 -81q-19 8 -32 8q-21 0 -32 -11t-11 -31v-5h79v-87h-79v-217h-109v217h-50z" />
    <glyph glyph-name="g.sups" horiz-adv-x="444" 
d="M207 269q-70 0 -130 33l26 72q44 -23 90 -23q45 0 66 18t21 58v4q-35 -40 -91 -40q-64 0 -103.5 45t-39.5 117t39.5 116.5t103.5 44.5q56 0 94 -40v31h106v-266q0 -164 -182 -170zM221 485q30 0 47.5 18.5t17.5 49.5t-18 49t-47 18t-46.5 -18.5t-17.5 -48.5t17.5 -49
t46.5 -19z" />
    <glyph glyph-name="h.sups" horiz-adv-x="419" 
d="M256 401v175q0 45 -44 45q-48 0 -48 -63v-157h-109v431h109v-158q15 19 36.5 29.5t46.5 10.5q54 0 86 -35t32 -96v-182h-109z" />
    <glyph glyph-name="i.sups" horiz-adv-x="245" 
d="M81 401v217h-42v87h97q54 0 54 -53v-251h-109zM128 731q-28 0 -45.5 15t-17.5 40t17.5 40.5t45.5 15.5t46 -15.5t18 -40.5q0 -24 -17.5 -39.5t-46.5 -15.5z" />
    <glyph glyph-name="j.sups" horiz-adv-x="245" 
d="M69 270q-35 0 -58 14l17 78q8 -4 18 -4q33 0 33 36v224h-42v87h96q55 0 55 -53v-265q0 -54 -32 -85.5t-87 -31.5zM125 731q-28 0 -45.5 15t-17.5 40t17.5 40.5t45.5 15.5t46 -15.5t18 -40.5q0 -24 -17.5 -39.5t-46.5 -15.5z" />
    <glyph glyph-name="k.sups" horiz-adv-x="425" 
d="M57 401v431h109v-233l91 106h126l-111 -119l118 -185h-126l-62 108l-36 -39v-69h-109z" />
    <glyph glyph-name="l.sups" horiz-adv-x="219" 
d="M55 401v431h109v-431h-109z" />
    <glyph glyph-name="m.sups" horiz-adv-x="612" 
d="M245 714q29 0 51 -14.5t35 -42.5q34 57 111 57q54 0 85 -35t31 -96v-182h-109v175q0 45 -42 45q-46 0 -46 -60v-160h-109v175q0 45 -42 45q-46 0 -46 -66v-154h-109v304h99v-37q14 23 37.5 34.5t53.5 11.5z" />
    <glyph glyph-name="n.sups" horiz-adv-x="419" 
d="M256 401v175q0 45 -44 45q-48 0 -48 -63v-157h-109v304h99v-39q32 48 93 48q54 0 86 -35t32 -96v-182h-109z" />
    <glyph glyph-name="o.sups" horiz-adv-x="442" 
d="M221 391q-77 0 -126 45t-49 117t49 116.5t126 44.5t126 -44.5t49 -116.5t-49 -117t-126 -45zM221 485q29 0 46.5 19t17.5 49t-17.5 48.5t-46.5 18.5t-46.5 -18.5t-17.5 -48.5t17.5 -49t46.5 -19z" />
    <glyph glyph-name="p.sups" horiz-adv-x="444" 
d="M55 705h106v-31q35 40 95 40q64 0 103 -44.5t39 -116.5t-39 -117t-103 -45q-58 0 -92 40v-151h-109v425zM223 485q29 0 46.5 19t17.5 49t-17.5 48.5t-46.5 18.5t-47 -18.5t-18 -48.5q0 -31 18 -49.5t47 -18.5z" />
    <glyph glyph-name="q.sups" horiz-adv-x="444" 
d="M280 280v151q-33 -40 -91 -40q-64 0 -103.5 45t-39.5 117q0 73 39.5 117t103.5 44q56 0 94 -40v31h106v-425h-109zM221 485q30 0 47.5 18.5t17.5 49.5q0 30 -17.5 48.5t-47.5 18.5q-29 0 -46.5 -18.5t-17.5 -48.5t17.5 -49t46.5 -19z" />
    <glyph glyph-name="r.sups" horiz-adv-x="311" 
d="M272 606q-17 5 -39 5q-33 0 -51 -18t-18 -52v-140h-109v304h99v-51q12 27 34.5 42t51.5 15q19 0 32 -6v-99z" />
    <glyph glyph-name="s.sups" horiz-adv-x="380" 
d="M191 392q-43 0 -82.5 9.5t-62.5 24.5l26 73q18 -12 53 -21.5t63 -9.5q50 0 50 21q0 17 -32 22l-47 8q-56 9 -82.5 32.5t-26.5 64.5q0 46 38 73.5t102 27.5q81 0 131 -34l-29 -67q-22 11 -49 17.5t-51 6.5q-44 0 -44 -20q0 -14 26 -18l45 -7q61 -10 88.5 -33.5t27.5 -65.5
q0 -49 -38 -76.5t-106 -27.5z" />
    <glyph glyph-name="t.sups" horiz-adv-x="340" 
d="M211 391q-60 0 -91 31t-31 90v106h-50v87h30q29 0 29 27v49h100v-76h87v-87h-87v-92q0 -24 8.5 -34t29.5 -10q23 0 46 9l17 -80q-35 -20 -88 -20z" />
    <glyph glyph-name="u.sups" horiz-adv-x="418" 
d="M172 391q-55 0 -86.5 35.5t-31.5 96.5v182h109v-175q0 -46 43 -46q25 0 36 15t11 48v158h110v-304h-99v37q-31 -47 -92 -47z" />
    <glyph glyph-name="v.sups" horiz-adv-x="408" 
d="M25 705h119l61 -183l62 183h117l-130 -304h-100z" />
    <glyph glyph-name="w.sups" horiz-adv-x="561" 
d="M31 705h111l42 -187l52 184h90l51 -186l44 189h106l-100 -304h-93l-55 170l-54 -170h-93z" />
    <glyph glyph-name="x.sups" horiz-adv-x="402" 
d="M137 554l-103 151h128l43 -77l37 77h126l-103 -152l109 -152h-128l-50 79l-42 -79h-126z" />
    <glyph glyph-name="y.sups" horiz-adv-x="407" 
d="M86 270q-21 0 -39 4t-27 10l16 90q25 -9 47 -9q32 0 49 10.5t21 33.5l-131 296h119l62 -175l61 175h116l-119 -287q-24 -58 -47.5 -88.5t-54.5 -45t-73 -14.5z" />
    <glyph glyph-name="z.sups" horiz-adv-x="360" 
d="M314 401h-267v76l131 141h-124v87h259v-74l-132 -143h133v-87z" />
    <glyph glyph-name="a.numr" horiz-adv-x="412" 
d="M154 271q-50 0 -79 26t-29 70q0 51 37.5 78t106.5 27h43q-3 23 -16.5 32.5t-43.5 9.5q-38 0 -82 -22l-28 67q25 16 58 25.5t67 9.5q68 0 107 -34t39 -96v-106h37v-77h-61q-46 0 -58 31q-32 -41 -98 -41zM186 344q23 0 36.5 15.5t13.5 41.5v10h-39q-23 0 -36 -8.5
t-13 -23.5q0 -35 38 -35z" />
    <glyph glyph-name="b.numr" horiz-adv-x="444" 
d="M54 712h109v-158q16 19 40.5 29.5t54.5 10.5q64 0 103 -44.5t39 -116.5t-39 -117t-103 -45q-58 0 -95 40v-30h-109v431zM225 365q29 0 46.5 19t17.5 49t-17.5 48.5t-46.5 18.5t-47 -18.5t-18 -48.5q0 -31 18 -49.5t47 -18.5z" />
    <glyph glyph-name="c.numr" horiz-adv-x="379" 
d="M219 271q-79 0 -126 43t-47 115q0 75 48 120t127 45q72 0 123 -49l-48 -71q-28 27 -68 27q-33 0 -52 -18.5t-19 -49.5q0 -30 19 -49t51 -19q20 0 41 7.5t33 18.5l43 -77q-23 -19 -57 -31t-68 -12z" />
    <glyph glyph-name="d.numr" horiz-adv-x="444" 
d="M283 281v31q-38 -41 -94 -41q-64 0 -103.5 45t-39.5 117q0 73 39.5 117t103.5 44q58 0 91 -40v158h109v-431h-106zM221 365q30 0 47.5 18.5t17.5 49.5q0 30 -17.5 48.5t-47.5 18.5q-29 0 -46.5 -18.5t-17.5 -48.5t17.5 -49t46.5 -19z" />
    <glyph glyph-name="e.numr" horiz-adv-x="403" 
d="M225 271q-86 0 -135 43t-49 118q0 73 46 117.5t122 44.5q71 0 111.5 -39.5t40.5 -108.5v-44h-215q12 -49 83 -49q24 0 51 7t43 18l30 -71q-21 -17 -54.5 -26.5t-73.5 -9.5zM148 467h113q-5 50 -54 50q-22 0 -38 -13.5t-21 -36.5z" />
    <glyph glyph-name="f.numr" horiz-adv-x="316" 
d="M39 498v87h50v5q0 61 36 96.5t101 35.5q16 0 35 -5t33 -12l-21 -81q-19 8 -32 8q-21 0 -32 -11t-11 -31v-5h79v-87h-79v-217h-109v217h-50z" />
    <glyph glyph-name="g.numr" horiz-adv-x="444" 
d="M207 149q-70 0 -130 33l26 72q44 -23 90 -23q45 0 66 18t21 58v4q-35 -40 -91 -40q-64 0 -103.5 45t-39.5 117t39.5 116.5t103.5 44.5q56 0 94 -40v31h106v-266q0 -164 -182 -170zM221 365q30 0 47.5 18.5t17.5 49.5t-18 49t-47 18t-46.5 -18.5t-17.5 -48.5t17.5 -49
t46.5 -19z" />
    <glyph glyph-name="h.numr" horiz-adv-x="419" 
d="M256 281v175q0 45 -44 45q-48 0 -48 -63v-157h-109v431h109v-158q15 19 36.5 29.5t46.5 10.5q54 0 86 -35t32 -96v-182h-109z" />
    <glyph glyph-name="i.numr" horiz-adv-x="245" 
d="M81 281v217h-42v87h97q54 0 54 -53v-251h-109zM128 611q-28 0 -45.5 15t-17.5 40t17.5 40.5t45.5 15.5t46 -15.5t18 -40.5q0 -24 -17.5 -39.5t-46.5 -15.5z" />
    <glyph glyph-name="j.numr" horiz-adv-x="245" 
d="M69 150q-35 0 -58 14l17 78q8 -4 18 -4q33 0 33 36v224h-42v87h96q55 0 55 -53v-265q0 -54 -32 -85.5t-87 -31.5zM125 611q-28 0 -45.5 15t-17.5 40t17.5 40.5t45.5 15.5t46 -15.5t18 -40.5q0 -24 -17.5 -39.5t-46.5 -15.5z" />
    <glyph glyph-name="k.numr" horiz-adv-x="425" 
d="M57 281v431h109v-233l91 106h126l-111 -119l118 -185h-126l-62 108l-36 -39v-69h-109z" />
    <glyph glyph-name="l.numr" horiz-adv-x="219" 
d="M55 281v431h109v-431h-109z" />
    <glyph glyph-name="m.numr" horiz-adv-x="612" 
d="M245 594q29 0 51 -14.5t35 -42.5q34 57 111 57q54 0 85 -35t31 -96v-182h-109v175q0 45 -42 45q-46 0 -46 -60v-160h-109v175q0 45 -42 45q-46 0 -46 -66v-154h-109v304h99v-37q14 23 37.5 34.5t53.5 11.5z" />
    <glyph glyph-name="n.numr" horiz-adv-x="419" 
d="M256 281v175q0 45 -44 45q-48 0 -48 -63v-157h-109v304h99v-39q32 48 93 48q54 0 86 -35t32 -96v-182h-109z" />
    <glyph glyph-name="o.numr" horiz-adv-x="442" 
d="M221 271q-77 0 -126 45t-49 117t49 116.5t126 44.5t126 -44.5t49 -116.5t-49 -117t-126 -45zM221 365q29 0 46.5 19t17.5 49t-17.5 48.5t-46.5 18.5t-46.5 -18.5t-17.5 -48.5t17.5 -49t46.5 -19z" />
    <glyph glyph-name="p.numr" horiz-adv-x="444" 
d="M55 585h106v-31q35 40 95 40q64 0 103 -44.5t39 -116.5t-39 -117t-103 -45q-58 0 -92 40v-151h-109v425zM223 365q29 0 46.5 19t17.5 49t-17.5 48.5t-46.5 18.5t-47 -18.5t-18 -48.5q0 -31 18 -49.5t47 -18.5z" />
    <glyph glyph-name="q.numr" horiz-adv-x="444" 
d="M280 160v151q-33 -40 -91 -40q-64 0 -103.5 45t-39.5 117q0 73 39.5 117t103.5 44q56 0 94 -40v31h106v-425h-109zM221 365q30 0 47.5 18.5t17.5 49.5q0 30 -17.5 48.5t-47.5 18.5q-29 0 -46.5 -18.5t-17.5 -48.5t17.5 -49t46.5 -19z" />
    <glyph glyph-name="r.numr" horiz-adv-x="311" 
d="M272 486q-17 5 -39 5q-33 0 -51 -18t-18 -52v-140h-109v304h99v-51q12 27 34.5 42t51.5 15q19 0 32 -6v-99z" />
    <glyph glyph-name="s.numr" horiz-adv-x="380" 
d="M191 272q-43 0 -82.5 9.5t-62.5 24.5l26 73q18 -12 53 -21.5t63 -9.5q50 0 50 21q0 17 -32 22l-47 8q-56 9 -82.5 32.5t-26.5 64.5q0 46 38 73.5t102 27.5q81 0 131 -34l-29 -67q-22 11 -49 17.5t-51 6.5q-44 0 -44 -20q0 -14 26 -18l45 -7q61 -10 88.5 -33.5t27.5 -65.5
q0 -49 -38 -76.5t-106 -27.5z" />
    <glyph glyph-name="t.numr" horiz-adv-x="340" 
d="M211 271q-60 0 -91 31t-31 90v106h-50v87h30q29 0 29 27v49h100v-76h87v-87h-87v-92q0 -24 8.5 -34t29.5 -10q23 0 46 9l17 -80q-35 -20 -88 -20z" />
    <glyph glyph-name="u.numr" horiz-adv-x="418" 
d="M172 271q-55 0 -86.5 35.5t-31.5 96.5v182h109v-175q0 -46 43 -46q25 0 36 15t11 48v158h110v-304h-99v37q-31 -47 -92 -47z" />
    <glyph glyph-name="v.numr" horiz-adv-x="408" 
d="M25 585h119l61 -183l62 183h117l-130 -304h-100z" />
    <glyph glyph-name="w.numr" horiz-adv-x="561" 
d="M31 585h111l42 -187l52 184h90l51 -186l44 189h106l-100 -304h-93l-55 170l-54 -170h-93z" />
    <glyph glyph-name="x.numr" horiz-adv-x="402" 
d="M137 434l-103 151h128l43 -77l37 77h126l-103 -152l109 -152h-128l-50 79l-42 -79h-126z" />
    <glyph glyph-name="y.numr" horiz-adv-x="407" 
d="M86 150q-21 0 -39 4t-27 10l16 90q25 -9 47 -9q32 0 49 10.5t21 33.5l-131 296h119l62 -175l61 175h116l-119 -287q-24 -58 -47.5 -88.5t-54.5 -45t-73 -14.5z" />
    <glyph glyph-name="z.numr" horiz-adv-x="360" 
d="M314 281h-267v76l131 141h-124v87h259v-74l-132 -143h133v-87z" />
    <glyph glyph-name="copyright" unicode="&#xa9;" horiz-adv-x="820" 
d="M425 526q40 0 75.5 -11.5t56.5 -30.5l-37 -70q-37 27 -89 27q-49 0 -78.5 -29t-29.5 -78q0 -48 29 -77t78 -29q57 0 94 34l37 -68q-21 -23 -58 -37t-78 -14q-88 0 -142 51.5t-54 135.5q0 89 54 142.5t142 53.5zM410 -16q-102 0 -184 49t-127 128.5t-45 173.5
q0 101 49.5 181.5t130.5 125t176 44.5q102 0 184 -49t127 -128.5t45 -173.5q0 -101 -49.5 -181.5t-130.5 -125t-176 -44.5zM410 75q77 0 135.5 34.5t90 93t31.5 132.5q0 78 -34 137t-92 91t-131 32q-77 0 -135.5 -34.5t-90 -93t-31.5 -132.5q0 -78 34 -137t92 -91t131 -32z
" />
    <glyph glyph-name="registered" unicode="&#xae;" horiz-adv-x="550" 
d="M275 226q-67 0 -120 32t-82 84t-29 114q0 66 32 119t84.5 82t114.5 29q67 0 120 -32t82 -84t29 -114q0 -66 -32 -119t-84.5 -82t-114.5 -29zM275 288q74 0 119 46.5t45 121.5t-45 121.5t-119 46.5t-119 -46.5t-45 -121.5t45 -121.5t119 -46.5zM190 576h85q48 0 73 -20
t25 -56q0 -23 -11.5 -40.5t-32.5 -26.5l59 -92h-64l-50 83h-27v-83h-57v235zM277 471q21 0 30.5 7t9.5 23q0 14 -9 21t-31 7h-30v-58h30z" />
    <glyph glyph-name="soundcopyright" unicode="&#x2117;" horiz-adv-x="800" 
d="M756 335q0 -101 -49.5 -181.5t-130.5 -125t-176 -44.5q-102 0 -184 49t-127 128.5t-45 173.5q0 101 49.5 181.5t130.5 125t176 44.5q102 0 184 -49t127 -128.5t45 -173.5zM143 335q0 -78 34 -137t92 -91t131 -32q77 0 135.5 34.5t90 93t31.5 132.5q0 78 -34 137t-92 91
t-131 32q-77 0 -135.5 -34.5t-90 -93t-31.5 -132.5zM366 141h-88v382h132q80 0 122.5 -33t42.5 -96q0 -62 -42.5 -95t-122.5 -33h-44v-125zM366 444v-99h51q33 0 50.5 13t17.5 36q0 24 -17.5 37t-50.5 13h-51z" />
    <glyph glyph-name="servicemark" unicode="&#x2120;" horiz-adv-x="801" 
d="M524 368l-78 130v-197h-99v369h98l115 -193l105 193h99v-369h-100v199l-72 -132h-68zM297 415q0 -58 -39 -90.5t-109 -32.5q-80 0 -145 43l29 74q66 -34 119 -34q49 0 49 30q0 14 -7.5 21t-26.5 11l-51 10q-106 22 -106 114q0 53 38.5 85.5t102.5 32.5q72 0 131 -40
l-33 -70q-48 27 -100 27q-45 0 -45 -30q0 -24 35 -30l47 -9q57 -11 84 -38.5t27 -73.5z" />
    <glyph glyph-name="trademark" unicode="&#x2122;" horiz-adv-x="887" 
d="M583 368l-78 130v-197h-99v369h98l115 -193l105 193h99v-369h-100v199l-72 -132h-68zM131 301v273h-105v96h318v-96h-105v-273h-108z" />
    <glyph glyph-name="ordfeminine" unicode="&#xaa;" horiz-adv-x="424" 
d="M330 354q-29 0 -44 12t-18 37q-26 -58 -101 -58q-57 0 -90 27.5t-33 73.5q0 53 40 82t113 29h55q-1 29 -16.5 41t-53.5 12q-46 0 -92 -24l-26 67q50 33 134 33q74 0 113.5 -33.5t39.5 -95.5v-122h42v-81h-63zM53 294h341v-95h-341v95zM139 457q0 -17 14 -27.5t40 -10.5
q28 0 43.5 18t15.5 49v10h-47q-66 0 -66 -39z" />
    <glyph glyph-name="ordmasculine" unicode="&#xba;" horiz-adv-x="431" 
d="M215 345q-79 0 -125 46.5t-46 124.5q0 77 46 123.5t125 46.5t125 -46.5t46 -123.5q0 -78 -46 -124.5t-125 -46.5zM215 431q34 0 51.5 22t17.5 63t-17.5 62.5t-51.5 21.5t-51.5 -21.5t-17.5 -62.5t17.5 -63t51.5 -22zM50 294h330v-95h-330v95z" />
    <glyph glyph-name="litre" unicode="&#x2113;" horiz-adv-x="488" 
d="M473 581q0 -94 -54 -169.5t-167 -139.5v-89q0 -39 21.5 -59t62.5 -20q34 0 76 16v-113q-49 -23 -117 -23q-54 0 -95.5 24t-63.5 66.5t-22 99.5v22l-74 -41v128l74 45v261q0 90 47.5 139.5t131.5 49.5q80 0 130 -54.5t50 -142.5zM252 588v-176q80 52 80 169q0 45 -9.5 64
t-29.5 19q-41 0 -41 -76z" />
    <glyph glyph-name="estimated" unicode="&#x212e;" horiz-adv-x="883" 
d="M779 132q-114 -145 -338 -145q-115 0 -204 47t-138 126t-49 176q0 103 52.5 182.5t142.5 122t202 42.5q116 0 204 -48t135 -130.5t47 -186.5h-620v-188q89 -101 236 -101q146 0 231 103h99zM213 531v-170h463v170q-82 110 -233 110q-152 0 -230 -110z" />
    <glyph glyph-name="numero" unicode="&#x2116;" horiz-adv-x="1128" 
d="M74 0v670h144l289 -430v430h144v-670h-144l-289 429v-429h-144zM912 345q-79 0 -125 46.5t-46 124.5q0 77 46 123.5t125 46.5t125 -46.5t46 -123.5q0 -78 -46 -124.5t-125 -46.5zM912 431q34 0 51.5 22t17.5 63t-17.5 62.5t-51.5 21.5t-51.5 -21.5t-17.5 -62.5t17.5 -63
t51.5 -22zM747 294h330v-95h-330v95z" />
    <glyph glyph-name="careof" unicode="&#x2105;" horiz-adv-x="873" 
d="M679 670l-400 -670h-117l400 670h117zM652 -3q-77 0 -126 45t-49 117t49 116.5t126 44.5t126 -44.5t49 -116.5t-49 -117t-126 -45zM652 91q29 0 46.5 19t17.5 49t-17.5 48.5t-46.5 18.5t-46.5 -18.5t-17.5 -48.5t17.5 -49t46.5 -19zM219 358q-79 0 -126 43t-47 115
q0 75 48 120t127 45q72 0 123 -49l-48 -71q-28 27 -68 27q-33 0 -52 -18.5t-19 -49.5q0 -30 19 -49t51 -19q20 0 41 7.5t33 18.5l43 -77q-23 -19 -57 -31t-68 -12z" />
    <glyph glyph-name="lozenge" unicode="&#x25ca;" 
d="M217 0l-190 336l190 334h165l190 -334l-190 -336h-165zM175 335l123 -225l124 225l-124 225z" />
    <glyph glyph-name="female" unicode="&#x2640;" 
d="M245 -47v118h-126v105h126v81q-81 17 -130 75t-49 137q0 63 31.5 113t84.5 77t119 27q69 0 122.5 -29t82.5 -78.5t29 -109.5q0 -53 -22.5 -97t-62 -73.5t-91.5 -40.5v-82h126v-105h-126v-118h-114zM301 362q45 0 74 30t29 77t-29 77t-74 30t-74 -30t-29 -77t29 -77
t74 -30z" />
    <glyph glyph-name="male" unicode="&#x2642;" horiz-adv-x="753" 
d="M289 -15q-67 0 -120 30t-81.5 79.5t-28.5 110.5q0 50 19 91t51 70t73 44t87 15q38 0 79 -13l121 145l-152 -13l-9 98l325 32l30 -323l-101 -11l-15 140l-106 -126q58 -61 58 -149q0 -64 -31 -114.5t-83.5 -78t-115.5 -27.5zM290 100q45 0 75 30t30 75t-30 75t-75 30
t-75 -30t-30 -75t30 -75t75 -30z" />
    <glyph glyph-name="quoteleft" unicode="&#x2018;" horiz-adv-x="250" 
d="M217 676q-31 -38 -46 -64t-19 -48q22 -4 39 -23.5t17 -42.5q0 -34 -23.5 -56.5t-59.5 -22.5q-38 0 -61.5 24t-23.5 62q0 49 27 99t87 116z" />
    <glyph glyph-name="quoteright" unicode="&#x2019;" horiz-adv-x="250" 
d="M33 453q57 68 64 112q-22 4 -38.5 23.5t-16.5 42.5q0 34 23.5 56.5t59.5 22.5q38 0 61.5 -24t23.5 -62q0 -49 -27 -99t-87 -116z" />
    <glyph glyph-name="quotesinglbase" unicode="&#x201a;" horiz-adv-x="250" 
d="M33 -108q57 68 64 112q-22 4 -38.5 23.5t-16.5 42.5q0 34 23.5 56.5t59.5 22.5q38 0 61.5 -24t23.5 -62q0 -49 -27 -99t-87 -116z" />
    <glyph glyph-name="quotedblleft" unicode="&#x201c;" horiz-adv-x="463" 
d="M217 676q-31 -38 -46 -64t-19 -48q22 -4 39 -23.5t17 -42.5q0 -34 -23.5 -56.5t-59.5 -22.5q-38 0 -61.5 24t-23.5 62q0 49 27 99t87 116zM430 676q-31 -38 -46 -64t-19 -48q22 -4 39 -23.5t17 -42.5q0 -34 -23.5 -56.5t-59.5 -22.5q-38 0 -61.5 24t-23.5 62q0 49 27 99
t87 116z" />
    <glyph glyph-name="quotedblright" unicode="&#x201d;" horiz-adv-x="463" 
d="M33 453q57 68 64 112q-22 4 -38.5 23.5t-16.5 42.5q0 34 23.5 56.5t59.5 22.5q38 0 61.5 -24t23.5 -62q0 -49 -27 -99t-87 -116zM246 453q57 68 64 112q-22 4 -38.5 23.5t-16.5 42.5q0 34 23.5 56.5t59.5 22.5q38 0 61.5 -24t23.5 -62q0 -49 -27 -99t-87 -116z" />
    <glyph glyph-name="quotedblbase" unicode="&#x201e;" horiz-adv-x="463" 
d="M33 -108q57 68 64 112q-22 4 -38.5 23.5t-16.5 42.5q0 34 23.5 56.5t59.5 22.5q38 0 61.5 -24t23.5 -62q0 -49 -27 -99t-87 -116zM246 -108q57 68 64 112q-22 4 -38.5 23.5t-16.5 42.5q0 34 23.5 56.5t59.5 22.5q38 0 61.5 -24t23.5 -62q0 -49 -27 -99t-87 -116z" />
    <glyph glyph-name="apostrophemod" unicode="&#x2bc;" horiz-adv-x="177" 
d="M0 453q57 68 64 112q-22 4 -38.5 23.5t-16.5 42.5q0 34 23.5 56.5t59.5 22.5q38 0 61.5 -24t23.5 -62q0 -49 -27 -99t-87 -116z" />
    <glyph glyph-name="minute" unicode="&#x2032;" horiz-adv-x="269" 
d="M19 427l85 243h146l-115 -243h-116z" />
    <glyph glyph-name="second" unicode="&#x2033;" horiz-adv-x="469" 
d="M19 427l85 243h146l-115 -243h-116zM219 427l85 243h146l-115 -243h-116z" />
    <glyph glyph-name="periodcentered.loclCAT" horiz-adv-x="270" 
d="M135 307q-37 0 -61 22.5t-24 57.5t24 57.5t61 22.5t61 -22.5t24 -57.5t-24 -57.5t-61 -22.5z" />
    <glyph glyph-name="periodcentered.loclCAT.cap" horiz-adv-x="270" 
d="M135 307q-37 0 -61 22.5t-24 57.5t24 57.5t61 22.5t61 -22.5t24 -57.5t-24 -57.5t-61 -22.5z" />
    <glyph glyph-name="dotlessi" unicode="&#x131;" horiz-adv-x="299" 
d="M99 0v390h-73v115h136q40 0 59 -19t19 -59v-427h-141z" />
    <glyph glyph-name="dotlessj" unicode="&#x237;" horiz-adv-x="299" 
d="M26 505h136q40 0 59 -19t19 -59v-459q0 -88 -47.5 -136.5t-132.5 -48.5q-24 0 -47 5.5t-38 14.5l22 104q18 -8 36 -8q66 0 66 78v413h-73v115z" />
    <glyph glyph-name="IJ" unicode="&#x132;" horiz-adv-x="782" 
d="M635 670q46 0 62 -15t16 -60v-378q0 -116 -57 -174.5t-168 -58.5q-54 0 -100 14t-79 41l50 119q19 -15 49.5 -25t58.5 -10q51 0 73.5 22.5t22.5 71.5v321h-174v132h246zM224 0h-150v670h150v-670z" />
    <glyph glyph-name="Thorn" unicode="&#xde;" horiz-adv-x="622" 
d="M581 337q0 -110 -72 -167t-210 -57h-78v-113h-147v670h147v-109h78q138 0 210 -57t72 -167zM313 245q56 0 87 24t31 68t-31 68t-87 24h-92v-184h92z" />
    <glyph glyph-name="AE" unicode="&#xc6;" horiz-adv-x="1003" 
d="M477 0v141h-237l-82 -141h-170l420 670h540v-132h-323v-130h281v-131h-281v-145h333v-132h-481zM477 261v283l-166 -283h166z" />
    <glyph glyph-name="OE" unicode="&#x152;" horiz-adv-x="1100" 
d="M574 0v62q-70 -78 -199 -78q-97 0 -172 47t-115.5 126.5t-40.5 177.5q0 104 43.5 184t118 123.5t166.5 43.5q127 0 199 -78v62h471v-132h-323v-130h281v-131h-281v-145h333v-132h-481zM388 123q83 0 134 58t51 154t-51 154t-134 58t-134 -58t-51 -154t51 -154t134 -58z
" />
    <glyph glyph-name="Germandbls" unicode="&#x1e9e;" horiz-adv-x="699" 
d="M661 197q0 -94 -65.5 -153t-169.5 -59q-77 0 -145 26l36 122q48 -20 97 -20q46 0 72.5 24t26.5 64q0 45 -27.5 65.5t-87.5 20.5h-63v94l118 153q-44 24 -106 24q-58 0 -94.5 -34.5t-36.5 -90.5v-433h-147v439q0 75 36.5 131t99 86t140.5 30q88 0 152 -25t137 -88
l-146 -184q84 -16 128.5 -65.5t44.5 -126.5z" />
    <glyph glyph-name="Eng" unicode="&#x14a;" horiz-adv-x="725" 
d="M651 16q0 -115 -52 -174t-154 -59q-81 0 -140 40l43 114q41 -25 81 -25q39 0 58 21.5t20 66.5l-289 429v-429h-144v670h144l289 -430v430h144v-654z" />
    <glyph glyph-name="Eth" unicode="&#xd0;" horiz-adv-x="719" 
d="M322 670q108 0 187.5 -41t121 -116t41.5 -178q0 -106 -43 -181t-122 -114.5t-185 -39.5h-248v289h-74v106h74v275h248zM374 395v-106h-150v-154h96q95 0 145.5 51.5t50.5 148.5t-50.5 148.5t-145.5 51.5h-96v-140h150z" />
    <glyph glyph-name="Dcroat" unicode="&#x110;" horiz-adv-x="719" 
d="M322 670q108 0 187.5 -41t121 -116t41.5 -178q0 -106 -43 -181t-122 -114.5t-185 -39.5h-248v289h-74v106h74v275h248zM374 395v-106h-150v-154h96q95 0 145.5 51.5t50.5 148.5t-50.5 148.5t-145.5 51.5h-96v-140h150z" />
    <glyph glyph-name="Hbar" unicode="&#x126;" horiz-adv-x="757" 
d="M84 0v500h-74v92h74v78h150v-78h289v78h150v-78h74v-92h-74v-500h-150v271h-289v-271h-150zM523 410v90h-289v-90h289z" />
    <glyph glyph-name="Tbar" unicode="&#x166;" horiz-adv-x="596" 
d="M223 0v254h-117v106h117v175h-203v135h556v-135h-203v-175h117v-106h-117v-254h-150z" />
    <glyph glyph-name="Lslash" unicode="&#x141;" horiz-adv-x="565" 
d="M84 0v234l-74 -48v126l74 48v310h150v-213l137 89v-126l-137 -89v-192h311v-139h-461z" />
    <glyph glyph-name="Oslash" unicode="&#xd8;" horiz-adv-x="776" 
d="M388 -16q-117 0 -202 60l-66 -74l-67 59l68 76q-36 46 -55 104.5t-19 125.5q0 105 44.5 185t121.5 123t175 43q114 0 201 -60l67 74l67 -60l-69 -76q75 -94 75 -229q0 -105 -44.5 -185t-121.5 -123t-175 -43zM388 547q-83 0 -134 -58.5t-51 -153.5q0 -65 24 -113l263 294
q-43 31 -102 31zM388 123q83 0 134 58.5t51 153.5q0 61 -24 111l-264 -293q44 -30 103 -30z" />
    <glyph glyph-name="ij" unicode="&#x133;" horiz-adv-x="598" 
d="M325 505h136q40 0 59 -19t19 -59v-459q0 -88 -47.5 -136.5t-132.5 -48.5q-24 0 -47 5.5t-38 14.5l22 104q18 -8 36 -8q66 0 66 78v413h-73v115zM456 560q-38 0 -62 23t-24 58t24 58t62 23t62 -23t24 -58t-24 -58t-62 -23zM99 0v390h-73v115h136q40 0 59 -19t19 -59v-427
h-141zM157 560q-38 0 -62 23t-24 58t24 58t62 23t62 -23t24 -58t-24 -58t-62 -23z" />
    <glyph glyph-name="thorn" unicode="&#xfe;" horiz-adv-x="633" 
d="M201 719v-281q27 40 68.5 60.5t92.5 20.5q69 0 122 -35t81.5 -95.5t28.5 -136.5q0 -80 -30.5 -141t-83 -93.5t-118.5 -32.5q-52 0 -93.5 20.5t-67.5 60.5v-268h-141v921h141zM194 252q0 -64 36 -104t94 -40q56 0 91 40t35 104t-35 104t-91 40q-58 0 -94 -40t-36 -104z
" />
    <glyph glyph-name="ae" unicode="&#xe6;" horiz-adv-x="873" 
d="M830 42q-33 -27 -85 -42t-112 -15q-142 0 -208 89q-29 -43 -81 -66t-120 -23q-88 0 -137 42t-49 116q0 81 60 125t170 44h82q-3 51 -29.5 74t-82.5 23q-69 0 -133 -39l-40 93q35 26 85.5 41t106.5 15q126 0 175 -81q31 40 76.5 60.5t102.5 20.5q69 0 119.5 -30.5
t77 -85.5t26.5 -128v-55h-343q8 -57 47 -89t102 -32q36 0 76 11.5t70 30.5zM172 159q0 -32 20.5 -49.5t57.5 -17.5q45 0 72.5 28t27.5 75v25h-71q-57 0 -82 -14.5t-25 -46.5zM605 409q-44 0 -73.5 -25.5t-38.5 -71.5h210q-4 47 -29.5 72t-68.5 25z" />
    <glyph glyph-name="oe" unicode="&#x153;" horiz-adv-x="969" 
d="M302 -15q-78 0 -138 35.5t-92.5 96t-32.5 135.5q0 79 35 140t94.5 94t133.5 33q71 0 124.5 -27.5t84.5 -78.5q31 52 81 79t115 27q102 0 162.5 -66t60.5 -178v-60h-343q10 -55 49 -85.5t100 -30.5q36 0 76 11.5t70 30.5l44 -99q-33 -27 -85 -42t-112 -15q-155 0 -218 105
q-32 -52 -85 -78.5t-124 -26.5zM312 108q56 0 92.5 40t36.5 104t-36.5 104t-92.5 40t-92.5 -40t-36.5 -104t36.5 -104t92.5 -40zM701 409q-45 0 -75 -27t-38 -75h212q-2 49 -27.5 75.5t-71.5 26.5z" />
    <glyph glyph-name="germandbls" unicode="&#xdf;" horiz-adv-x="602" 
d="M576 191q0 -91 -61 -148.5t-157 -57.5q-69 0 -116 21l28 105q36 -14 73 -14q43 0 69.5 27.5t26.5 73.5q0 108 -115 108h-57v119h48q37 0 59 26t22 69q0 44 -25.5 69.5t-69.5 25.5q-46 0 -74.5 -29.5t-28.5 -75.5v-510h-141v507q0 68 31.5 120t85.5 79.5t123 27.5
q72 0 125.5 -25.5t82 -69.5t28.5 -101q0 -51 -24.5 -92t-70.5 -66q66 -23 102 -72t36 -117z" />
    <glyph glyph-name="eng" unicode="&#x14b;" horiz-adv-x="593" 
d="M346 519q89 0 139.5 -57.5t50.5 -159.5v-334q0 -88 -47.5 -136.5t-132.5 -48.5q-24 0 -48 5.5t-39 14.5l23 107q16 -8 37 -8q66 0 66 78v313q0 104 -91 104q-49 0 -76 -33t-27 -95v-269h-141v505h129v-71q25 42 65.5 63.5t91.5 21.5z" />
    <glyph glyph-name="eth" unicode="&#xf0;" horiz-adv-x="633" 
d="M234 498l-36 73l89 47q-49 16 -108 20l21 108q128 -9 214 -61l124 66l36 -73l-91 -48q101 -108 101 -305q0 -164 -72.5 -252t-209.5 -88q-82 0 -143 32t-93 88t-32 129q0 74 32 129.5t88 85t127 29.5q51 0 93 -17t69 -49q-18 104 -73 158zM304 370q-58 0 -94.5 -37
t-36.5 -97t36 -96.5t95 -36.5t95.5 37t36.5 96q0 60 -36.5 97t-95.5 37z" />
    <glyph glyph-name="dcroat" unicode="&#x111;" horiz-adv-x="653" 
d="M436 0v65q-29 -38 -71.5 -59t-93.5 -21q-69 0 -122 35t-81.5 95.5t-28.5 136.5q0 80 30.5 141t83 93.5t118.5 32.5q51 0 92.5 -20t68.5 -58v118h-143v102h143v58h141v-58h70v-102h-70v-559h-137zM309 108q58 0 94 40t36 104t-36 104.5t-94 40.5q-56 0 -91 -40.5
t-35 -104.5t35 -104t91 -40z" />
    <glyph glyph-name="hbar" unicode="&#x127;" horiz-adv-x="613" 
d="M364 559h-143v-116q24 37 61 56.5t84 19.5q89 0 139.5 -57.5t50.5 -159.5v-302h-141v293q0 104 -91 104q-49 0 -76 -33t-27 -95v-269h-141v559h-70v102h70v58h141v-58h143v-102z" />
    <glyph glyph-name="tbar" unicode="&#x167;" horiz-adv-x="441" 
d="M289 -15q-89 0 -135 48.5t-46 142.5v31h-83v102h83v81h-83v115h51q23 0 33 9.5t10 32.5v84h130v-126h147v-115h-147v-81h147v-102h-147v-14q0 -47 16.5 -68t54.5 -21q40 0 78 18l22 -106q-21 -14 -57 -22.5t-74 -8.5z" />
    <glyph glyph-name="lslash" unicode="&#x142;" horiz-adv-x="341" 
d="M100 0v277l-70 -43v124l70 43v318h141v-231l70 44v-124l-70 -44v-364h-141z" />
    <glyph glyph-name="oslash" unicode="&#xf8;" horiz-adv-x="624" 
d="M312 -15q-86 0 -153 40l-48 -52l-57 54l45 49q-60 73 -60 176q0 80 36 140.5t98 93.5t139 33q87 0 154 -42l47 51l57 -54l-44 -49q59 -72 59 -173q0 -80 -36 -140.5t-98 -93.5t-139 -33zM312 398q-59 0 -95 -40.5t-36 -105.5q0 -40 14 -71l183 200q-29 17 -66 17z
M312 106q58 0 94.5 40.5t36.5 105.5q0 37 -13 69l-183 -199q28 -16 65 -16z" />
    <glyph glyph-name="kgreenlandic" unicode="&#x138;" horiz-adv-x="578" 
d="M379 505h168l-197 -208l228 -297h-176l-144 199l-59 -63v-136h-139v505h139v-200z" />
    <glyph glyph-name="aturned" unicode="&#x250;" horiz-adv-x="574" 
d="M317 -15q-110 0 -171 56.5t-61 157.5v190h-61v115h90q77 0 84 -60q23 36 65.5 55.5t97.5 19.5q81 0 128 -42.5t47 -115.5q0 -82 -60 -127.5t-170 -45.5h-81q2 -48 29 -70.5t82 -22.5q69 0 133 39l40 -93q-35 -26 -85.5 -41t-106.5 -15zM224 309v-30h71q56 0 81.5 16
t25.5 50q0 32 -20.5 49.5t-57.5 17.5q-45 0 -72.5 -28t-27.5 -75z" />
    <glyph glyph-name="oopen" unicode="&#x254;" horiz-adv-x="522" 
d="M215 -15q-55 0 -107.5 18.5t-87.5 49.5l56 101q22 -20 58 -33t72 -13q60 0 96.5 39.5t36.5 104.5q0 66 -36.5 105.5t-97.5 39.5q-71 0 -121 -48l-63 95q75 75 192 75q82 0 143.5 -35t94 -96t32.5 -140q0 -120 -73 -191.5t-195 -71.5z" />
    <glyph glyph-name="eopen" unicode="&#x25b;" horiz-adv-x="510" 
d="M277 -15q-114 0 -173.5 37.5t-59.5 108.5q0 46 26 79.5t74 48.5q-42 11 -66 41.5t-24 73.5q0 68 60 106.5t167 38.5q108 0 194 -47l-38 -106q-25 16 -63 25t-79 9q-97 0 -97 -45q0 -25 24 -35t83 -10h83v-111h-83q-63 0 -90 -10.5t-27 -35.5q0 -49 102 -49q44 0 87 12.5
t70 32.5l43 -106q-85 -58 -213 -58z" />
    <glyph glyph-name="ismallcap" unicode="&#x26a;" horiz-adv-x="425" 
d="M62 0v115h80v275h-80v115h301v-115h-80v-275h80v-115h-301z" />
    <glyph glyph-name="obarred" unicode="&#x275;" horiz-adv-x="624" 
d="M312 -15q-82 0 -144 35.5t-95.5 96t-33.5 135.5q0 80 36 140.5t98 93.5t139 33q82 0 144 -35.5t95.5 -96t33.5 -135.5q0 -80 -36 -140.5t-98 -93.5t-139 -33zM312 95q51 0 88 31t48 83h-273q12 -52 49 -83t88 -31zM312 409q-49 0 -85.5 -29t-49.5 -79h270
q-13 50 -49.5 79t-85.5 29z" />
    <glyph glyph-name="esh" unicode="&#x283;" horiz-adv-x="353" 
d="M58 -207q-27 0 -59 7t-53 17l32 107q24 -12 51 -12q40 0 58.5 21.5t18.5 68.5v520q0 101 53 156.5t149 55.5q24 0 51.5 -6.5t47.5 -17.5l-32 -107q-24 12 -51 12q-40 0 -58.5 -21.5t-18.5 -68.5v-520q0 -102 -49 -157t-140 -55z" />
    <glyph glyph-name="upsilonlatin" unicode="&#x28a;" horiz-adv-x="640" 
d="M320 -15q-75 0 -133 30.5t-90 81.5t-32 112t16.5 105t51.5 76h-98v115h245v-104q-34 -19 -53.5 -63t-19.5 -102q0 -55 32 -91.5t81 -36.5q48 0 80 36.5t32 91.5q0 56 -18.5 98.5t-53.5 66.5v104h245v-115h-99q36 -32 52.5 -75.5t16.5 -105.5q0 -64 -34.5 -116t-92 -80
t-128.5 -28z" />
    <glyph glyph-name="cedillacomb" unicode="&#x327;" horiz-adv-x="0" 
d="M40 15l-19 -66q8 2 26 2q45 0 74 -23t29 -63q0 -48 -36.5 -75.5t-100.5 -27.5q-32 0 -62 8t-52 22l25 61q18 -10 41.5 -16.5t43.5 -6.5q21 0 33 8t12 23q0 13 -9 20.5t-25 7.5t-33 -10l-59 28l32 108h80z" />
    <glyph glyph-name="cedillacomb.cap" horiz-adv-x="0" 
d="M27 15l-19 -66q8 2 26 2q45 0 74 -23t29 -63q0 -48 -36.5 -75.5t-100.5 -27.5q-32 0 -62 8t-52 22l25 61q18 -10 41.5 -16.5t43.5 -6.5q21 0 33 8t12 23q0 13 -9 20.5t-25 7.5t-33 -10l-59 28l32 108h80z" />
    <glyph glyph-name="cedilla" unicode="&#xb8;" horiz-adv-x="593" 
d="M312 15l-19 -66q8 2 26 2q45 0 74 -23t29 -63q0 -48 -36.5 -75.5t-100.5 -27.5q-32 0 -62 8t-52 22l25 61q18 -10 41.5 -16.5t43.5 -6.5q21 0 33 8t12 23q0 13 -9 20.5t-25 7.5t-33 -10l-59 28l32 108h80z" />
    <glyph glyph-name="commabelowcomb" unicode="&#x326;" horiz-adv-x="0" 
d="M-76 -257q39 46 47 68q-22 5 -35.5 21.5t-13.5 39.5q0 31 22.5 51.5t55.5 20.5q35 0 57 -22t22 -57q0 -34 -22 -72t-73 -91z" />
    <glyph glyph-name="commabelowcomb.cap" horiz-adv-x="0" 
d="M-76 -257q39 46 47 68q-22 5 -35.5 21.5t-13.5 39.5q0 31 22.5 51.5t55.5 20.5q35 0 57 -22t22 -57q0 -34 -22 -72t-73 -91z" />
    <glyph glyph-name="commaturnedabovecomb" unicode="&#x312;" horiz-adv-x="0" 
d="M91 933q-39 -48 -47 -66q20 -4 34.5 -21t14.5 -37q0 -30 -21.5 -50t-54.5 -20q-35 0 -56 21.5t-21 55.5q0 33 21 69t72 88z" />
    <glyph glyph-name="ogonekcomb" unicode="&#x328;" horiz-adv-x="0" 
d="M125 -196q-54 -38 -116 -38q-53 0 -87.5 30.5t-34.5 79.5q0 41 21.5 75.5t58.5 58.5t81 33l30 -43q-43 -7 -66.5 -32t-23.5 -63q0 -25 14 -39.5t37 -14.5q25 0 51 17z" />
    <glyph glyph-name="ogonekcomb.cap" horiz-adv-x="0" 
d="M125 -196q-54 -38 -116 -38q-53 0 -87.5 30.5t-34.5 79.5q0 41 21.5 75.5t58.5 58.5t81 33l30 -43q-43 -7 -66.5 -32t-23.5 -63q0 -25 14 -39.5t37 -14.5q25 0 51 17z" />
    <glyph glyph-name="ogonekcomb.round" horiz-adv-x="0" 
d="M99 -196q-54 -38 -116 -38q-56 0 -90.5 32t-34.5 85q0 62 48 112.5t116 64.5l-2 -55q-61 -31 -61 -93q0 -28 15 -44.5t39 -16.5q25 0 51 17z" />
    <glyph glyph-name="ogonekcomb.round.cap" horiz-adv-x="0" 
d="M99 -196q-54 -38 -116 -38q-56 0 -90.5 32t-34.5 85q0 62 48 112.5t116 64.5l-2 -55q-61 -31 -61 -93q0 -28 15 -44.5t39 -16.5q25 0 51 17z" />
    <glyph glyph-name="ogonek" unicode="&#x2db;" horiz-adv-x="593" 
d="M416 -196q-54 -38 -116 -38q-53 0 -87.5 30.5t-34.5 79.5q0 41 21.5 75.5t58.5 58.5t81 33l30 -43q-43 -7 -66.5 -32t-23.5 -63q0 -25 14 -39.5t37 -14.5q25 0 51 17z" />
    <glyph glyph-name="Ccedilla" unicode="&#xc7;" horiz-adv-x="689" 
d="M404 686q72 0 135.5 -20.5t106.5 -57.5l-65 -115q-32 26 -76 40t-92 14q-95 0 -152.5 -57.5t-57.5 -154.5q0 -96 57.5 -154t152.5 -58q106 0 176 63l61 -113q-37 -40 -103.5 -64.5t-140.5 -24.5q-108 0 -190 44.5t-125.5 122.5t-43.5 178q0 109 46 190t126.5 124
t184.5 43zM426 15l-19 -66q8 2 26 2q45 0 74 -23t29 -63q0 -48 -36.5 -75.5t-100.5 -27.5q-32 0 -62 8t-52 22l25 61q18 -10 41.5 -16.5t43.5 -6.5q21 0 33 8t12 23q0 13 -9 20.5t-25 7.5t-33 -10l-59 28l32 108h80z" />
    <glyph glyph-name="Scedilla" unicode="&#x15e;" horiz-adv-x="596" 
d="M481 504q-86 50 -181 50q-47 0 -73 -17.5t-26 -50.5q0 -54 81 -69l79 -15q102 -20 150.5 -69.5t48.5 -132.5q0 -103 -69.5 -159.5t-195.5 -56.5q-145 0 -255 76l48 119q55 -30 110 -46t102 -16q108 0 108 68q0 32 -18.5 49t-61.5 25l-85 16q-95 19 -143.5 70t-48.5 132
q0 64 32.5 111.5t89 72.5t129.5 25q132 0 233 -71zM327 15l-19 -66q8 2 26 2q45 0 74 -23t29 -63q0 -48 -36.5 -75.5t-100.5 -27.5q-32 0 -62 8t-52 22l25 61q18 -10 41.5 -16.5t43.5 -6.5q21 0 33 8t12 23q0 13 -9 20.5t-25 7.5t-33 -10l-59 28l32 108h80z" />
    <glyph glyph-name="Tcedilla" unicode="&#x162;" horiz-adv-x="620" 
d="M235 0v535h-203v135h556v-135h-203v-535h-150zM356 15l-19 -66q8 2 26 2q45 0 74 -23t29 -63q0 -48 -36.5 -75.5t-100.5 -27.5q-32 0 -62 8t-52 22l25 61q18 -10 41.5 -16.5t43.5 -6.5q21 0 33 8t12 23q0 13 -9 20.5t-25 7.5t-33 -10l-59 28l32 108h80z" />
    <glyph glyph-name="Gcommabelow" unicode="&#x122;" horiz-adv-x="713" 
d="M523 246h-128v128h188q46 0 62 -15t16 -60v-246q-102 -69 -253 -69q-111 0 -192.5 44.5t-125 123.5t-43.5 182q0 107 45 187t124.5 122.5t183.5 42.5q74 0 138.5 -25t105.5 -69l-80 -103q-32 29 -73 44.5t-86 15.5q-95 0 -150 -57t-55 -155q0 -103 56.5 -160.5
t156.5 -57.5q69 0 110 17v110zM324 -257q39 46 47 68q-22 5 -35.5 21.5t-13.5 39.5q0 31 22.5 51.5t55.5 20.5q35 0 57 -22t22 -57q0 -34 -22 -72t-73 -91z" />
    <glyph glyph-name="Kcommabelow" unicode="&#x136;" horiz-adv-x="683" 
d="M455 670h185l-242 -290l285 -380h-186l-194 267l-81 -97v-170h-148v670h148v-303zM267 -257q39 46 47 68q-22 5 -35.5 21.5t-13.5 39.5q0 31 22.5 51.5t55.5 20.5q35 0 57 -22t22 -57q0 -34 -22 -72t-73 -91z" />
    <glyph glyph-name="Lcommabelow" unicode="&#x13b;" horiz-adv-x="564" 
d="M74 0v670h150v-531h311v-139h-461zM230 -257q39 46 47 68q-22 5 -35.5 21.5t-13.5 39.5q0 31 22.5 51.5t55.5 20.5q35 0 57 -22t22 -57q0 -34 -22 -72t-73 -91z" />
    <glyph glyph-name="Ncommabelow" unicode="&#x145;" horiz-adv-x="725" 
d="M74 0v670h144l289 -430v430h144v-670h-144l-289 429v-429h-144zM291 -257q39 46 47 68q-22 5 -35.5 21.5t-13.5 39.5q0 31 22.5 51.5t55.5 20.5q35 0 57 -22t22 -57q0 -34 -22 -72t-73 -91z" />
    <glyph glyph-name="Scommabelow" unicode="&#x218;" horiz-adv-x="596" 
d="M481 504q-86 50 -181 50q-47 0 -73 -17.5t-26 -50.5q0 -54 81 -69l79 -15q102 -20 150.5 -69.5t48.5 -132.5q0 -103 -69.5 -159.5t-195.5 -56.5q-145 0 -255 76l48 119q55 -30 110 -46t102 -16q108 0 108 68q0 32 -18.5 49t-61.5 25l-85 16q-95 19 -143.5 70t-48.5 132
q0 64 32.5 111.5t89 72.5t129.5 25q132 0 233 -71zM224 -257q39 46 47 68q-22 5 -35.5 21.5t-13.5 39.5q0 31 22.5 51.5t55.5 20.5q35 0 57 -22t22 -57q0 -34 -22 -72t-73 -91z" />
    <glyph glyph-name="Tcommabelow" unicode="&#x21a;" horiz-adv-x="620" 
d="M235 0v535h-203v135h556v-135h-203v-535h-150zM235 -257q39 46 47 68q-22 5 -35.5 21.5t-13.5 39.5q0 31 22.5 51.5t55.5 20.5q35 0 57 -22t22 -57q0 -34 -22 -72t-73 -91z" />
    <glyph glyph-name="Aogonek" unicode="&#x104;" horiz-adv-x="667" 
d="M415 670l250 -670h-161l-46 141h-251l-45 -141h-160l250 670h163zM246 261h173l-87 267zM712 -196q-54 -38 -116 -38q-53 0 -87.5 30.5t-34.5 79.5q0 41 21.5 75.5t58.5 58.5t81 33l30 -43q-43 -7 -66.5 -32t-23.5 -63q0 -25 14 -39.5t37 -14.5q25 0 51 17z" />
    <glyph glyph-name="Eogonek" unicode="&#x118;" 
d="M74 0v670h471v-132h-323v-130h281v-131h-281v-145h333v-132h-481zM602 -196q-54 -38 -116 -38q-53 0 -87.5 30.5t-34.5 79.5q0 41 21.5 75.5t58.5 58.5t81 33l30 -43q-43 -7 -66.5 -32t-23.5 -63q0 -25 14 -39.5t37 -14.5q25 0 51 17z" />
    <glyph glyph-name="Iogonek" unicode="&#x12e;" horiz-adv-x="298" 
d="M224 0h-150v670h150v-670zM271 -196q-54 -38 -116 -38q-53 0 -87.5 30.5t-34.5 79.5q0 41 21.5 75.5t58.5 58.5t81 33l30 -43q-43 -7 -66.5 -32t-23.5 -63q0 -25 14 -39.5t37 -14.5q25 0 51 17z" />
    <glyph glyph-name="Uogonek" unicode="&#x172;" horiz-adv-x="720" 
d="M361 123q76 0 109 44.5t33 147.5v355h150v-385q0 -147 -74.5 -224t-217.5 -77t-217.5 77t-74.5 224v385h150v-355q0 -103 33 -147.5t109 -44.5zM566 -196q-54 -38 -116 -38q-56 0 -90.5 32t-34.5 85q0 62 48 112.5t116 64.5l-2 -55q-61 -31 -61 -93q0 -28 15 -44.5
t39 -16.5q25 0 51 17z" />
    <glyph glyph-name="ccedilla" unicode="&#xe7;" horiz-adv-x="522" 
d="M307 -15q-122 0 -195 71.5t-73 191.5q0 82 35 144t96 94.5t139 32.5q117 0 192 -75l-63 -95q-49 48 -121 48q-61 0 -97.5 -39.5t-36.5 -105.5q0 -65 36.5 -104.5t96.5 -39.5q36 0 72 13t58 33l56 -101q-35 -31 -87.5 -49.5t-107.5 -18.5zM305 15l-19 -66q8 2 26 2
q45 0 74 -23t29 -63q0 -48 -36.5 -75.5t-100.5 -27.5q-32 0 -62 8t-52 22l25 61q18 -10 41.5 -16.5t43.5 -6.5q21 0 33 8t12 23q0 13 -9 20.5t-25 7.5t-33 -10l-59 28l32 108h80z" />
    <glyph glyph-name="scedilla" unicode="&#x15f;" horiz-adv-x="525" 
d="M260 -15q-62 0 -122 15.5t-97 40.5l37 106q30 -21 83 -35.5t97 -14.5q39 0 60 12t21 35q0 34 -59 45l-70 12q-163 28 -163 155q0 75 57 119t154 44q60 0 111 -14.5t87 -40.5l-40 -97q-34 19 -75 29.5t-79 10.5q-37 0 -57 -10.5t-20 -30.5q0 -30 52 -39l63 -12
q93 -17 135 -55t42 -105q0 -80 -57.5 -125t-159.5 -45zM291 15l-19 -66q8 2 26 2q45 0 74 -23t29 -63q0 -48 -36.5 -75.5t-100.5 -27.5q-32 0 -62 8t-52 22l25 61q18 -10 41.5 -16.5t43.5 -6.5q21 0 33 8t12 23q0 13 -9 20.5t-25 7.5t-33 -10l-59 28l32 108h80z" />
    <glyph glyph-name="tcedilla" unicode="&#x163;" horiz-adv-x="447" 
d="M289 -15q-89 0 -135 48.5t-46 142.5v214h-83v115h51q23 0 33 9.5t10 32.5v84h130v-126h147v-115h-147v-197q0 -47 16.5 -68t54.5 -21q39 0 77 17l23 -105q-23 -15 -57.5 -23t-73.5 -8zM275 15l-19 -66q8 2 26 2q45 0 74 -23t29 -63q0 -48 -36.5 -75.5t-100.5 -27.5
q-32 0 -62 8t-52 22l25 61q18 -10 41.5 -16.5t43.5 -6.5q21 0 33 8t12 23q0 13 -9 20.5t-25 7.5t-33 -10l-59 28l32 108h80z" />
    <glyph glyph-name="gcommaabove" unicode="&#x123;" horiz-adv-x="633" 
d="M438 86q-27 -42 -69.5 -64.5t-94.5 -22.5q-70 0 -123.5 34.5t-82.5 93.5t-29 132q0 77 31 136.5t83.5 91.5t118.5 32q50 0 92.5 -21t71.5 -60v67h137v-447q0 -138 -74.5 -206.5t-224.5 -68.5q-53 0 -104.5 15t-81.5 38l38 106q31 -19 69.5 -29.5t75.5 -10.5
q85 0 126 37.5t41 115.5v31zM310 121q56 0 92.5 39t36.5 99q0 61 -36.5 100.5t-92.5 39.5t-91.5 -39.5t-35.5 -100.5t35.5 -99.5t91.5 -38.5zM385 763q-39 -48 -47 -66q20 -4 34.5 -21t14.5 -37q0 -30 -21.5 -50t-54.5 -20q-35 0 -56 21.5t-21 55.5q0 33 21 69t72 88z" />
    <glyph glyph-name="kcommabelow" unicode="&#x137;" horiz-adv-x="578" 
d="M379 505h168l-197 -208l228 -297h-176l-144 199l-59 -63v-136h-139v719h139v-414zM228 -257q39 46 47 68q-22 5 -35.5 21.5t-13.5 39.5q0 31 22.5 51.5t55.5 20.5q35 0 57 -22t22 -57q0 -34 -22 -72t-73 -91z" />
    <glyph glyph-name="lcommabelow" unicode="&#x13c;" horiz-adv-x="261" 
d="M60 0v719h141v-719h-141zM54 -257q39 46 47 68q-22 5 -35.5 21.5t-13.5 39.5q0 31 22.5 51.5t55.5 20.5q35 0 57 -22t22 -57q0 -34 -22 -72t-73 -91z" />
    <glyph glyph-name="ncommabelow" unicode="&#x146;" horiz-adv-x="593" 
d="M395 0v293q0 104 -91 104q-49 0 -76 -33t-27 -95v-269h-141v505h129v-71q25 42 65.5 63.5t91.5 21.5q89 0 139.5 -57.5t50.5 -159.5v-302h-141zM224 -257q39 46 47 68q-22 5 -35.5 21.5t-13.5 39.5q0 31 22.5 51.5t55.5 20.5q35 0 57 -22t22 -57q0 -34 -22 -72t-73 -91z
" />
    <glyph glyph-name="scommabelow" unicode="&#x219;" horiz-adv-x="525" 
d="M260 -15q-62 0 -122 15.5t-97 40.5l37 106q30 -21 83 -35.5t97 -14.5q39 0 60 12t21 35q0 34 -59 45l-70 12q-163 28 -163 155q0 75 57 119t154 44q60 0 111 -14.5t87 -40.5l-40 -97q-34 19 -75 29.5t-79 10.5q-37 0 -57 -10.5t-20 -30.5q0 -30 52 -39l63 -12
q93 -17 135 -55t42 -105q0 -80 -57.5 -125t-159.5 -45zM175 -257q39 46 47 68q-22 5 -35.5 21.5t-13.5 39.5q0 31 22.5 51.5t55.5 20.5q35 0 57 -22t22 -57q0 -34 -22 -72t-73 -91z" />
    <glyph glyph-name="tcommabelow" unicode="&#x21b;" horiz-adv-x="447" 
d="M289 -15q-89 0 -135 48.5t-46 142.5v214h-83v115h51q23 0 33 9.5t10 32.5v84h130v-126h147v-115h-147v-197q0 -47 16.5 -68t54.5 -21q39 0 77 17l23 -105q-23 -15 -57.5 -23t-73.5 -8zM159 -257q39 46 47 68q-22 5 -35.5 21.5t-13.5 39.5q0 31 22.5 51.5t55.5 20.5
q35 0 57 -22t22 -57q0 -34 -22 -72t-73 -91z" />
    <glyph glyph-name="aogonek" unicode="&#x105;" horiz-adv-x="574" 
d="M460 0q-37 0 -57.5 14t-26.5 45q-24 -36 -66.5 -55t-96.5 -19q-81 0 -128 42.5t-47 115.5q0 82 60 127.5t170 45.5h81q-3 49 -29.5 71t-81.5 22q-69 0 -133 -39l-40 93q35 26 85.5 41t106.5 15q110 0 171 -56.5t61 -157.5v-190h61v-115h-90zM172 159q0 -32 20.5 -49.5
t57.5 -17.5q45 0 72.5 28t27.5 75v30h-71q-56 0 -81.5 -16t-25.5 -50zM597 -196q-54 -38 -116 -38q-53 0 -87.5 30.5t-34.5 79.5q0 41 21.5 75.5t58.5 58.5t81 33l30 -43q-43 -7 -66.5 -32t-23.5 -63q0 -25 14 -39.5t37 -14.5q25 0 51 17z" />
    <glyph glyph-name="eogonek" unicode="&#x119;" horiz-adv-x="562" 
d="M519 42q-33 -27 -85.5 -42t-114.5 -15q-131 0 -205.5 71.5t-74.5 195.5q0 81 33.5 141.5t91 93t130.5 32.5q106 0 167.5 -65.5t61.5 -178.5v-60h-343q9 -56 46 -86t97 -30q40 0 82.5 12t69.5 30zM291 409q-45 0 -74 -26.5t-36 -75.5h212q-3 49 -29.5 75.5t-72.5 26.5z
M528 -196q-54 -38 -116 -38q-56 0 -90.5 32t-34.5 85q0 62 48 112.5t116 64.5l-2 -55q-61 -31 -61 -93q0 -28 15 -44.5t39 -16.5q25 0 51 17z" />
    <glyph glyph-name="iogonek" unicode="&#x12f;" horiz-adv-x="299" 
d="M99 0v390h-73v115h136q40 0 59 -19t19 -59v-427h-141zM157 560q-38 0 -62 23t-24 58t24 58t62 23t62 -23t24 -58t-24 -58t-62 -23zM287 -196q-54 -38 -116 -38q-53 0 -87.5 30.5t-34.5 79.5q0 41 21.5 75.5t58.5 58.5t81 33l30 -43q-43 -7 -66.5 -32t-23.5 -63
q0 -25 14 -39.5t37 -14.5q25 0 51 17z" />
    <glyph glyph-name="uogonek" unicode="&#x173;" horiz-adv-x="591" 
d="M247 -15q-89 0 -139.5 58t-50.5 160v302h141v-294q0 -104 90 -104q50 0 76 33t26 95v270h141v-505h-129v68q-24 -40 -63.5 -61.5t-91.5 -21.5zM578 -196q-54 -38 -116 -38q-53 0 -87.5 30.5t-34.5 79.5q0 41 21.5 75.5t58.5 58.5t81 33l30 -43q-43 -7 -66.5 -32
t-23.5 -63q0 -25 14 -39.5t37 -14.5q25 0 51 17z" />
    <glyph glyph-name="acutecomb" unicode="&#x301;" horiz-adv-x="0" 
d="M194 760l-128 -178h-136l99 178h165z" />
    <glyph glyph-name="acutecomb.cap" horiz-adv-x="0" 
d="M56 741h-136l91 163h165z" />
    <glyph glyph-name="acute" unicode="&#xb4;" horiz-adv-x="593" 
d="M429 760l-128 -178h-136l99 178h165z" />
    <glyph glyph-name="hungarumlautcomb" unicode="&#x30b;" horiz-adv-x="0" 
d="M-39 582h-132l79 178h161zM171 582h-132l79 178h161z" />
    <glyph glyph-name="hungarumlautcomb.cap" horiz-adv-x="0" 
d="M-39 741h-132l81 163h161zM171 741h-132l81 163h161z" />
    <glyph glyph-name="hungarumlaut" unicode="&#x2dd;" horiz-adv-x="593" 
d="M204 582h-132l79 178h161zM414 582h-132l79 178h161z" />
    <glyph glyph-name="Aacute" unicode="&#xc1;" horiz-adv-x="667" 
d="M415 670l250 -670h-161l-46 141h-251l-45 -141h-160l250 670h163zM246 261h173l-87 267zM388 741h-136l91 163h165z" />
    <glyph glyph-name="Cacute" unicode="&#x106;" horiz-adv-x="689" 
d="M404 686q72 0 135.5 -20.5t106.5 -57.5l-65 -115q-32 26 -76 40t-92 14q-95 0 -152.5 -57.5t-57.5 -154.5q0 -96 57.5 -154t152.5 -58q106 0 176 63l61 -113q-37 -40 -103.5 -64.5t-140.5 -24.5q-108 0 -190 44.5t-125.5 122.5t-43.5 178q0 109 46 190t126.5 124
t184.5 43zM458 741h-136l91 163h165z" />
    <glyph glyph-name="Eacute" unicode="&#xc9;" 
d="M74 0v670h471v-132h-323v-130h281v-131h-281v-145h333v-132h-481zM381 741h-136l91 163h165z" />
    <glyph glyph-name="Iacute" unicode="&#xcd;" horiz-adv-x="298" 
d="M224 0h-150v670h150v-670zM204 741h-136l91 163h165z" />
    <glyph glyph-name="IJacute" horiz-adv-x="782" 
d="M635 670q46 0 62 -15t16 -60v-378q0 -116 -57 -174.5t-168 -58.5q-54 0 -100 14t-79 41l50 119q19 -15 49.5 -25t58.5 -10q51 0 73.5 22.5t22.5 71.5v321h-174v132h246zM224 0h-150v670h150v-670zM204 741h-136l91 163h165zM646 741h-136l91 163h165z" />
    <glyph glyph-name="Lacute" unicode="&#x139;" horiz-adv-x="564" 
d="M74 0v670h150v-531h311v-139h-461zM205 741h-136l91 163h165z" />
    <glyph glyph-name="Nacute" unicode="&#x143;" horiz-adv-x="725" 
d="M74 0v670h144l289 -430v430h144v-670h-144l-289 429v-429h-144zM436 741h-136l91 163h165z" />
    <glyph glyph-name="Oacute" unicode="&#xd3;" horiz-adv-x="776" 
d="M388 -16q-102 0 -180 46t-119.5 125.5t-41.5 179.5q0 105 44.5 185t121.5 123t175 43q102 0 180 -46t119.5 -125.5t41.5 -179.5q0 -105 -44.5 -185t-121.5 -123t-175 -43zM388 123q83 0 134 58.5t51 153.5t-51 153.5t-134 58.5t-134 -58.5t-51 -153.5t51 -153.5
t134 -58.5zM444 741h-136l91 163h165z" />
    <glyph glyph-name="Racute" unicode="&#x154;" horiz-adv-x="632" 
d="M74 670h221q136 0 210 -56.5t74 -161.5q0 -64 -30.5 -112t-86.5 -74l167 -266h-172l-139 237h-97v-237h-147v670zM310 364q119 0 119 87q0 43 -30.5 65t-89.5 22h-88v-174h89zM376 741h-136l91 163h165z" />
    <glyph glyph-name="Sacute" unicode="&#x15a;" horiz-adv-x="596" 
d="M481 504q-86 50 -181 50q-47 0 -73 -17.5t-26 -50.5q0 -54 81 -69l79 -15q102 -20 150.5 -69.5t48.5 -132.5q0 -103 -69.5 -159.5t-195.5 -56.5q-145 0 -255 76l48 119q55 -30 110 -46t102 -16q108 0 108 68q0 32 -18.5 49t-61.5 25l-85 16q-95 19 -143.5 70t-48.5 132
q0 64 32.5 111.5t89 72.5t129.5 25q132 0 233 -71zM366 741h-136l91 163h165z" />
    <glyph glyph-name="Uacute" unicode="&#xda;" horiz-adv-x="720" 
d="M361 123q76 0 109 44.5t33 147.5v355h150v-385q0 -147 -74.5 -224t-217.5 -77t-217.5 77t-74.5 224v385h150v-355q0 -103 33 -147.5t109 -44.5zM417 741h-136l91 163h165z" />
    <glyph glyph-name="Wacute" unicode="&#x1e82;" horiz-adv-x="936" 
d="M205 0l-187 670h166l106 -466l104 392h145l112 -394l105 468h162l-187 -670h-150l-116 390l-111 -390h-149zM521 741h-136l91 163h165z" />
    <glyph glyph-name="Yacute" unicode="&#xdd;" horiz-adv-x="668" 
d="M409 0h-150v230l-251 440h170l158 -301l157 301h167l-251 -440v-230zM393 741h-136l91 163h165z" />
    <glyph glyph-name="Zacute" unicode="&#x179;" horiz-adv-x="624" 
d="M574 132v-132h-532v122l334 416h-321v132h513v-122l-335 -416h341zM363 741h-136l91 163h165z" />
    <glyph glyph-name="Ohungarumlaut" unicode="&#x150;" horiz-adv-x="776" 
d="M388 -16q-102 0 -180 46t-119.5 125.5t-41.5 179.5q0 105 44.5 185t121.5 123t175 43q102 0 180 -46t119.5 -125.5t41.5 -179.5q0 -105 -44.5 -185t-121.5 -123t-175 -43zM388 123q83 0 134 58.5t51 153.5t-51 153.5t-134 58.5t-134 -58.5t-51 -153.5t51 -153.5
t134 -58.5zM349 741h-132l81 163h161zM559 741h-132l81 163h161z" />
    <glyph glyph-name="Uhungarumlaut" unicode="&#x170;" horiz-adv-x="720" 
d="M361 123q76 0 109 44.5t33 147.5v355h150v-385q0 -147 -74.5 -224t-217.5 -77t-217.5 77t-74.5 224v385h150v-355q0 -103 33 -147.5t109 -44.5zM322 741h-132l81 163h161zM532 741h-132l81 163h161z" />
    <glyph glyph-name="aacute" unicode="&#xe1;" horiz-adv-x="574" 
d="M460 0q-37 0 -57.5 14t-26.5 45q-24 -36 -66.5 -55t-96.5 -19q-81 0 -128 42.5t-47 115.5q0 82 60 127.5t170 45.5h81q-3 49 -29.5 71t-81.5 22q-69 0 -133 -39l-40 93q35 26 85.5 41t106.5 15q110 0 171 -56.5t61 -157.5v-190h61v-115h-90zM172 159q0 -32 20.5 -49.5
t57.5 -17.5q45 0 72.5 28t27.5 75v30h-71q-56 0 -81.5 -16t-25.5 -50zM460 760l-128 -178h-136l99 178h165z" />
    <glyph glyph-name="cacute" unicode="&#x107;" horiz-adv-x="522" 
d="M307 -15q-122 0 -195 71.5t-73 191.5q0 82 35 144t96 94.5t139 32.5q117 0 192 -75l-63 -95q-49 48 -121 48q-61 0 -97.5 -39.5t-36.5 -105.5q0 -65 36.5 -104.5t96.5 -39.5q36 0 72 13t58 33l56 -101q-35 -31 -87.5 -49.5t-107.5 -18.5zM488 760l-128 -178h-136l99 178
h165z" />
    <glyph glyph-name="eacute" unicode="&#xe9;" horiz-adv-x="562" 
d="M519 42q-33 -27 -85.5 -42t-114.5 -15q-131 0 -205.5 71.5t-74.5 195.5q0 81 33.5 141.5t91 93t130.5 32.5q106 0 167.5 -65.5t61.5 -178.5v-60h-343q9 -56 46 -86t97 -30q40 0 82.5 12t69.5 30zM291 409q-45 0 -74 -26.5t-36 -75.5h212q-3 49 -29.5 75.5t-72.5 26.5z
M484 760l-128 -178h-136l99 178h165z" />
    <glyph glyph-name="iacute" unicode="&#xed;" horiz-adv-x="299" 
d="M99 0v390h-73v115h136q40 0 59 -19t19 -59v-427h-141zM335 760l-128 -178h-136l99 178h165z" />
    <glyph glyph-name="ijacute" horiz-adv-x="598" 
d="M325 505h136q40 0 59 -19t19 -59v-459q0 -88 -47.5 -136.5t-132.5 -48.5q-24 0 -47 5.5t-38 14.5l22 104q18 -8 36 -8q66 0 66 78v413h-73v115zM99 0v390h-73v115h136q40 0 59 -19t19 -59v-427h-141zM335 760l-128 -178h-136l99 178h165zM634 760l-128 -178h-136l99 178
h165z" />
    <glyph glyph-name="lacute" unicode="&#x13a;" horiz-adv-x="261" 
d="M60 0v719h141v-719h-141zM186 761h-136l91 163h165z" />
    <glyph glyph-name="nacute" unicode="&#x144;" horiz-adv-x="593" 
d="M395 0v293q0 104 -91 104q-49 0 -76 -33t-27 -95v-269h-141v505h129v-71q25 42 65.5 63.5t91.5 21.5q89 0 139.5 -57.5t50.5 -159.5v-302h-141zM494 760l-128 -178h-136l99 178h165z" />
    <glyph glyph-name="oacute" unicode="&#xf3;" horiz-adv-x="624" 
d="M312 -15q-82 0 -144 35.5t-95.5 96t-33.5 135.5q0 80 36 140.5t98 93.5t139 33q82 0 144 -35.5t95.5 -96t33.5 -135.5q0 -80 -36 -140.5t-98 -93.5t-139 -33zM312 108q56 0 92.5 40t36.5 104t-36.5 104t-92.5 40t-92.5 -40t-36.5 -104t36.5 -104t92.5 -40zM506 760
l-128 -178h-136l99 178h165z" />
    <glyph glyph-name="racute" unicode="&#x155;" horiz-adv-x="409" 
d="M385 376q-21 6 -56 6q-61 0 -94.5 -36t-33.5 -100v-246h-141v505h129v-90q21 47 59.5 72.5t88.5 25.5q27 0 48 -8v-129zM422 760l-128 -178h-136l99 178h165z" />
    <glyph glyph-name="sacute" unicode="&#x15b;" horiz-adv-x="525" 
d="M260 -15q-62 0 -122 15.5t-97 40.5l37 106q30 -21 83 -35.5t97 -14.5q39 0 60 12t21 35q0 34 -59 45l-70 12q-163 28 -163 155q0 75 57 119t154 44q60 0 111 -14.5t87 -40.5l-40 -97q-34 19 -75 29.5t-79 10.5q-37 0 -57 -10.5t-20 -30.5q0 -30 52 -39l63 -12
q93 -17 135 -55t42 -105q0 -80 -57.5 -125t-159.5 -45zM445 760l-128 -178h-136l99 178h165z" />
    <glyph glyph-name="uacute" unicode="&#xfa;" horiz-adv-x="591" 
d="M247 -15q-89 0 -139.5 58t-50.5 160v302h141v-294q0 -104 90 -104q50 0 76 33t26 95v270h141v-505h-129v68q-24 -40 -63.5 -61.5t-91.5 -21.5zM485 760l-128 -178h-136l99 178h165z" />
    <glyph glyph-name="wacute" unicode="&#x1e83;" horiz-adv-x="817" 
d="M508 0l-100 313l-99 -313h-132l-165 505h155l84 -341l96 335h128l96 -337l85 343h149l-165 -505h-132zM602 760l-128 -178h-136l99 178h165z" />
    <glyph glyph-name="yacute" unicode="&#xfd;" horiz-adv-x="545" 
d="M340 -1q-25 -62 -48.5 -101.5t-52.5 -64.5t-65.5 -37.5t-84.5 -12.5q-29 0 -55 6t-38 14l20 117q30 -13 67 -13q46 0 72 19.5t46 63.5l7 16l-209 499h153l120 -338l119 338h150zM466 760l-128 -178h-136l99 178h165z" />
    <glyph glyph-name="zacute" unicode="&#x17a;" horiz-adv-x="492" 
d="M457 115v-115h-420v102l243 288h-231v115h406v-100l-245 -290h247zM438 760l-128 -178h-136l99 178h165z" />
    <glyph glyph-name="ohungarumlaut" unicode="&#x151;" horiz-adv-x="624" 
d="M312 -15q-82 0 -144 35.5t-95.5 96t-33.5 135.5q0 80 36 140.5t98 93.5t139 33q82 0 144 -35.5t95.5 -96t33.5 -135.5q0 -80 -36 -140.5t-98 -93.5t-139 -33zM312 108q56 0 92.5 40t36.5 104t-36.5 104t-92.5 40t-92.5 -40t-36.5 -104t36.5 -104t92.5 -40zM273 582h-132
l79 178h161zM483 582h-132l79 178h161z" />
    <glyph glyph-name="uhungarumlaut" unicode="&#x171;" horiz-adv-x="591" 
d="M247 -15q-89 0 -139.5 58t-50.5 160v302h141v-294q0 -104 90 -104q50 0 76 33t26 95v270h141v-505h-129v68q-24 -40 -63.5 -61.5t-91.5 -21.5zM252 582h-132l79 178h161zM462 582h-132l79 178h161z" />
    <glyph glyph-name="gravecomb" unicode="&#x300;" horiz-adv-x="0" 
d="M-172 760h165l77 -178h-136z" />
    <glyph glyph-name="gravecomb.cap" horiz-adv-x="0" 
d="M-200 904h165l91 -163h-136z" />
    <glyph glyph-name="grave" unicode="`" horiz-adv-x="593" 
d="M176 760h165l77 -178h-136z" />
    <glyph glyph-name="gravemod" unicode="&#x2cb;" horiz-adv-x="593" 
d="M176 760h165l77 -178h-136z" />
    <glyph glyph-name="Agrave" unicode="&#xc0;" horiz-adv-x="667" 
d="M415 670l250 -670h-161l-46 141h-251l-45 -141h-160l250 670h163zM246 261h173l-87 267zM132 904h165l91 -163h-136z" />
    <glyph glyph-name="Egrave" unicode="&#xc8;" 
d="M74 0v670h471v-132h-323v-130h281v-131h-281v-145h333v-132h-481zM125 904h165l91 -163h-136z" />
    <glyph glyph-name="Igrave" unicode="&#xcc;" horiz-adv-x="298" 
d="M224 0h-150v670h150v-670zM-52 904h165l91 -163h-136z" />
    <glyph glyph-name="Ograve" unicode="&#xd2;" horiz-adv-x="776" 
d="M388 -16q-102 0 -180 46t-119.5 125.5t-41.5 179.5q0 105 44.5 185t121.5 123t175 43q102 0 180 -46t119.5 -125.5t41.5 -179.5q0 -105 -44.5 -185t-121.5 -123t-175 -43zM388 123q83 0 134 58.5t51 153.5t-51 153.5t-134 58.5t-134 -58.5t-51 -153.5t51 -153.5
t134 -58.5zM188 904h165l91 -163h-136z" />
    <glyph glyph-name="Ugrave" unicode="&#xd9;" horiz-adv-x="720" 
d="M361 123q76 0 109 44.5t33 147.5v355h150v-385q0 -147 -74.5 -224t-217.5 -77t-217.5 77t-74.5 224v385h150v-355q0 -103 33 -147.5t109 -44.5zM161 904h165l91 -163h-136z" />
    <glyph glyph-name="Wgrave" unicode="&#x1e80;" horiz-adv-x="936" 
d="M205 0l-187 670h166l106 -466l104 392h145l112 -394l105 468h162l-187 -670h-150l-116 390l-111 -390h-149zM265 904h165l91 -163h-136z" />
    <glyph glyph-name="Ygrave" unicode="&#x1ef2;" horiz-adv-x="668" 
d="M409 0h-150v230l-251 440h170l158 -301l157 301h167l-251 -440v-230zM137 904h165l91 -163h-136z" />
    <glyph glyph-name="agrave" unicode="&#xe0;" horiz-adv-x="574" 
d="M460 0q-37 0 -57.5 14t-26.5 45q-24 -36 -66.5 -55t-96.5 -19q-81 0 -128 42.5t-47 115.5q0 82 60 127.5t170 45.5h81q-3 49 -29.5 71t-81.5 22q-69 0 -133 -39l-40 93q35 26 85.5 41t106.5 15q110 0 171 -56.5t61 -157.5v-190h61v-115h-90zM172 159q0 -32 20.5 -49.5
t57.5 -17.5q45 0 72.5 28t27.5 75v30h-71q-56 0 -81.5 -16t-25.5 -50zM94 760h165l77 -178h-136z" />
    <glyph glyph-name="egrave" unicode="&#xe8;" horiz-adv-x="562" 
d="M519 42q-33 -27 -85.5 -42t-114.5 -15q-131 0 -205.5 71.5t-74.5 195.5q0 81 33.5 141.5t91 93t130.5 32.5q106 0 167.5 -65.5t61.5 -178.5v-60h-343q9 -56 46 -86t97 -30q40 0 82.5 12t69.5 30zM291 409q-45 0 -74 -26.5t-36 -75.5h212q-3 49 -29.5 75.5t-72.5 26.5z
M118 760h165l77 -178h-136z" />
    <glyph glyph-name="igrave" unicode="&#xec;" horiz-adv-x="299" 
d="M99 0v390h-73v115h136q40 0 59 -19t19 -59v-427h-141zM-31 760h165l77 -178h-136z" />
    <glyph glyph-name="ograve" unicode="&#xf2;" horiz-adv-x="624" 
d="M312 -15q-82 0 -144 35.5t-95.5 96t-33.5 135.5q0 80 36 140.5t98 93.5t139 33q82 0 144 -35.5t95.5 -96t33.5 -135.5q0 -80 -36 -140.5t-98 -93.5t-139 -33zM312 108q56 0 92.5 40t36.5 104t-36.5 104t-92.5 40t-92.5 -40t-36.5 -104t36.5 -104t92.5 -40zM140 760h165
l77 -178h-136z" />
    <glyph glyph-name="ugrave" unicode="&#xf9;" horiz-adv-x="591" 
d="M247 -15q-89 0 -139.5 58t-50.5 160v302h141v-294q0 -104 90 -104q50 0 76 33t26 95v270h141v-505h-129v68q-24 -40 -63.5 -61.5t-91.5 -21.5zM119 760h165l77 -178h-136z" />
    <glyph glyph-name="wgrave" unicode="&#x1e81;" horiz-adv-x="817" 
d="M508 0l-100 313l-99 -313h-132l-165 505h155l84 -341l96 335h128l96 -337l85 343h149l-165 -505h-132zM236 760h165l77 -178h-136z" />
    <glyph glyph-name="ygrave" unicode="&#x1ef3;" horiz-adv-x="545" 
d="M340 -1q-25 -62 -48.5 -101.5t-52.5 -64.5t-65.5 -37.5t-84.5 -12.5q-29 0 -55 6t-38 14l20 117q30 -13 67 -13q46 0 72 19.5t46 63.5l7 16l-209 499h153l120 -338l119 338h150zM100 760h165l77 -178h-136z" />
    <glyph glyph-name="circumflexcomb" unicode="&#x302;" horiz-adv-x="0" 
d="M182 582h-115l-67 91l-67 -91h-115l105 178h154z" />
    <glyph glyph-name="circumflexcomb.cap" horiz-adv-x="0" 
d="M182 741h-115l-67 81l-67 -81h-115l105 166h154z" />
    <glyph glyph-name="circumflex" unicode="&#x2c6;" horiz-adv-x="593" 
d="M479 582h-115l-67 91l-67 -91h-115l105 178h154z" />
    <glyph glyph-name="tildecomb" unicode="&#x303;" horiz-adv-x="0" 
d="M1 616q-27 14 -41 19t-26 5q-34 0 -43 -47l-70 17q2 43 16 76.5t38 51.5t54 18q19 0 35 -4.5t39 -16.5q31 -16 43 -20t24 -4q34 0 43 47l70 -17q-2 -66 -31.5 -106t-76.5 -40q-19 0 -35 4.5t-39 16.5z" />
    <glyph glyph-name="tildecomb.cap" horiz-adv-x="0" 
d="M1 769q-26 13 -40.5 17.5t-27.5 4.5q-21 0 -32 -10t-16 -34l-70 18q2 64 31 101.5t77 37.5q19 0 35 -4.5t42 -17.5t40.5 -17.5t27.5 -4.5q21 0 32 10t16 34l70 -18q-2 -63 -30 -101t-73 -38q-22 0 -40 5t-42 17z" />
    <glyph glyph-name="tilde" unicode="&#x2dc;" horiz-adv-x="593" 
d="M296 616q-27 14 -41 19t-26 5q-34 0 -43 -47l-70 17q2 43 16 76.5t38 51.5t54 18q19 0 35 -4.5t39 -16.5q31 -16 43 -20t24 -4q34 0 43 47l70 -17q-2 -66 -31.5 -106t-76.5 -40q-19 0 -35 4.5t-39 16.5z" />
    <glyph glyph-name="Acircumflex" unicode="&#xc2;" horiz-adv-x="667" 
d="M415 670l250 -670h-161l-46 141h-251l-45 -141h-160l250 670h163zM246 261h173l-87 267zM514 741h-115l-67 81l-67 -81h-115l105 166h154z" />
    <glyph glyph-name="Ecircumflex" unicode="&#xca;" 
d="M74 0v670h471v-132h-323v-130h281v-131h-281v-145h333v-132h-481zM507 741h-115l-67 81l-67 -81h-115l105 166h154z" />
    <glyph glyph-name="Icircumflex" unicode="&#xce;" horiz-adv-x="298" 
d="M224 0h-150v670h150v-670zM330 741h-115l-67 81l-67 -81h-115l105 166h154z" />
    <glyph glyph-name="Ocircumflex" unicode="&#xd4;" horiz-adv-x="776" 
d="M388 -16q-102 0 -180 46t-119.5 125.5t-41.5 179.5q0 105 44.5 185t121.5 123t175 43q102 0 180 -46t119.5 -125.5t41.5 -179.5q0 -105 -44.5 -185t-121.5 -123t-175 -43zM388 123q83 0 134 58.5t51 153.5t-51 153.5t-134 58.5t-134 -58.5t-51 -153.5t51 -153.5
t134 -58.5zM570 741h-115l-67 81l-67 -81h-115l105 166h154z" />
    <glyph glyph-name="Ucircumflex" unicode="&#xdb;" horiz-adv-x="720" 
d="M361 123q76 0 109 44.5t33 147.5v355h150v-385q0 -147 -74.5 -224t-217.5 -77t-217.5 77t-74.5 224v385h150v-355q0 -103 33 -147.5t109 -44.5zM543 741h-115l-67 81l-67 -81h-115l105 166h154z" />
    <glyph glyph-name="Wcircumflex" unicode="&#x174;" horiz-adv-x="936" 
d="M205 0l-187 670h166l106 -466l104 392h145l112 -394l105 468h162l-187 -670h-150l-116 390l-111 -390h-149zM647 741h-115l-67 81l-67 -81h-115l105 166h154z" />
    <glyph glyph-name="Ycircumflex" unicode="&#x176;" horiz-adv-x="668" 
d="M409 0h-150v230l-251 440h170l158 -301l157 301h167l-251 -440v-230zM519 741h-115l-67 81l-67 -81h-115l105 166h154z" />
    <glyph glyph-name="Atilde" unicode="&#xc3;" horiz-adv-x="667" 
d="M415 670l250 -670h-161l-46 141h-251l-45 -141h-160l250 670h163zM246 261h173l-87 267zM333 769q-26 13 -40.5 17.5t-27.5 4.5q-21 0 -32 -10t-16 -34l-70 18q2 64 31 101.5t77 37.5q19 0 35 -4.5t42 -17.5t40.5 -17.5t27.5 -4.5q21 0 32 10t16 34l70 -18
q-2 -63 -30 -101t-73 -38q-22 0 -40 5t-42 17z" />
    <glyph glyph-name="Itilde" unicode="&#x128;" horiz-adv-x="298" 
d="M224 0h-150v670h150v-670zM149 769q-26 13 -40.5 17.5t-27.5 4.5q-21 0 -32 -10t-16 -34l-70 18q2 64 31 101.5t77 37.5q19 0 35 -4.5t42 -17.5t40.5 -17.5t27.5 -4.5q21 0 32 10t16 34l70 -18q-2 -63 -30 -101t-73 -38q-22 0 -40 5t-42 17z" />
    <glyph glyph-name="Ntilde" unicode="&#xd1;" horiz-adv-x="725" 
d="M74 0v670h144l289 -430v430h144v-670h-144l-289 429v-429h-144zM381 769q-26 13 -40.5 17.5t-27.5 4.5q-21 0 -32 -10t-16 -34l-70 18q2 64 31 101.5t77 37.5q19 0 35 -4.5t42 -17.5t40.5 -17.5t27.5 -4.5q21 0 32 10t16 34l70 -18q-2 -63 -30 -101t-73 -38q-22 0 -40 5
t-42 17z" />
    <glyph glyph-name="Otilde" unicode="&#xd5;" horiz-adv-x="776" 
d="M388 -16q-102 0 -180 46t-119.5 125.5t-41.5 179.5q0 105 44.5 185t121.5 123t175 43q102 0 180 -46t119.5 -125.5t41.5 -179.5q0 -105 -44.5 -185t-121.5 -123t-175 -43zM388 123q83 0 134 58.5t51 153.5t-51 153.5t-134 58.5t-134 -58.5t-51 -153.5t51 -153.5
t134 -58.5zM389 769q-26 13 -40.5 17.5t-27.5 4.5q-21 0 -32 -10t-16 -34l-70 18q2 64 31 101.5t77 37.5q19 0 35 -4.5t42 -17.5t40.5 -17.5t27.5 -4.5q21 0 32 10t16 34l70 -18q-2 -63 -30 -101t-73 -38q-22 0 -40 5t-42 17z" />
    <glyph glyph-name="Utilde" unicode="&#x168;" horiz-adv-x="720" 
d="M361 123q76 0 109 44.5t33 147.5v355h150v-385q0 -147 -74.5 -224t-217.5 -77t-217.5 77t-74.5 224v385h150v-355q0 -103 33 -147.5t109 -44.5zM362 769q-26 13 -40.5 17.5t-27.5 4.5q-21 0 -32 -10t-16 -34l-70 18q2 64 31 101.5t77 37.5q19 0 35 -4.5t42 -17.5
t40.5 -17.5t27.5 -4.5q21 0 32 10t16 34l70 -18q-2 -63 -30 -101t-73 -38q-22 0 -40 5t-42 17z" />
    <glyph glyph-name="acircumflex" unicode="&#xe2;" horiz-adv-x="574" 
d="M460 0q-37 0 -57.5 14t-26.5 45q-24 -36 -66.5 -55t-96.5 -19q-81 0 -128 42.5t-47 115.5q0 82 60 127.5t170 45.5h81q-3 49 -29.5 71t-81.5 22q-69 0 -133 -39l-40 93q35 26 85.5 41t106.5 15q110 0 171 -56.5t61 -157.5v-190h61v-115h-90zM172 159q0 -32 20.5 -49.5
t57.5 -17.5q45 0 72.5 28t27.5 75v30h-71q-56 0 -81.5 -16t-25.5 -50zM448 582h-115l-67 91l-67 -91h-115l105 178h154z" />
    <glyph glyph-name="ecircumflex" unicode="&#xea;" horiz-adv-x="562" 
d="M519 42q-33 -27 -85.5 -42t-114.5 -15q-131 0 -205.5 71.5t-74.5 195.5q0 81 33.5 141.5t91 93t130.5 32.5q106 0 167.5 -65.5t61.5 -178.5v-60h-343q9 -56 46 -86t97 -30q40 0 82.5 12t69.5 30zM291 409q-45 0 -74 -26.5t-36 -75.5h212q-3 49 -29.5 75.5t-72.5 26.5z
M472 582h-115l-67 91l-67 -91h-115l105 178h154z" />
    <glyph glyph-name="icircumflex" unicode="&#xee;" horiz-adv-x="299" 
d="M99 0v390h-73v115h136q40 0 59 -19t19 -59v-427h-141zM323 582h-115l-67 91l-67 -91h-115l105 178h154z" />
    <glyph glyph-name="ocircumflex" unicode="&#xf4;" horiz-adv-x="624" 
d="M312 -15q-82 0 -144 35.5t-95.5 96t-33.5 135.5q0 80 36 140.5t98 93.5t139 33q82 0 144 -35.5t95.5 -96t33.5 -135.5q0 -80 -36 -140.5t-98 -93.5t-139 -33zM312 108q56 0 92.5 40t36.5 104t-36.5 104t-92.5 40t-92.5 -40t-36.5 -104t36.5 -104t92.5 -40zM494 582h-115
l-67 91l-67 -91h-115l105 178h154z" />
    <glyph glyph-name="ucircumflex" unicode="&#xfb;" horiz-adv-x="591" 
d="M247 -15q-89 0 -139.5 58t-50.5 160v302h141v-294q0 -104 90 -104q50 0 76 33t26 95v270h141v-505h-129v68q-24 -40 -63.5 -61.5t-91.5 -21.5zM473 582h-115l-67 91l-67 -91h-115l105 178h154z" />
    <glyph glyph-name="wcircumflex" unicode="&#x175;" horiz-adv-x="817" 
d="M508 0l-100 313l-99 -313h-132l-165 505h155l84 -341l96 335h128l96 -337l85 343h149l-165 -505h-132zM590 582h-115l-67 91l-67 -91h-115l105 178h154z" />
    <glyph glyph-name="ycircumflex" unicode="&#x177;" horiz-adv-x="545" 
d="M340 -1q-25 -62 -48.5 -101.5t-52.5 -64.5t-65.5 -37.5t-84.5 -12.5q-29 0 -55 6t-38 14l20 117q30 -13 67 -13q46 0 72 19.5t46 63.5l7 16l-209 499h153l120 -338l119 338h150zM454 582h-115l-67 91l-67 -91h-115l105 178h154z" />
    <glyph glyph-name="atilde" unicode="&#xe3;" horiz-adv-x="574" 
d="M460 0q-37 0 -57.5 14t-26.5 45q-24 -36 -66.5 -55t-96.5 -19q-81 0 -128 42.5t-47 115.5q0 82 60 127.5t170 45.5h81q-3 49 -29.5 71t-81.5 22q-69 0 -133 -39l-40 93q35 26 85.5 41t106.5 15q110 0 171 -56.5t61 -157.5v-190h61v-115h-90zM172 159q0 -32 20.5 -49.5
t57.5 -17.5q45 0 72.5 28t27.5 75v30h-71q-56 0 -81.5 -16t-25.5 -50zM267 616q-27 14 -41 19t-26 5q-34 0 -43 -47l-70 17q2 43 16 76.5t38 51.5t54 18q19 0 35 -4.5t39 -16.5q31 -16 43 -20t24 -4q34 0 43 47l70 -17q-2 -66 -31.5 -106t-76.5 -40q-19 0 -35 4.5t-39 16.5z
" />
    <glyph glyph-name="itilde" unicode="&#x129;" horiz-adv-x="299" 
d="M99 0v390h-73v115h136q40 0 59 -19t19 -59v-427h-141zM142 616q-27 14 -41 19t-26 5q-34 0 -43 -47l-70 17q2 43 16 76.5t38 51.5t54 18q19 0 35 -4.5t39 -16.5q31 -16 43 -20t24 -4q34 0 43 47l70 -17q-2 -66 -31.5 -106t-76.5 -40q-19 0 -35 4.5t-39 16.5z" />
    <glyph glyph-name="ntilde" unicode="&#xf1;" horiz-adv-x="593" 
d="M395 0v293q0 104 -91 104q-49 0 -76 -33t-27 -95v-269h-141v505h129v-71q25 42 65.5 63.5t91.5 21.5q89 0 139.5 -57.5t50.5 -159.5v-302h-141zM301 616q-27 14 -41 19t-26 5q-34 0 -43 -47l-70 17q2 43 16 76.5t38 51.5t54 18q19 0 35 -4.5t39 -16.5q31 -16 43 -20
t24 -4q34 0 43 47l70 -17q-2 -66 -31.5 -106t-76.5 -40q-19 0 -35 4.5t-39 16.5z" />
    <glyph glyph-name="otilde" unicode="&#xf5;" horiz-adv-x="624" 
d="M312 -15q-82 0 -144 35.5t-95.5 96t-33.5 135.5q0 80 36 140.5t98 93.5t139 33q82 0 144 -35.5t95.5 -96t33.5 -135.5q0 -80 -36 -140.5t-98 -93.5t-139 -33zM312 108q56 0 92.5 40t36.5 104t-36.5 104t-92.5 40t-92.5 -40t-36.5 -104t36.5 -104t92.5 -40zM313 616
q-27 14 -41 19t-26 5q-34 0 -43 -47l-70 17q2 43 16 76.5t38 51.5t54 18q19 0 35 -4.5t39 -16.5q31 -16 43 -20t24 -4q34 0 43 47l70 -17q-2 -66 -31.5 -106t-76.5 -40q-19 0 -35 4.5t-39 16.5z" />
    <glyph glyph-name="utilde" unicode="&#x169;" horiz-adv-x="591" 
d="M247 -15q-89 0 -139.5 58t-50.5 160v302h141v-294q0 -104 90 -104q50 0 76 33t26 95v270h141v-505h-129v68q-24 -40 -63.5 -61.5t-91.5 -21.5zM292 616q-27 14 -41 19t-26 5q-34 0 -43 -47l-70 17q2 43 16 76.5t38 51.5t54 18q19 0 35 -4.5t39 -16.5q31 -16 43 -20t24 -4
q34 0 43 47l70 -17q-2 -66 -31.5 -106t-76.5 -40q-19 0 -35 4.5t-39 16.5z" />
    <glyph glyph-name="caroncomb" unicode="&#x30c;" horiz-adv-x="0" 
d="M-182 760h115l67 -91l67 91h115l-105 -178h-154z" />
    <glyph glyph-name="caroncomb.cap" horiz-adv-x="0" 
d="M-182 907h115l67 -81l67 81h115l-105 -166h-154z" />
    <glyph glyph-name="caron" unicode="&#x2c7;" horiz-adv-x="593" 
d="M115 760h115l67 -91l67 91h115l-105 -178h-154z" />
    <glyph glyph-name="commaaboverightcomb" unicode="&#x315;" horiz-adv-x="0" 
d="M-50 719h130l-30 -243h-100v243z" />
    <glyph glyph-name="commaaboverightcomb.short" horiz-adv-x="0" 
d="M-50 752h126l-30 -177h-96v177z" />
    <glyph glyph-name="macroncomb" unicode="&#x304;" horiz-adv-x="0" 
d="M175 608h-350v117h350v-117z" />
    <glyph glyph-name="macroncomb.cap" horiz-adv-x="0" 
d="M175 771h-350v117h350v-117z" />
    <glyph glyph-name="macroncomb.short" horiz-adv-x="0" 
d="M135 608h-270v117h270v-117z" />
    <glyph glyph-name="macroncomb.short.cap" horiz-adv-x="0" 
d="M140 771h-280v117h280v-117z" />
    <glyph glyph-name="macronmod" unicode="&#x2c9;" horiz-adv-x="593" 
d="M472 608h-350v117h350v-117z" />
    <glyph glyph-name="macron" unicode="&#xaf;" horiz-adv-x="593" 
d="M472 608h-350v117h350v-117z" />
    <glyph glyph-name="Ccaron" unicode="&#x10c;" horiz-adv-x="689" 
d="M404 686q72 0 135.5 -20.5t106.5 -57.5l-65 -115q-32 26 -76 40t-92 14q-95 0 -152.5 -57.5t-57.5 -154.5q0 -96 57.5 -154t152.5 -58q106 0 176 63l61 -113q-37 -40 -103.5 -64.5t-140.5 -24.5q-108 0 -190 44.5t-125.5 122.5t-43.5 178q0 109 46 190t126.5 124
t184.5 43zM220 907h115l67 -81l67 81h115l-105 -166h-154z" />
    <glyph glyph-name="Dcaron" unicode="&#x10e;" horiz-adv-x="719" 
d="M74 670h248q108 0 187.5 -41t121 -116t41.5 -178q0 -106 -43 -181t-122 -114.5t-185 -39.5h-248v670zM320 135q95 0 145.5 51.5t50.5 148.5t-50.5 148.5t-145.5 51.5h-96v-400h96zM170 907h115l67 -81l67 81h115l-105 -166h-154z" />
    <glyph glyph-name="Ecaron" unicode="&#x11a;" 
d="M74 0v670h471v-132h-323v-130h281v-131h-281v-145h333v-132h-481zM143 907h115l67 -81l67 81h115l-105 -166h-154z" />
    <glyph glyph-name="Lcaron" unicode="&#x13d;" horiz-adv-x="564" 
d="M74 0v670h150v-531h311v-139h-461zM360 670h130l-30 -243h-100v243z" />
    <glyph glyph-name="Ncaron" unicode="&#x147;" horiz-adv-x="725" 
d="M74 0v670h144l289 -430v430h144v-670h-144l-289 429v-429h-144zM198 907h115l67 -81l67 81h115l-105 -166h-154z" />
    <glyph glyph-name="Rcaron" unicode="&#x158;" horiz-adv-x="632" 
d="M74 670h221q136 0 210 -56.5t74 -161.5q0 -64 -30.5 -112t-86.5 -74l167 -266h-172l-139 237h-97v-237h-147v670zM310 364q119 0 119 87q0 43 -30.5 65t-89.5 22h-88v-174h89zM138 907h115l67 -81l67 81h115l-105 -166h-154z" />
    <glyph glyph-name="Scaron" unicode="&#x160;" horiz-adv-x="596" 
d="M481 504q-86 50 -181 50q-47 0 -73 -17.5t-26 -50.5q0 -54 81 -69l79 -15q102 -20 150.5 -69.5t48.5 -132.5q0 -103 -69.5 -159.5t-195.5 -56.5q-145 0 -255 76l48 119q55 -30 110 -46t102 -16q108 0 108 68q0 32 -18.5 49t-61.5 25l-85 16q-95 19 -143.5 70t-48.5 132
q0 64 32.5 111.5t89 72.5t129.5 25q132 0 233 -71zM128 907h115l67 -81l67 81h115l-105 -166h-154z" />
    <glyph glyph-name="Tcaron" unicode="&#x164;" horiz-adv-x="620" 
d="M235 0v535h-203v135h556v-135h-203v-535h-150zM128 907h115l67 -81l67 81h115l-105 -166h-154z" />
    <glyph glyph-name="Zcaron" unicode="&#x17d;" horiz-adv-x="624" 
d="M574 132v-132h-532v122l334 416h-321v132h513v-122l-335 -416h341zM125 907h115l67 -81l67 81h115l-105 -166h-154z" />
    <glyph glyph-name="Amacron" unicode="&#x100;" horiz-adv-x="667" 
d="M415 670l250 -670h-161l-46 141h-251l-45 -141h-160l250 670h163zM246 261h173l-87 267zM507 771h-350v117h350v-117z" />
    <glyph glyph-name="Emacron" unicode="&#x112;" 
d="M74 0v670h471v-132h-323v-130h281v-131h-281v-145h333v-132h-481zM500 771h-350v117h350v-117z" />
    <glyph glyph-name="Imacron" unicode="&#x12a;" horiz-adv-x="298" 
d="M224 0h-150v670h150v-670zM289 771h-280v117h280v-117z" />
    <glyph glyph-name="Umacron" unicode="&#x16a;" horiz-adv-x="720" 
d="M361 123q76 0 109 44.5t33 147.5v355h150v-385q0 -147 -74.5 -224t-217.5 -77t-217.5 77t-74.5 224v385h150v-355q0 -103 33 -147.5t109 -44.5zM536 771h-350v117h350v-117z" />
    <glyph glyph-name="ccaron" unicode="&#x10d;" horiz-adv-x="522" 
d="M307 -15q-122 0 -195 71.5t-73 191.5q0 82 35 144t96 94.5t139 32.5q117 0 192 -75l-63 -95q-49 48 -121 48q-61 0 -97.5 -39.5t-36.5 -105.5q0 -65 36.5 -104.5t96.5 -39.5q36 0 72 13t58 33l56 -101q-35 -31 -87.5 -49.5t-107.5 -18.5zM112 760h115l67 -91l67 91h115
l-105 -178h-154z" />
    <glyph glyph-name="dcaron" unicode="&#x10f;" horiz-adv-x="781" 
d="M436 0v67q-20 -26 -46 -44.5t-56 -28t-63 -9.5q-69 0 -122 35t-81.5 95.5t-28.5 136.5q0 80 30.5 141t83 93.5t118.5 32.5q51 0 92.5 -20.5t68.5 -60.5v281h141v-719h-137zM309 108q58 0 94 40t36 104t-36 104t-94 40q-56 0 -91 -40t-35 -104t35 -104t91 -40zM646 719
h130l-30 -243h-100v243z" />
    <glyph glyph-name="ecaron" unicode="&#x11b;" horiz-adv-x="562" 
d="M519 42q-33 -27 -85.5 -42t-114.5 -15q-131 0 -205.5 71.5t-74.5 195.5q0 81 33.5 141.5t91 93t130.5 32.5q106 0 167.5 -65.5t61.5 -178.5v-60h-343q9 -56 46 -86t97 -30q40 0 82.5 12t69.5 30zM291 409q-45 0 -74 -26.5t-36 -75.5h212q-3 49 -29.5 75.5t-72.5 26.5z
M108 760h115l67 -91l67 91h115l-105 -178h-154z" />
    <glyph glyph-name="lcaron" unicode="&#x13e;" horiz-adv-x="409" 
d="M60 0v719h141v-719h-141zM274 719h130l-30 -243h-100v243z" />
    <glyph glyph-name="ncaron" unicode="&#x148;" horiz-adv-x="593" 
d="M395 0v293q0 104 -91 104q-49 0 -76 -33t-27 -95v-269h-141v505h129v-71q25 42 65.5 63.5t91.5 21.5q89 0 139.5 -57.5t50.5 -159.5v-302h-141zM118 760h115l67 -91l67 91h115l-105 -178h-154z" />
    <glyph glyph-name="rcaron" unicode="&#x159;" horiz-adv-x="409" 
d="M385 376q-21 6 -56 6q-61 0 -94.5 -36t-33.5 -100v-246h-141v505h129v-90q21 47 59.5 72.5t88.5 25.5q27 0 48 -8v-129zM46 760h115l67 -91l67 91h115l-105 -178h-154z" />
    <glyph glyph-name="scaron" unicode="&#x161;" horiz-adv-x="525" 
d="M260 -15q-62 0 -122 15.5t-97 40.5l37 106q30 -21 83 -35.5t97 -14.5q39 0 60 12t21 35q0 34 -59 45l-70 12q-163 28 -163 155q0 75 57 119t154 44q60 0 111 -14.5t87 -40.5l-40 -97q-34 19 -75 29.5t-79 10.5q-37 0 -57 -10.5t-20 -30.5q0 -30 52 -39l63 -12
q93 -17 135 -55t42 -105q0 -80 -57.5 -125t-159.5 -45zM69 760h115l67 -91l67 91h115l-105 -178h-154z" />
    <glyph glyph-name="tcaron" unicode="&#x165;" horiz-adv-x="447" 
d="M289 -15q-89 0 -135 48.5t-46 142.5v214h-83v115h51q23 0 33 9.5t10 32.5v84h130v-126h147v-115h-147v-197q0 -47 16.5 -68t54.5 -21q39 0 77 17l23 -105q-23 -15 -57.5 -23t-73.5 -8zM312 752h126l-30 -177h-96v177z" />
    <glyph glyph-name="zcaron" unicode="&#x17e;" horiz-adv-x="492" 
d="M457 115v-115h-420v102l243 288h-231v115h406v-100l-245 -290h247zM62 760h115l67 -91l67 91h115l-105 -178h-154z" />
    <glyph glyph-name="amacron" unicode="&#x101;" horiz-adv-x="574" 
d="M460 0q-37 0 -57.5 14t-26.5 45q-24 -36 -66.5 -55t-96.5 -19q-81 0 -128 42.5t-47 115.5q0 82 60 127.5t170 45.5h81q-3 49 -29.5 71t-81.5 22q-69 0 -133 -39l-40 93q35 26 85.5 41t106.5 15q110 0 171 -56.5t61 -157.5v-190h61v-115h-90zM172 159q0 -32 20.5 -49.5
t57.5 -17.5q45 0 72.5 28t27.5 75v30h-71q-56 0 -81.5 -16t-25.5 -50zM441 608h-350v117h350v-117z" />
    <glyph glyph-name="emacron" unicode="&#x113;" horiz-adv-x="562" 
d="M519 42q-33 -27 -85.5 -42t-114.5 -15q-131 0 -205.5 71.5t-74.5 195.5q0 81 33.5 141.5t91 93t130.5 32.5q106 0 167.5 -65.5t61.5 -178.5v-60h-343q9 -56 46 -86t97 -30q40 0 82.5 12t69.5 30zM291 409q-45 0 -74 -26.5t-36 -75.5h212q-3 49 -29.5 75.5t-72.5 26.5z
M465 608h-350v117h350v-117z" />
    <glyph glyph-name="imacron" unicode="&#x12b;" horiz-adv-x="299" 
d="M99 0v390h-73v115h136q40 0 59 -19t19 -59v-427h-141zM276 608h-270v117h270v-117z" />
    <glyph glyph-name="umacron" unicode="&#x16b;" horiz-adv-x="591" 
d="M247 -15q-89 0 -139.5 58t-50.5 160v302h141v-294q0 -104 90 -104q50 0 76 33t26 95v270h141v-505h-129v68q-24 -40 -63.5 -61.5t-91.5 -21.5zM466 608h-350v117h350v-117z" />
    <glyph glyph-name="dieresiscomb" unicode="&#x308;" horiz-adv-x="0" 
d="M-117 583q-37 0 -60.5 22.5t-23.5 56.5t23.5 56.5t60.5 22.5t60.5 -22.5t23.5 -56.5t-23.5 -56.5t-60.5 -22.5zM118 583q-37 0 -60.5 22.5t-23.5 56.5t23.5 56.5t60.5 22.5t60.5 -22.5t23.5 -56.5t-23.5 -56.5t-60.5 -22.5z" />
    <glyph glyph-name="dieresiscomb.cap" horiz-adv-x="0" 
d="M-118 743q-37 0 -60.5 22.5t-23.5 56.5t23.5 56.5t60.5 22.5t60.5 -22.5t23.5 -56.5t-23.5 -56.5t-60.5 -22.5zM119 743q-37 0 -60.5 22.5t-23.5 56.5t23.5 56.5t60.5 22.5t60.5 -22.5t23.5 -56.5t-23.5 -56.5t-60.5 -22.5z" />
    <glyph glyph-name="dieresis" unicode="&#xa8;" horiz-adv-x="593" 
d="M179 580q-37 0 -60.5 22.5t-23.5 56.5t23.5 56.5t60.5 22.5t60.5 -22.5t23.5 -56.5t-23.5 -56.5t-60.5 -22.5zM414 580q-37 0 -60.5 22.5t-23.5 56.5t23.5 56.5t60.5 22.5t60.5 -22.5t23.5 -56.5t-23.5 -56.5t-60.5 -22.5z" />
    <glyph glyph-name="brevecomb" unicode="&#x306;" horiz-adv-x="0" 
d="M0 581q-151 0 -176 148l83 29q10 -39 32.5 -57t60.5 -18t60.5 18t32.5 57l83 -29q-25 -148 -176 -148z" />
    <glyph glyph-name="brevecomb.cap" horiz-adv-x="0" 
d="M0 731q-147 0 -171 148l83 29q10 -39 31 -57t57 -18t57 18t31 57l83 -29q-24 -148 -171 -148z" />
    <glyph glyph-name="breve" unicode="&#x2d8;" horiz-adv-x="593" 
d="M297 581q-151 0 -176 148l83 29q10 -39 32.5 -57t60.5 -18t60.5 18t32.5 57l83 -29q-25 -148 -176 -148z" />
    <glyph glyph-name="Adieresis" unicode="&#xc4;" horiz-adv-x="667" 
d="M415 670l250 -670h-161l-46 141h-251l-45 -141h-160l250 670h163zM246 261h173l-87 267zM214 743q-37 0 -60.5 22.5t-23.5 56.5t23.5 56.5t60.5 22.5t60.5 -22.5t23.5 -56.5t-23.5 -56.5t-60.5 -22.5zM451 743q-37 0 -60.5 22.5t-23.5 56.5t23.5 56.5t60.5 22.5
t60.5 -22.5t23.5 -56.5t-23.5 -56.5t-60.5 -22.5z" />
    <glyph glyph-name="Edieresis" unicode="&#xcb;" 
d="M74 0v670h471v-132h-323v-130h281v-131h-281v-145h333v-132h-481zM207 743q-37 0 -60.5 22.5t-23.5 56.5t23.5 56.5t60.5 22.5t60.5 -22.5t23.5 -56.5t-23.5 -56.5t-60.5 -22.5zM444 743q-37 0 -60.5 22.5t-23.5 56.5t23.5 56.5t60.5 22.5t60.5 -22.5t23.5 -56.5
t-23.5 -56.5t-60.5 -22.5z" />
    <glyph glyph-name="Idieresis" unicode="&#xcf;" horiz-adv-x="298" 
d="M224 0h-150v670h150v-670zM30 743q-37 0 -60.5 22.5t-23.5 56.5t23.5 56.5t60.5 22.5t60.5 -22.5t23.5 -56.5t-23.5 -56.5t-60.5 -22.5zM267 743q-37 0 -60.5 22.5t-23.5 56.5t23.5 56.5t60.5 22.5t60.5 -22.5t23.5 -56.5t-23.5 -56.5t-60.5 -22.5z" />
    <glyph glyph-name="Odieresis" unicode="&#xd6;" horiz-adv-x="776" 
d="M388 -16q-102 0 -180 46t-119.5 125.5t-41.5 179.5q0 105 44.5 185t121.5 123t175 43q102 0 180 -46t119.5 -125.5t41.5 -179.5q0 -105 -44.5 -185t-121.5 -123t-175 -43zM388 123q83 0 134 58.5t51 153.5t-51 153.5t-134 58.5t-134 -58.5t-51 -153.5t51 -153.5
t134 -58.5zM270 743q-37 0 -60.5 22.5t-23.5 56.5t23.5 56.5t60.5 22.5t60.5 -22.5t23.5 -56.5t-23.5 -56.5t-60.5 -22.5zM507 743q-37 0 -60.5 22.5t-23.5 56.5t23.5 56.5t60.5 22.5t60.5 -22.5t23.5 -56.5t-23.5 -56.5t-60.5 -22.5z" />
    <glyph glyph-name="Udieresis" unicode="&#xdc;" horiz-adv-x="720" 
d="M361 123q76 0 109 44.5t33 147.5v355h150v-385q0 -147 -74.5 -224t-217.5 -77t-217.5 77t-74.5 224v385h150v-355q0 -103 33 -147.5t109 -44.5zM243 743q-37 0 -60.5 22.5t-23.5 56.5t23.5 56.5t60.5 22.5t60.5 -22.5t23.5 -56.5t-23.5 -56.5t-60.5 -22.5zM480 743
q-37 0 -60.5 22.5t-23.5 56.5t23.5 56.5t60.5 22.5t60.5 -22.5t23.5 -56.5t-23.5 -56.5t-60.5 -22.5z" />
    <glyph glyph-name="Wdieresis" unicode="&#x1e84;" horiz-adv-x="936" 
d="M205 0l-187 670h166l106 -466l104 392h145l112 -394l105 468h162l-187 -670h-150l-116 390l-111 -390h-149zM347 743q-37 0 -60.5 22.5t-23.5 56.5t23.5 56.5t60.5 22.5t60.5 -22.5t23.5 -56.5t-23.5 -56.5t-60.5 -22.5zM584 743q-37 0 -60.5 22.5t-23.5 56.5t23.5 56.5
t60.5 22.5t60.5 -22.5t23.5 -56.5t-23.5 -56.5t-60.5 -22.5z" />
    <glyph glyph-name="Ydieresis" unicode="&#x178;" horiz-adv-x="668" 
d="M409 0h-150v230l-251 440h170l158 -301l157 301h167l-251 -440v-230zM219 743q-37 0 -60.5 22.5t-23.5 56.5t23.5 56.5t60.5 22.5t60.5 -22.5t23.5 -56.5t-23.5 -56.5t-60.5 -22.5zM456 743q-37 0 -60.5 22.5t-23.5 56.5t23.5 56.5t60.5 22.5t60.5 -22.5t23.5 -56.5
t-23.5 -56.5t-60.5 -22.5z" />
    <glyph glyph-name="Abreve" unicode="&#x102;" horiz-adv-x="667" 
d="M415 670l250 -670h-161l-46 141h-251l-45 -141h-160l250 670h163zM246 261h173l-87 267zM332 731q-147 0 -171 148l83 29q10 -39 31 -57t57 -18t57 18t31 57l83 -29q-24 -148 -171 -148z" />
    <glyph glyph-name="Gbreve" unicode="&#x11e;" horiz-adv-x="713" 
d="M523 246h-128v128h188q46 0 62 -15t16 -60v-246q-102 -69 -253 -69q-111 0 -192.5 44.5t-125 123.5t-43.5 182q0 107 45 187t124.5 122.5t183.5 42.5q74 0 138.5 -25t105.5 -69l-80 -103q-32 29 -73 44.5t-86 15.5q-95 0 -150 -57t-55 -155q0 -103 56.5 -160.5
t156.5 -57.5q69 0 110 17v110zM400 731q-147 0 -171 148l83 29q10 -39 31 -57t57 -18t57 18t31 57l83 -29q-24 -148 -171 -148z" />
    <glyph glyph-name="adieresis" unicode="&#xe4;" horiz-adv-x="574" 
d="M460 0q-37 0 -57.5 14t-26.5 45q-24 -36 -66.5 -55t-96.5 -19q-81 0 -128 42.5t-47 115.5q0 82 60 127.5t170 45.5h81q-3 49 -29.5 71t-81.5 22q-69 0 -133 -39l-40 93q35 26 85.5 41t106.5 15q110 0 171 -56.5t61 -157.5v-190h61v-115h-90zM172 159q0 -32 20.5 -49.5
t57.5 -17.5q45 0 72.5 28t27.5 75v30h-71q-56 0 -81.5 -16t-25.5 -50zM149 583q-37 0 -60.5 22.5t-23.5 56.5t23.5 56.5t60.5 22.5t60.5 -22.5t23.5 -56.5t-23.5 -56.5t-60.5 -22.5zM384 583q-37 0 -60.5 22.5t-23.5 56.5t23.5 56.5t60.5 22.5t60.5 -22.5t23.5 -56.5
t-23.5 -56.5t-60.5 -22.5z" />
    <glyph glyph-name="edieresis" unicode="&#xeb;" horiz-adv-x="562" 
d="M519 42q-33 -27 -85.5 -42t-114.5 -15q-131 0 -205.5 71.5t-74.5 195.5q0 81 33.5 141.5t91 93t130.5 32.5q106 0 167.5 -65.5t61.5 -178.5v-60h-343q9 -56 46 -86t97 -30q40 0 82.5 12t69.5 30zM291 409q-45 0 -74 -26.5t-36 -75.5h212q-3 49 -29.5 75.5t-72.5 26.5z
M173 583q-37 0 -60.5 22.5t-23.5 56.5t23.5 56.5t60.5 22.5t60.5 -22.5t23.5 -56.5t-23.5 -56.5t-60.5 -22.5zM408 583q-37 0 -60.5 22.5t-23.5 56.5t23.5 56.5t60.5 22.5t60.5 -22.5t23.5 -56.5t-23.5 -56.5t-60.5 -22.5z" />
    <glyph glyph-name="idieresis" unicode="&#xef;" horiz-adv-x="299" 
d="M99 0v390h-73v115h136q40 0 59 -19t19 -59v-427h-141zM24 583q-37 0 -60.5 22.5t-23.5 56.5t23.5 56.5t60.5 22.5t60.5 -22.5t23.5 -56.5t-23.5 -56.5t-60.5 -22.5zM259 583q-37 0 -60.5 22.5t-23.5 56.5t23.5 56.5t60.5 22.5t60.5 -22.5t23.5 -56.5t-23.5 -56.5
t-60.5 -22.5z" />
    <glyph glyph-name="odieresis" unicode="&#xf6;" horiz-adv-x="624" 
d="M312 -15q-82 0 -144 35.5t-95.5 96t-33.5 135.5q0 80 36 140.5t98 93.5t139 33q82 0 144 -35.5t95.5 -96t33.5 -135.5q0 -80 -36 -140.5t-98 -93.5t-139 -33zM312 108q56 0 92.5 40t36.5 104t-36.5 104t-92.5 40t-92.5 -40t-36.5 -104t36.5 -104t92.5 -40zM195 583
q-37 0 -60.5 22.5t-23.5 56.5t23.5 56.5t60.5 22.5t60.5 -22.5t23.5 -56.5t-23.5 -56.5t-60.5 -22.5zM430 583q-37 0 -60.5 22.5t-23.5 56.5t23.5 56.5t60.5 22.5t60.5 -22.5t23.5 -56.5t-23.5 -56.5t-60.5 -22.5z" />
    <glyph glyph-name="udieresis" unicode="&#xfc;" horiz-adv-x="591" 
d="M247 -15q-89 0 -139.5 58t-50.5 160v302h141v-294q0 -104 90 -104q50 0 76 33t26 95v270h141v-505h-129v68q-24 -40 -63.5 -61.5t-91.5 -21.5zM174 583q-37 0 -60.5 22.5t-23.5 56.5t23.5 56.5t60.5 22.5t60.5 -22.5t23.5 -56.5t-23.5 -56.5t-60.5 -22.5zM409 583
q-37 0 -60.5 22.5t-23.5 56.5t23.5 56.5t60.5 22.5t60.5 -22.5t23.5 -56.5t-23.5 -56.5t-60.5 -22.5z" />
    <glyph glyph-name="wdieresis" unicode="&#x1e85;" horiz-adv-x="817" 
d="M508 0l-100 313l-99 -313h-132l-165 505h155l84 -341l96 335h128l96 -337l85 343h149l-165 -505h-132zM291 583q-37 0 -60.5 22.5t-23.5 56.5t23.5 56.5t60.5 22.5t60.5 -22.5t23.5 -56.5t-23.5 -56.5t-60.5 -22.5zM526 583q-37 0 -60.5 22.5t-23.5 56.5t23.5 56.5
t60.5 22.5t60.5 -22.5t23.5 -56.5t-23.5 -56.5t-60.5 -22.5z" />
    <glyph glyph-name="ydieresis" unicode="&#xff;" horiz-adv-x="545" 
d="M340 -1q-25 -62 -48.5 -101.5t-52.5 -64.5t-65.5 -37.5t-84.5 -12.5q-29 0 -55 6t-38 14l20 117q30 -13 67 -13q46 0 72 19.5t46 63.5l7 16l-209 499h153l120 -338l119 338h150zM155 583q-37 0 -60.5 22.5t-23.5 56.5t23.5 56.5t60.5 22.5t60.5 -22.5t23.5 -56.5
t-23.5 -56.5t-60.5 -22.5zM390 583q-37 0 -60.5 22.5t-23.5 56.5t23.5 56.5t60.5 22.5t60.5 -22.5t23.5 -56.5t-23.5 -56.5t-60.5 -22.5z" />
    <glyph glyph-name="abreve" unicode="&#x103;" horiz-adv-x="574" 
d="M460 0q-37 0 -57.5 14t-26.5 45q-24 -36 -66.5 -55t-96.5 -19q-81 0 -128 42.5t-47 115.5q0 82 60 127.5t170 45.5h81q-3 49 -29.5 71t-81.5 22q-69 0 -133 -39l-40 93q35 26 85.5 41t106.5 15q110 0 171 -56.5t61 -157.5v-190h61v-115h-90zM172 159q0 -32 20.5 -49.5
t57.5 -17.5q45 0 72.5 28t27.5 75v30h-71q-56 0 -81.5 -16t-25.5 -50zM266 581q-151 0 -176 148l83 29q10 -39 32.5 -57t60.5 -18t60.5 18t32.5 57l83 -29q-25 -148 -176 -148z" />
    <glyph glyph-name="gbreve" unicode="&#x11f;" horiz-adv-x="633" 
d="M438 86q-27 -42 -69.5 -64.5t-94.5 -22.5q-70 0 -123.5 34.5t-82.5 93.5t-29 132q0 77 31 136.5t83.5 91.5t118.5 32q50 0 92.5 -21t71.5 -60v67h137v-447q0 -138 -74.5 -206.5t-224.5 -68.5q-53 0 -104.5 15t-81.5 38l38 106q31 -19 69.5 -29.5t75.5 -10.5
q85 0 126 37.5t41 115.5v31zM310 121q56 0 92.5 39t36.5 99q0 61 -36.5 100.5t-92.5 39.5t-91.5 -39.5t-35.5 -100.5t35.5 -99.5t91.5 -38.5zM294 581q-151 0 -176 148l83 29q10 -39 32.5 -57t60.5 -18t60.5 18t32.5 57l83 -29q-25 -148 -176 -148z" />
    <glyph glyph-name="dotaccentcomb" unicode="&#x307;" horiz-adv-x="0" 
d="M0 582q-37 0 -61 22.5t-24 57.5t24 57.5t61 22.5t61 -22.5t24 -57.5t-24 -57.5t-61 -22.5z" />
    <glyph glyph-name="dotaccentcomb.cap" horiz-adv-x="0" 
d="M0 742q-37 0 -61 22.5t-24 57.5t24 57.5t61 22.5t61 -22.5t24 -57.5t-24 -57.5t-61 -22.5z" />
    <glyph glyph-name="dotaccent" unicode="&#x2d9;" horiz-adv-x="593" 
d="M297 582q-37 0 -61 22.5t-24 57.5t24 57.5t61 22.5t61 -22.5t24 -57.5t-24 -57.5t-61 -22.5z" />
    <glyph glyph-name="dotbelowcomb" unicode="&#x323;" horiz-adv-x="0" 
d="M0 -227q-37 0 -61 22.5t-24 57.5t24 57.5t61 22.5t61 -22.5t24 -57.5t-24 -57.5t-61 -22.5z" />
    <glyph glyph-name="dotbelowcomb.cap" horiz-adv-x="0" 
d="M0 -227q-37 0 -61 22.5t-24 57.5t24 57.5t61 22.5t61 -22.5t24 -57.5t-24 -57.5t-61 -22.5z" />
    <glyph glyph-name="Edotaccent" unicode="&#x116;" 
d="M74 0v670h471v-132h-323v-130h281v-131h-281v-145h333v-132h-481zM326 742q-37 0 -61 22.5t-24 57.5t24 57.5t61 22.5t61 -22.5t24 -57.5t-24 -57.5t-61 -22.5z" />
    <glyph glyph-name="Idotaccent" unicode="&#x130;" horiz-adv-x="298" 
d="M224 0h-150v670h150v-670zM149 742q-37 0 -61 22.5t-24 57.5t24 57.5t61 22.5t61 -22.5t24 -57.5t-24 -57.5t-61 -22.5z" />
    <glyph glyph-name="Cdotaccent" unicode="&#x10a;" horiz-adv-x="689" 
d="M404 686q72 0 135.5 -20.5t106.5 -57.5l-65 -115q-32 26 -76 40t-92 14q-95 0 -152.5 -57.5t-57.5 -154.5q0 -96 57.5 -154t152.5 -58q106 0 176 63l61 -113q-37 -40 -103.5 -64.5t-140.5 -24.5q-108 0 -190 44.5t-125.5 122.5t-43.5 178q0 109 46 190t126.5 124
t184.5 43zM403 742q-37 0 -61 22.5t-24 57.5t24 57.5t61 22.5t61 -22.5t24 -57.5t-24 -57.5t-61 -22.5z" />
    <glyph glyph-name="Gdotaccent" unicode="&#x120;" horiz-adv-x="713" 
d="M523 246h-128v128h188q46 0 62 -15t16 -60v-246q-102 -69 -253 -69q-111 0 -192.5 44.5t-125 123.5t-43.5 182q0 107 45 187t124.5 122.5t183.5 42.5q74 0 138.5 -25t105.5 -69l-80 -103q-32 29 -73 44.5t-86 15.5q-95 0 -150 -57t-55 -155q0 -103 56.5 -160.5
t156.5 -57.5q69 0 110 17v110zM401 742q-37 0 -61 22.5t-24 57.5t24 57.5t61 22.5t61 -22.5t24 -57.5t-24 -57.5t-61 -22.5z" />
    <glyph glyph-name="Zdotaccent" unicode="&#x17b;" horiz-adv-x="624" 
d="M574 132v-132h-532v122l334 416h-321v132h513v-122l-335 -416h341zM308 742q-37 0 -61 22.5t-24 57.5t24 57.5t61 22.5t61 -22.5t24 -57.5t-24 -57.5t-61 -22.5z" />
    <glyph glyph-name="Hdotbelow" unicode="&#x1e24;" horiz-adv-x="737" 
d="M74 0v670h150v-260h289v260h150v-670h-150v271h-289v-271h-150zM373 -227q-37 0 -61 22.5t-24 57.5t24 57.5t61 22.5t61 -22.5t24 -57.5t-24 -57.5t-61 -22.5z" />
    <glyph glyph-name="Ldotbelow" unicode="&#x1e36;" horiz-adv-x="564" 
d="M74 0v670h150v-531h311v-139h-461zM307 -227q-37 0 -61 22.5t-24 57.5t24 57.5t61 22.5t61 -22.5t24 -57.5t-24 -57.5t-61 -22.5z" />
    <glyph glyph-name="edotaccent" unicode="&#x117;" horiz-adv-x="562" 
d="M519 42q-33 -27 -85.5 -42t-114.5 -15q-131 0 -205.5 71.5t-74.5 195.5q0 81 33.5 141.5t91 93t130.5 32.5q106 0 167.5 -65.5t61.5 -178.5v-60h-343q9 -56 46 -86t97 -30q40 0 82.5 12t69.5 30zM291 409q-45 0 -74 -26.5t-36 -75.5h212q-3 49 -29.5 75.5t-72.5 26.5z
M291 582q-37 0 -61 22.5t-24 57.5t24 57.5t61 22.5t61 -22.5t24 -57.5t-24 -57.5t-61 -22.5z" />
    <glyph glyph-name="cdotaccent" unicode="&#x10b;" horiz-adv-x="522" 
d="M307 -15q-122 0 -195 71.5t-73 191.5q0 82 35 144t96 94.5t139 32.5q117 0 192 -75l-63 -95q-49 48 -121 48q-61 0 -97.5 -39.5t-36.5 -105.5q0 -65 36.5 -104.5t96.5 -39.5q36 0 72 13t58 33l56 -101q-35 -31 -87.5 -49.5t-107.5 -18.5zM295 582q-37 0 -61 22.5
t-24 57.5t24 57.5t61 22.5t61 -22.5t24 -57.5t-24 -57.5t-61 -22.5z" />
    <glyph glyph-name="gdotaccent" unicode="&#x121;" horiz-adv-x="633" 
d="M438 86q-27 -42 -69.5 -64.5t-94.5 -22.5q-70 0 -123.5 34.5t-82.5 93.5t-29 132q0 77 31 136.5t83.5 91.5t118.5 32q50 0 92.5 -21t71.5 -60v67h137v-447q0 -138 -74.5 -206.5t-224.5 -68.5q-53 0 -104.5 15t-81.5 38l38 106q31 -19 69.5 -29.5t75.5 -10.5
q85 0 126 37.5t41 115.5v31zM310 121q56 0 92.5 39t36.5 99q0 61 -36.5 100.5t-92.5 39.5t-91.5 -39.5t-35.5 -100.5t35.5 -99.5t91.5 -38.5zM295 582q-37 0 -61 22.5t-24 57.5t24 57.5t61 22.5t61 -22.5t24 -57.5t-24 -57.5t-61 -22.5z" />
    </font>
</defs>
</svg>
