<svg xmlns="http://www.w3.org/2000/svg" width="16.547" height="20.35" viewBox="0 0 16.547 20.35"><path d="M43.8,47.651H28.752A.752.752,0,0,1,28,46.9V35.252a.752.752,0,0,1,.752-.752H43.8a.752.752,0,0,1,.752.752V46.9A.752.752,0,0,1,43.8,47.651ZM29.5,46.147H43.043V36H29.5Z" transform="translate(-28 -27.301)"/><path d="M49.12,86.619H45.911a.686.686,0,0,1-.686-.686V83.186a.686.686,0,0,1,.686-.686H49.12a.686.686,0,0,1,.686.686v2.746A.686.686,0,0,1,49.12,86.619ZM46.6,85.246h1.836V83.873H46.6Z" transform="translate(-39.235 -66.663)"/><g transform="translate(3.009 10.208)"><path d="M37.5,42.5H36V44h1.5V42.5Z" transform="translate(-36 -42.5)"/><path d="M37.5,58.5H36V60h1.5V58.5Z" transform="translate(-36 -55.621)"/><path d="M37.5,82.5H36V84h1.5V82.5Z" transform="translate(-36 -76.871)"/><path d="M45.5,42.5H44V44h1.5V42.5Z" transform="translate(-40.991 -42.5)"/><path d="M45.5,58.5H44V60h1.5V58.5Z" transform="translate(-40.991 -55.621)"/><path d="M53.5,42.5H52V44h1.5V42.5Z" transform="translate(-45.983 -42.5)"/><path d="M53.5,58.5H52V60h1.5V58.5Z" transform="translate(-45.983 -55.621)"/><path d="M61.5,42.5H60V44h1.5V42.5Z" transform="translate(-50.974 -42.5)"/><path d="M61.5,58.5H60V60h1.5V58.5Z" transform="translate(-50.974 -55.621)"/><path d="M61.5,82.5H60V84h1.5V82.5Z" transform="translate(-50.974 -76.871)"/></g><path d="M45.282,31.013H34.752A.752.752,0,0,1,34,30.261V27.252a.752.752,0,0,1,.752-.752h10.53a.752.752,0,0,1,.752.752v3.009A.752.752,0,0,1,45.282,31.013Zm-9.778-1.5H44.53V28H35.5Z" transform="translate(-31.744 -22.309)"/><path d="M46.522,23.013H39.752A.752.752,0,0,1,39,22.261V19.252a.752.752,0,0,1,.752-.752h6.769a.752.752,0,0,1,.752.752v3.009A.752.752,0,0,1,46.522,23.013Zm-6.017-1.5h5.265V20H40.5Z" transform="translate(-34.863 -17.318)"/><path d="M48.752,9.186c-.415,0-.752-.21-.752-.47V6.97c0-.259.337-.47.752-.47s.752.21.752.47V8.717C49.5,8.976,49.168,9.186,48.752,9.186Z" transform="translate(-40.478 -6.5)"/></svg>