<svg xmlns="http://www.w3.org/2000/svg" width="16" height="15.26" viewBox="0 0 16 15.26"><defs><style>.a{fill:#f7c530;}</style></defs><path class="a" d="M10.2,2.377l1.65,5.07a.344.344,0,0,0,.331.24h5.333a.349.349,0,0,1,.206.634L13.4,11.456a.349.349,0,0,0-.125.389l1.65,5.07a.354.354,0,0,1-.542.388l-4.312-3.129a.343.343,0,0,0-.411,0L5.347,17.3a.354.354,0,0,1-.571-.387l1.661-5.07a.349.349,0,0,0-.125-.389l-4.3-3.135a.348.348,0,0,1,.205-.633H7.579a.343.343,0,0,0,.331-.24l1.621-5.07a.35.35,0,0,1,.664,0Z" transform="translate(-1.863 -2.137)"/></svg>